<mxfile host="app.diagrams.net" modified="2024-04-01T08:07:28.214Z" agent="Mozilla/5.0 (X11; Linux x86_64) AppleWebKit/537.36 (KHTML, like Gecko) Chrome/123.0.0.0 Safari/537.36 Edg/123.0.0.0" etag="EqnKgpLkGSg22_g_s4LK" version="24.2.1" type="github">
  <diagram name="Page-1" id="UMn9NgwjwvaUy-2SpcIn">
    <mxGraphModel dx="7014" dy="2395" grid="1" gridSize="10" guides="1" tooltips="1" connect="1" arrows="1" fold="1" page="1" pageScale="1" pageWidth="827" pageHeight="1169" math="0" shadow="0">
      <root>
        <mxCell id="0" />
        <mxCell id="1" parent="0" />
        <mxCell id="y-TX2a_j0supAGSEBNOk-58" value="" style="rounded=1;whiteSpace=wrap;html=1;" parent="1" vertex="1">
          <mxGeometry x="2558.25" y="1535" width="280" height="220" as="geometry" />
        </mxCell>
        <mxCell id="pE7JUmBPL3v0cMtBO8co-5" value="" style="group" parent="1" vertex="1" connectable="0">
          <mxGeometry x="80" y="230" width="460" height="220" as="geometry" />
        </mxCell>
        <mxCell id="pE7JUmBPL3v0cMtBO8co-2" value="" style="rounded=1;whiteSpace=wrap;html=1;" parent="pE7JUmBPL3v0cMtBO8co-5" vertex="1">
          <mxGeometry y="-40" width="460" height="260" as="geometry" />
        </mxCell>
        <mxCell id="pE7JUmBPL3v0cMtBO8co-3" value="Master node" style="text;html=1;strokeColor=none;fillColor=none;align=center;verticalAlign=middle;whiteSpace=wrap;rounded=0;" parent="pE7JUmBPL3v0cMtBO8co-5" vertex="1">
          <mxGeometry x="174" y="190" width="125" height="30" as="geometry" />
        </mxCell>
        <mxCell id="pE7JUmBPL3v0cMtBO8co-8" value="Controller Manager" style="rounded=1;whiteSpace=wrap;html=1;" parent="pE7JUmBPL3v0cMtBO8co-5" vertex="1">
          <mxGeometry x="17.5" y="20" width="120" height="60" as="geometry" />
        </mxCell>
        <mxCell id="pE7JUmBPL3v0cMtBO8co-9" value="Scheduler" style="rounded=1;whiteSpace=wrap;html=1;" parent="pE7JUmBPL3v0cMtBO8co-5" vertex="1">
          <mxGeometry x="174" y="20" width="120" height="60" as="geometry" />
        </mxCell>
        <mxCell id="pE7JUmBPL3v0cMtBO8co-10" value="etcd" style="rounded=1;whiteSpace=wrap;html=1;" parent="pE7JUmBPL3v0cMtBO8co-5" vertex="1">
          <mxGeometry x="322.5" y="20" width="120" height="60" as="geometry" />
        </mxCell>
        <mxCell id="pE7JUmBPL3v0cMtBO8co-11" value="API Gateway" style="rounded=1;whiteSpace=wrap;html=1;fillColor=#fff2cc;strokeColor=#d6b656;" parent="pE7JUmBPL3v0cMtBO8co-5" vertex="1">
          <mxGeometry x="141.5" y="130" width="185" height="60" as="geometry" />
        </mxCell>
        <mxCell id="pE7JUmBPL3v0cMtBO8co-36" value="" style="endArrow=classic;html=1;rounded=0;exitX=0.75;exitY=1;exitDx=0;exitDy=0;" parent="pE7JUmBPL3v0cMtBO8co-5" source="pE7JUmBPL3v0cMtBO8co-8" target="pE7JUmBPL3v0cMtBO8co-11" edge="1">
          <mxGeometry width="50" height="50" relative="1" as="geometry">
            <mxPoint x="160" y="560" as="sourcePoint" />
            <mxPoint x="210" y="510" as="targetPoint" />
          </mxGeometry>
        </mxCell>
        <mxCell id="pE7JUmBPL3v0cMtBO8co-37" value="" style="endArrow=classic;html=1;rounded=0;exitX=0.5;exitY=1;exitDx=0;exitDy=0;" parent="pE7JUmBPL3v0cMtBO8co-5" source="pE7JUmBPL3v0cMtBO8co-9" target="pE7JUmBPL3v0cMtBO8co-11" edge="1">
          <mxGeometry width="50" height="50" relative="1" as="geometry">
            <mxPoint x="118" y="90" as="sourcePoint" />
            <mxPoint x="197" y="140" as="targetPoint" />
          </mxGeometry>
        </mxCell>
        <mxCell id="pE7JUmBPL3v0cMtBO8co-38" value="" style="endArrow=classic;html=1;rounded=0;exitX=0.25;exitY=1;exitDx=0;exitDy=0;entryX=0.75;entryY=0;entryDx=0;entryDy=0;" parent="pE7JUmBPL3v0cMtBO8co-5" source="pE7JUmBPL3v0cMtBO8co-10" target="pE7JUmBPL3v0cMtBO8co-11" edge="1">
          <mxGeometry width="50" height="50" relative="1" as="geometry">
            <mxPoint x="128" y="100" as="sourcePoint" />
            <mxPoint x="207" y="150" as="targetPoint" />
          </mxGeometry>
        </mxCell>
        <mxCell id="pE7JUmBPL3v0cMtBO8co-20" value="" style="group" parent="1" vertex="1" connectable="0">
          <mxGeometry x="-60" y="515" width="330" height="480" as="geometry" />
        </mxCell>
        <mxCell id="pE7JUmBPL3v0cMtBO8co-12" value="" style="rounded=1;whiteSpace=wrap;html=1;" parent="pE7JUmBPL3v0cMtBO8co-20" vertex="1">
          <mxGeometry width="330" height="479.99999999999994" as="geometry" />
        </mxCell>
        <mxCell id="pE7JUmBPL3v0cMtBO8co-13" value="Pod 1" style="rounded=1;whiteSpace=wrap;html=1;verticalAlign=top;" parent="pE7JUmBPL3v0cMtBO8co-20" vertex="1">
          <mxGeometry x="19.249999999999996" y="48" width="132" height="175.99999999999994" as="geometry" />
        </mxCell>
        <mxCell id="pE7JUmBPL3v0cMtBO8co-14" value="Pod 2" style="rounded=1;whiteSpace=wrap;html=1;verticalAlign=top;" parent="pE7JUmBPL3v0cMtBO8co-20" vertex="1">
          <mxGeometry x="184.24999999999997" y="48" width="132" height="175.99999999999994" as="geometry" />
        </mxCell>
        <mxCell id="pE7JUmBPL3v0cMtBO8co-15" value="container runtime" style="rounded=1;whiteSpace=wrap;html=1;" parent="pE7JUmBPL3v0cMtBO8co-20" vertex="1">
          <mxGeometry x="19.249999999999996" y="239.99999999999994" width="297" height="48" as="geometry" />
        </mxCell>
        <mxCell id="pE7JUmBPL3v0cMtBO8co-16" value="WORKER Node 1" style="rounded=1;whiteSpace=wrap;html=1;" parent="pE7JUmBPL3v0cMtBO8co-20" vertex="1">
          <mxGeometry x="16.5" y="389.9999999999999" width="297" height="48" as="geometry" />
        </mxCell>
        <mxCell id="pE7JUmBPL3v0cMtBO8co-17" value="kube-proxy" style="rounded=1;whiteSpace=wrap;html=1;" parent="pE7JUmBPL3v0cMtBO8co-20" vertex="1">
          <mxGeometry x="181.5" y="310" width="132" height="48" as="geometry" />
        </mxCell>
        <mxCell id="pE7JUmBPL3v0cMtBO8co-18" value="kubelet" style="rounded=1;whiteSpace=wrap;html=1;" parent="pE7JUmBPL3v0cMtBO8co-20" vertex="1">
          <mxGeometry x="19.249999999999996" y="310" width="132" height="48" as="geometry" />
        </mxCell>
        <mxCell id="pE7JUmBPL3v0cMtBO8co-19" value="container 1" style="rounded=1;whiteSpace=wrap;html=1;" parent="pE7JUmBPL3v0cMtBO8co-20" vertex="1">
          <mxGeometry x="27.62" y="90" width="115.25" height="28" as="geometry" />
        </mxCell>
        <mxCell id="pE7JUmBPL3v0cMtBO8co-21" value="container 2" style="rounded=1;whiteSpace=wrap;html=1;" parent="pE7JUmBPL3v0cMtBO8co-20" vertex="1">
          <mxGeometry x="27.5" y="140" width="115.25" height="28" as="geometry" />
        </mxCell>
        <mxCell id="pE7JUmBPL3v0cMtBO8co-22" value="container 1" style="rounded=1;whiteSpace=wrap;html=1;" parent="pE7JUmBPL3v0cMtBO8co-20" vertex="1">
          <mxGeometry x="189.88" y="90" width="115.25" height="28" as="geometry" />
        </mxCell>
        <mxCell id="pE7JUmBPL3v0cMtBO8co-23" value="" style="group" parent="1" vertex="1" connectable="0">
          <mxGeometry x="330" y="520" width="330" height="480" as="geometry" />
        </mxCell>
        <mxCell id="pE7JUmBPL3v0cMtBO8co-24" value="" style="rounded=1;whiteSpace=wrap;html=1;" parent="pE7JUmBPL3v0cMtBO8co-23" vertex="1">
          <mxGeometry width="330" height="479.99999999999994" as="geometry" />
        </mxCell>
        <mxCell id="pE7JUmBPL3v0cMtBO8co-25" value="Pod 1" style="rounded=1;whiteSpace=wrap;html=1;verticalAlign=top;" parent="pE7JUmBPL3v0cMtBO8co-23" vertex="1">
          <mxGeometry x="19.249999999999996" y="48" width="132" height="175.99999999999994" as="geometry" />
        </mxCell>
        <mxCell id="pE7JUmBPL3v0cMtBO8co-26" value="Pod 2" style="rounded=1;whiteSpace=wrap;html=1;verticalAlign=top;" parent="pE7JUmBPL3v0cMtBO8co-23" vertex="1">
          <mxGeometry x="184.24999999999997" y="48" width="132" height="175.99999999999994" as="geometry" />
        </mxCell>
        <mxCell id="pE7JUmBPL3v0cMtBO8co-27" value="container runtime" style="rounded=1;whiteSpace=wrap;html=1;" parent="pE7JUmBPL3v0cMtBO8co-23" vertex="1">
          <mxGeometry x="19.249999999999996" y="239.99999999999994" width="297" height="48" as="geometry" />
        </mxCell>
        <mxCell id="pE7JUmBPL3v0cMtBO8co-28" value="WORKER Node 2" style="rounded=1;whiteSpace=wrap;html=1;" parent="pE7JUmBPL3v0cMtBO8co-23" vertex="1">
          <mxGeometry x="16.5" y="389.9999999999999" width="297" height="48" as="geometry" />
        </mxCell>
        <mxCell id="pE7JUmBPL3v0cMtBO8co-29" value="kube-proxy" style="rounded=1;whiteSpace=wrap;html=1;" parent="pE7JUmBPL3v0cMtBO8co-23" vertex="1">
          <mxGeometry x="181.5" y="310" width="132" height="48" as="geometry" />
        </mxCell>
        <mxCell id="pE7JUmBPL3v0cMtBO8co-30" value="kubelet" style="rounded=1;whiteSpace=wrap;html=1;" parent="pE7JUmBPL3v0cMtBO8co-23" vertex="1">
          <mxGeometry x="19.249999999999996" y="310" width="132" height="48" as="geometry" />
        </mxCell>
        <mxCell id="pE7JUmBPL3v0cMtBO8co-31" value="container 1" style="rounded=1;whiteSpace=wrap;html=1;" parent="pE7JUmBPL3v0cMtBO8co-23" vertex="1">
          <mxGeometry x="27.62" y="90" width="115.25" height="28" as="geometry" />
        </mxCell>
        <mxCell id="pE7JUmBPL3v0cMtBO8co-32" value="container 2" style="rounded=1;whiteSpace=wrap;html=1;" parent="pE7JUmBPL3v0cMtBO8co-23" vertex="1">
          <mxGeometry x="27.5" y="140" width="115.25" height="28" as="geometry" />
        </mxCell>
        <mxCell id="pE7JUmBPL3v0cMtBO8co-33" value="container 1" style="rounded=1;whiteSpace=wrap;html=1;" parent="pE7JUmBPL3v0cMtBO8co-23" vertex="1">
          <mxGeometry x="189.88" y="90" width="115.25" height="28" as="geometry" />
        </mxCell>
        <mxCell id="pE7JUmBPL3v0cMtBO8co-35" value="Control plane" style="rounded=1;whiteSpace=wrap;html=1;" parent="1" vertex="1">
          <mxGeometry x="110.75" y="200" width="398.5" height="40" as="geometry" />
        </mxCell>
        <mxCell id="pE7JUmBPL3v0cMtBO8co-39" value="" style="endArrow=classic;html=1;rounded=0;entryX=0.436;entryY=0.006;entryDx=0;entryDy=0;entryPerimeter=0;" parent="1" source="pE7JUmBPL3v0cMtBO8co-11" target="pE7JUmBPL3v0cMtBO8co-24" edge="1">
          <mxGeometry width="50" height="50" relative="1" as="geometry">
            <mxPoint x="443" y="320" as="sourcePoint" />
            <mxPoint x="370" y="370" as="targetPoint" />
            <Array as="points">
              <mxPoint x="420" y="480" />
            </Array>
          </mxGeometry>
        </mxCell>
        <mxCell id="pE7JUmBPL3v0cMtBO8co-41" value="" style="endArrow=classic;html=1;rounded=0;" parent="1" source="pE7JUmBPL3v0cMtBO8co-11" target="pE7JUmBPL3v0cMtBO8co-12" edge="1">
          <mxGeometry width="50" height="50" relative="1" as="geometry">
            <mxPoint x="224" y="480" as="sourcePoint" />
            <mxPoint x="349" y="583" as="targetPoint" />
            <Array as="points" />
          </mxGeometry>
        </mxCell>
        <mxCell id="pE7JUmBPL3v0cMtBO8co-42" value="" style="group" parent="1" vertex="1" connectable="0">
          <mxGeometry x="195" y="-40" width="230" height="140" as="geometry" />
        </mxCell>
        <mxCell id="pE7JUmBPL3v0cMtBO8co-1" value="" style="rounded=1;whiteSpace=wrap;html=1;" parent="pE7JUmBPL3v0cMtBO8co-42" vertex="1">
          <mxGeometry width="230" height="140" as="geometry" />
        </mxCell>
        <mxCell id="pE7JUmBPL3v0cMtBO8co-6" value="Application&lt;br&gt;&amp;nbsp;Interface" style="shadow=0;dashed=0;html=1;strokeColor=none;fillColor=#4495D1;labelPosition=center;verticalLabelPosition=bottom;verticalAlign=top;align=center;outlineConnect=0;shape=mxgraph.veeam.2d.web_ui;" parent="pE7JUmBPL3v0cMtBO8co-42" vertex="1">
          <mxGeometry x="29" y="20" width="69" height="70" as="geometry" />
        </mxCell>
        <mxCell id="pE7JUmBPL3v0cMtBO8co-7" value="AWS&#xa;Command Line Interface" style="sketch=0;outlineConnect=0;fontColor=#232F3E;gradientColor=none;strokeColor=#ffffff;fillColor=#232F3E;dashed=0;verticalLabelPosition=middle;verticalAlign=bottom;align=center;html=1;whiteSpace=wrap;fontSize=10;fontStyle=1;spacing=3;shape=mxgraph.aws4.productIcon;prIcon=mxgraph.aws4.command_line_interface;" parent="pE7JUmBPL3v0cMtBO8co-42" vertex="1">
          <mxGeometry x="130" y="10" width="80" height="120" as="geometry" />
        </mxCell>
        <mxCell id="pE7JUmBPL3v0cMtBO8co-43" style="edgeStyle=orthogonalEdgeStyle;rounded=0;orthogonalLoop=1;jettySize=auto;html=1;entryX=0.5;entryY=0;entryDx=0;entryDy=0;" parent="1" source="pE7JUmBPL3v0cMtBO8co-1" target="pE7JUmBPL3v0cMtBO8co-2" edge="1">
          <mxGeometry relative="1" as="geometry" />
        </mxCell>
        <mxCell id="pE7JUmBPL3v0cMtBO8co-45" value="" style="endArrow=none;html=1;rounded=0;entryX=0.004;entryY=0.091;entryDx=0;entryDy=0;entryPerimeter=0;exitX=1;exitY=0;exitDx=0;exitDy=0;dashed=1;dashPattern=8 8;strokeWidth=4;" parent="1" source="pE7JUmBPL3v0cMtBO8co-11" target="pE7JUmBPL3v0cMtBO8co-44" edge="1">
          <mxGeometry width="50" height="50" relative="1" as="geometry">
            <mxPoint x="880" y="860" as="sourcePoint" />
            <mxPoint x="930" y="810" as="targetPoint" />
          </mxGeometry>
        </mxCell>
        <mxCell id="pE7JUmBPL3v0cMtBO8co-46" value="" style="endArrow=none;html=1;rounded=0;entryX=0.014;entryY=0.943;entryDx=0;entryDy=0;entryPerimeter=0;exitX=1;exitY=1;exitDx=0;exitDy=0;dashed=1;dashPattern=8 8;strokeWidth=4;" parent="1" source="pE7JUmBPL3v0cMtBO8co-11" target="pE7JUmBPL3v0cMtBO8co-44" edge="1">
          <mxGeometry width="50" height="50" relative="1" as="geometry">
            <mxPoint x="417" y="370" as="sourcePoint" />
            <mxPoint x="721.9200000000001" y="673.5999999999999" as="targetPoint" />
          </mxGeometry>
        </mxCell>
        <mxCell id="pE7JUmBPL3v0cMtBO8co-47" value="API SERVER" style="text;html=1;strokeColor=none;fillColor=none;align=center;verticalAlign=middle;whiteSpace=wrap;rounded=0;" parent="1" vertex="1">
          <mxGeometry x="2500" y="110" width="200" height="30" as="geometry" />
        </mxCell>
        <mxCell id="pE7JUmBPL3v0cMtBO8co-44" value="" style="rounded=1;whiteSpace=wrap;html=1;fillColor=#fff2cc;strokeColor=#d6b656;" parent="1" vertex="1">
          <mxGeometry x="920" y="-130" width="1520" height="910" as="geometry" />
        </mxCell>
        <mxCell id="pE7JUmBPL3v0cMtBO8co-49" value="" style="group" parent="1" vertex="1" connectable="0">
          <mxGeometry x="1040" y="-110" width="1710" height="868.5" as="geometry" />
        </mxCell>
        <mxCell id="pE7JUmBPL3v0cMtBO8co-50" value="" style="group" parent="pE7JUmBPL3v0cMtBO8co-49" vertex="1" connectable="0">
          <mxGeometry width="1709.9999999999998" height="868.5" as="geometry" />
        </mxCell>
        <mxCell id="pE7JUmBPL3v0cMtBO8co-51" value="Processing API Server" style="rounded=0;whiteSpace=wrap;html=1;movable=1;resizable=1;rotatable=1;deletable=1;editable=1;locked=0;connectable=1;verticalAlign=top;" parent="pE7JUmBPL3v0cMtBO8co-50" vertex="1">
          <mxGeometry x="7.876206088727292" y="210.3137039075399" width="1263.5684910915354" height="494.23720418271876" as="geometry" />
        </mxCell>
        <mxCell id="pE7JUmBPL3v0cMtBO8co-52" value="6. Gen token and authorization info for user" style="text;html=1;strokeColor=none;fillColor=none;align=center;verticalAlign=middle;whiteSpace=wrap;rounded=0;fontStyle=1" parent="pE7JUmBPL3v0cMtBO8co-50" vertex="1">
          <mxGeometry x="707.1145309229522" y="401.50798018712163" width="264.415490121559" height="28.679141441937258" as="geometry" />
        </mxCell>
        <mxCell id="pE7JUmBPL3v0cMtBO8co-53" style="edgeStyle=orthogonalEdgeStyle;rounded=0;orthogonalLoop=1;jettySize=auto;html=1;fillColor=#fff2cc;strokeColor=#d6b656;strokeWidth=3;" parent="pE7JUmBPL3v0cMtBO8co-50" source="pE7JUmBPL3v0cMtBO8co-54" edge="1">
          <mxGeometry relative="1" as="geometry">
            <mxPoint x="783.648750659414" y="362.7911392405063" as="targetPoint" />
          </mxGeometry>
        </mxCell>
        <mxCell id="pE7JUmBPL3v0cMtBO8co-54" value="Authetication module" style="rounded=0;whiteSpace=wrap;html=1;" parent="pE7JUmBPL3v0cMtBO8co-50" vertex="1">
          <mxGeometry x="813.6908510264163" y="259.0682443588332" width="135.02067580675356" height="57.358282883874516" as="geometry" />
        </mxCell>
        <mxCell id="pE7JUmBPL3v0cMtBO8co-55" value="User Database" style="rounded=0;whiteSpace=wrap;html=1;" parent="pE7JUmBPL3v0cMtBO8co-50" vertex="1">
          <mxGeometry x="1093.0711327165575" y="259.0682443588332" width="135.02067580675356" height="57.358282883874516" as="geometry" />
        </mxCell>
        <mxCell id="pE7JUmBPL3v0cMtBO8co-56" style="edgeStyle=orthogonalEdgeStyle;rounded=0;orthogonalLoop=1;jettySize=auto;html=1;fillColor=#fff2cc;strokeColor=#d6b656;strokeWidth=3;" parent="pE7JUmBPL3v0cMtBO8co-50" source="pE7JUmBPL3v0cMtBO8co-57" edge="1">
          <mxGeometry relative="1" as="geometry">
            <mxPoint x="540.0827032270142" y="362.7911392405063" as="targetPoint" />
          </mxGeometry>
        </mxCell>
        <mxCell id="pE7JUmBPL3v0cMtBO8co-57" value="Authorization module" style="rounded=0;whiteSpace=wrap;html=1;" parent="pE7JUmBPL3v0cMtBO8co-50" vertex="1">
          <mxGeometry x="813.6908510264163" y="333.6340121078701" width="135.02067580675356" height="57.358282883874516" as="geometry" />
        </mxCell>
        <mxCell id="pE7JUmBPL3v0cMtBO8co-58" value="3. Handle user info" style="text;html=1;strokeColor=none;fillColor=none;align=center;verticalAlign=middle;whiteSpace=wrap;rounded=0;fontStyle=1" parent="pE7JUmBPL3v0cMtBO8co-50" vertex="1">
          <mxGeometry x="792.0650394513679" y="230.38910291689598" width="151.89826028259773" height="28.679141441937258" as="geometry" />
        </mxCell>
        <mxCell id="pE7JUmBPL3v0cMtBO8co-59" value="" style="shape=flexArrow;endArrow=classic;html=1;rounded=0;startArrow=block;" parent="pE7JUmBPL3v0cMtBO8co-50" edge="1">
          <mxGeometry width="50" height="50" relative="1" as="geometry">
            <mxPoint x="1058.415825926157" y="367.57099614749586" as="sourcePoint" />
            <mxPoint x="957.1503190710921" y="367.0930104567969" as="targetPoint" />
          </mxGeometry>
        </mxCell>
        <mxCell id="pE7JUmBPL3v0cMtBO8co-60" value="6. Store in database" style="text;html=1;strokeColor=none;fillColor=none;align=center;verticalAlign=middle;whiteSpace=wrap;rounded=0;fontStyle=1" parent="pE7JUmBPL3v0cMtBO8co-50" vertex="1">
          <mxGeometry x="1074.5395449620805" y="390.99229499174464" width="151.89826028259773" height="28.679141441937258" as="geometry" />
        </mxCell>
        <mxCell id="pE7JUmBPL3v0cMtBO8co-61" value="5. Response user info" style="text;html=1;strokeColor=none;fillColor=none;align=center;verticalAlign=middle;whiteSpace=wrap;rounded=0;" parent="pE7JUmBPL3v0cMtBO8co-50" vertex="1">
          <mxGeometry x="954.0560952505205" y="304.95487066593284" width="118.14309133090934" height="28.679141441937258" as="geometry" />
        </mxCell>
        <mxCell id="pE7JUmBPL3v0cMtBO8co-62" value="7. response toke authorization info&amp;nbsp;&amp;nbsp;" style="text;html=1;strokeColor=none;fillColor=none;align=center;verticalAlign=middle;whiteSpace=wrap;rounded=0;fontStyle=1" parent="pE7JUmBPL3v0cMtBO8co-50" vertex="1">
          <mxGeometry x="4.894499497994842" y="381.9105668684645" width="341.2647581015696" height="28.679141441937258" as="geometry" />
        </mxCell>
        <mxCell id="pE7JUmBPL3v0cMtBO8co-63" value="" style="shape=flexArrow;endArrow=classic;html=1;rounded=0;startArrow=block;" parent="pE7JUmBPL3v0cMtBO8co-50" edge="1">
          <mxGeometry width="50" height="50" relative="1" as="geometry">
            <mxPoint x="27.004135161350703" y="300.65299944964227" as="sourcePoint" />
            <mxPoint x="195.77997991979265" y="300.65299944964227" as="targetPoint" />
          </mxGeometry>
        </mxCell>
        <mxCell id="pE7JUmBPL3v0cMtBO8co-64" style="edgeStyle=orthogonalEdgeStyle;rounded=0;orthogonalLoop=1;jettySize=auto;html=1;fillColor=#fff2cc;strokeColor=#d6b656;strokeWidth=3;" parent="pE7JUmBPL3v0cMtBO8co-50" source="pE7JUmBPL3v0cMtBO8co-65" edge="1">
          <mxGeometry relative="1" as="geometry">
            <mxPoint x="540.0827032270142" y="430.1871216290589" as="targetPoint" />
          </mxGeometry>
        </mxCell>
        <mxCell id="pE7JUmBPL3v0cMtBO8co-65" value="Session managerment module" style="rounded=0;whiteSpace=wrap;html=1;" parent="pE7JUmBPL3v0cMtBO8co-50" vertex="1">
          <mxGeometry x="787.6206088727289" y="439.746835443038" width="135.02067580675356" height="57.358282883874516" as="geometry" />
        </mxCell>
        <mxCell id="pE7JUmBPL3v0cMtBO8co-66" value="Session managerment database" style="rounded=0;whiteSpace=wrap;html=1;" parent="pE7JUmBPL3v0cMtBO8co-50" vertex="1">
          <mxGeometry x="1035.158514518444" y="428.753164556962" width="135.02067580675356" height="57.358282883874516" as="geometry" />
        </mxCell>
        <mxCell id="pE7JUmBPL3v0cMtBO8co-67" value="" style="shape=flexArrow;endArrow=classic;html=1;rounded=0;startArrow=block;" parent="pE7JUmBPL3v0cMtBO8co-50" edge="1">
          <mxGeometry width="50" height="50" relative="1" as="geometry">
            <mxPoint x="958.0504569098036" y="287.7473858007705" as="sourcePoint" />
            <mxPoint x="1064.941825256817" y="286.3134287286736" as="targetPoint" />
          </mxGeometry>
        </mxCell>
        <mxCell id="pE7JUmBPL3v0cMtBO8co-68" value="" style="shape=flexArrow;endArrow=classic;html=1;rounded=0;startArrow=block;" parent="pE7JUmBPL3v0cMtBO8co-50" edge="1">
          <mxGeometry width="50" height="50" relative="1" as="geometry">
            <mxPoint x="930.5174907682099" y="457.73821684094634" as="sourcePoint" />
            <mxPoint x="1027.2823084297163" y="458.21620253164525" as="targetPoint" />
          </mxGeometry>
        </mxCell>
        <mxCell id="pE7JUmBPL3v0cMtBO8co-69" value="Authorization database" style="rounded=0;whiteSpace=wrap;html=1;" parent="pE7JUmBPL3v0cMtBO8co-50" vertex="1">
          <mxGeometry x="1093.0711327165575" y="324.55228398458996" width="135.02067580675356" height="57.358282883874516" as="geometry" />
        </mxCell>
        <mxCell id="pE7JUmBPL3v0cMtBO8co-70" style="edgeStyle=orthogonalEdgeStyle;rounded=0;orthogonalLoop=1;jettySize=auto;html=1;fillColor=#fff2cc;strokeColor=#d6b656;strokeWidth=3;" parent="pE7JUmBPL3v0cMtBO8co-50" source="pE7JUmBPL3v0cMtBO8co-71" edge="1">
          <mxGeometry relative="1" as="geometry">
            <mxPoint x="270.0413516135071" y="602.2619702806825" as="targetPoint" />
          </mxGeometry>
        </mxCell>
        <mxCell id="pE7JUmBPL3v0cMtBO8co-71" value="Parameter Validation modules" style="rounded=0;whiteSpace=wrap;html=1;" parent="pE7JUmBPL3v0cMtBO8co-50" vertex="1">
          <mxGeometry x="202.53101371013034" y="286.7914144193726" width="135.02067580675356" height="76.47771051183268" as="geometry" />
        </mxCell>
        <mxCell id="pE7JUmBPL3v0cMtBO8co-72" style="edgeStyle=orthogonalEdgeStyle;rounded=0;orthogonalLoop=1;jettySize=auto;html=1;fillColor=#fff2cc;strokeColor=#d6b656;strokeWidth=3;" parent="pE7JUmBPL3v0cMtBO8co-50" source="pE7JUmBPL3v0cMtBO8co-73" edge="1">
          <mxGeometry relative="1" as="geometry">
            <mxPoint x="270.0413516135071" y="430.1871216290589" as="targetPoint" />
            <Array as="points">
              <mxPoint x="540.0827032270142" y="430.1871216290589" />
            </Array>
          </mxGeometry>
        </mxCell>
        <mxCell id="pE7JUmBPL3v0cMtBO8co-73" value="Allow/Deny list modules" style="rounded=0;whiteSpace=wrap;html=1;" parent="pE7JUmBPL3v0cMtBO8co-50" vertex="1">
          <mxGeometry x="435.10412778726334" y="274.36378646119977" width="135.02067580675356" height="72.65382498624105" as="geometry" />
        </mxCell>
        <mxCell id="pE7JUmBPL3v0cMtBO8co-74" value="" style="shape=flexArrow;endArrow=classic;html=1;rounded=0;startArrow=block;" parent="pE7JUmBPL3v0cMtBO8co-50" edge="1">
          <mxGeometry width="50" height="50" relative="1" as="geometry">
            <mxPoint x="342.05237871044227" y="300.65299944964227" as="sourcePoint" />
            <mxPoint x="427.56547338805296" y="301.13098514034124" as="targetPoint" />
          </mxGeometry>
        </mxCell>
        <mxCell id="pE7JUmBPL3v0cMtBO8co-75" value="" style="rounded=1;whiteSpace=wrap;html=1;fillColor=none;dashed=1;" parent="pE7JUmBPL3v0cMtBO8co-50" vertex="1">
          <mxGeometry x="1072.1991865814298" y="248.0745734727573" width="172.7702064177251" height="152.95542102366537" as="geometry" />
        </mxCell>
        <mxCell id="pE7JUmBPL3v0cMtBO8co-76" style="edgeStyle=orthogonalEdgeStyle;rounded=0;orthogonalLoop=1;jettySize=auto;html=1;fillColor=#fff2cc;strokeColor=#d6b656;strokeWidth=3;" parent="pE7JUmBPL3v0cMtBO8co-50" source="pE7JUmBPL3v0cMtBO8co-77" edge="1">
          <mxGeometry relative="1" as="geometry">
            <mxPoint x="540.0827032270142" y="477.98569069895433" as="targetPoint" />
            <Array as="points">
              <mxPoint x="649.2244161708066" y="544.9036873968079" />
            </Array>
          </mxGeometry>
        </mxCell>
        <mxCell id="pE7JUmBPL3v0cMtBO8co-77" value="Rate limit module" style="rounded=0;whiteSpace=wrap;html=1;" parent="pE7JUmBPL3v0cMtBO8co-50" vertex="1">
          <mxGeometry x="581.7140782674298" y="564.0231150247661" width="135.02067580675356" height="57.358282883874516" as="geometry" />
        </mxCell>
        <mxCell id="pE7JUmBPL3v0cMtBO8co-78" style="edgeStyle=orthogonalEdgeStyle;rounded=0;orthogonalLoop=1;jettySize=auto;html=1;fillColor=#fff2cc;strokeColor=#d6b656;strokeWidth=3;" parent="pE7JUmBPL3v0cMtBO8co-50" source="pE7JUmBPL3v0cMtBO8co-79" edge="1">
          <mxGeometry relative="1" as="geometry">
            <mxPoint x="867.5078420583917" y="544.9036873968079" as="targetPoint" />
            <Array as="points">
              <mxPoint x="867.5078420583917" y="554.463401210787" />
              <mxPoint x="867.5078420583917" y="554.463401210787" />
            </Array>
          </mxGeometry>
        </mxCell>
        <mxCell id="pE7JUmBPL3v0cMtBO8co-79" value="Dynamic Route" style="rounded=0;whiteSpace=wrap;html=1;" parent="pE7JUmBPL3v0cMtBO8co-50" vertex="1">
          <mxGeometry x="792.0650394513679" y="564.0231150247661" width="135.02067580675356" height="57.358282883874516" as="geometry" />
        </mxCell>
        <mxCell id="pE7JUmBPL3v0cMtBO8co-80" value="Protocol Conversion" style="rounded=0;whiteSpace=wrap;html=1;" parent="pE7JUmBPL3v0cMtBO8co-50" vertex="1">
          <mxGeometry x="1001.4033455667555" y="678.7396807925151" width="135.02067580675356" height="57.358282883874516" as="geometry" />
        </mxCell>
        <mxCell id="pE7JUmBPL3v0cMtBO8co-81" style="edgeStyle=orthogonalEdgeStyle;rounded=0;orthogonalLoop=1;jettySize=auto;html=1;fillColor=#fff2cc;strokeColor=#d6b656;strokeWidth=3;" parent="pE7JUmBPL3v0cMtBO8co-50" source="pE7JUmBPL3v0cMtBO8co-82" edge="1">
          <mxGeometry relative="1" as="geometry">
            <mxPoint x="652.5999330659756" y="544.9036873968079" as="targetPoint" />
            <Array as="points">
              <mxPoint x="1068.9136834701321" y="544.9036873968079" />
            </Array>
          </mxGeometry>
        </mxCell>
        <mxCell id="pE7JUmBPL3v0cMtBO8co-82" value="Services Discovery Module" style="rounded=0;whiteSpace=wrap;html=1;" parent="pE7JUmBPL3v0cMtBO8co-50" vertex="1">
          <mxGeometry x="1001.4033455667555" y="564.0231150247661" width="135.02067580675356" height="57.358282883874516" as="geometry" />
        </mxCell>
        <mxCell id="pE7JUmBPL3v0cMtBO8co-83" value="2. Checking IP" style="text;html=1;strokeColor=none;fillColor=none;align=center;verticalAlign=middle;whiteSpace=wrap;rounded=0;fontStyle=1" parent="pE7JUmBPL3v0cMtBO8co-50" vertex="1">
          <mxGeometry x="426.6653355493411" y="238.99284534947716" width="151.89826028259773" height="28.679141441937258" as="geometry" />
        </mxCell>
        <mxCell id="pE7JUmBPL3v0cMtBO8co-84" value="1. Checking Parameter" style="text;html=1;strokeColor=none;fillColor=none;align=center;verticalAlign=middle;whiteSpace=wrap;rounded=0;fontStyle=1" parent="pE7JUmBPL3v0cMtBO8co-50" vertex="1">
          <mxGeometry x="43.8817196371949" y="324.55228398458996" width="151.89826028259773" height="28.679141441937258" as="geometry" />
        </mxCell>
        <mxCell id="pE7JUmBPL3v0cMtBO8co-85" value="4. Request User Info" style="text;html=1;strokeColor=none;fillColor=none;align=center;verticalAlign=middle;whiteSpace=wrap;rounded=0;fontStyle=1" parent="pE7JUmBPL3v0cMtBO8co-50" vertex="1">
          <mxGeometry x="993.9209497824646" y="224.6532746285085" width="183.74063632702382" height="28.679141441937258" as="geometry" />
        </mxCell>
        <mxCell id="pE7JUmBPL3v0cMtBO8co-86" value="" style="shape=flexArrow;endArrow=classic;html=1;rounded=0;" parent="pE7JUmBPL3v0cMtBO8co-50" edge="1">
          <mxGeometry width="50" height="50" relative="1" as="geometry">
            <mxPoint x="731.3619939532484" y="583.1425426527243" as="sourcePoint" />
            <mxPoint x="787.6206088727291" y="583.1425426527243" as="targetPoint" />
          </mxGeometry>
        </mxCell>
        <mxCell id="pE7JUmBPL3v0cMtBO8co-87" value="" style="shape=flexArrow;endArrow=classic;html=1;rounded=0;" parent="pE7JUmBPL3v0cMtBO8co-50" edge="1">
          <mxGeometry width="50" height="50" relative="1" as="geometry">
            <mxPoint x="940.0814553045216" y="583.1425426527243" as="sourcePoint" />
            <mxPoint x="996.3400702240021" y="583.1425426527243" as="targetPoint" />
          </mxGeometry>
        </mxCell>
        <mxCell id="pE7JUmBPL3v0cMtBO8co-88" value="" style="shape=flexArrow;endArrow=classic;html=1;rounded=0;" parent="pE7JUmBPL3v0cMtBO8co-50" edge="1">
          <mxGeometry width="50" height="50" relative="1" as="geometry">
            <mxPoint x="1068.9136834701321" y="630.9411117226197" as="sourcePoint" />
            <mxPoint x="1068.9136834701321" y="669.1799669785361" as="targetPoint" />
          </mxGeometry>
        </mxCell>
        <mxCell id="pE7JUmBPL3v0cMtBO8co-89" value="Circuit Break" style="rounded=0;whiteSpace=wrap;html=1;" parent="pE7JUmBPL3v0cMtBO8co-50" vertex="1">
          <mxGeometry x="50.632753427532585" y="535.3439735828288" width="135.02067580675356" height="57.358282883874516" as="geometry" />
        </mxCell>
        <mxCell id="pE7JUmBPL3v0cMtBO8co-90" value="SIEM / IDR-XDR System" style="rounded=0;whiteSpace=wrap;html=1;dashed=1;dashPattern=8 8;fillColor=#fff2cc;strokeColor=#d6b656;" parent="pE7JUmBPL3v0cMtBO8co-50" vertex="1">
          <mxGeometry x="210.96980594805243" y="630.9411117226197" width="135.02067580675356" height="57.358282883874516" as="geometry" />
        </mxCell>
        <mxCell id="pE7JUmBPL3v0cMtBO8co-91" value="Cache" style="rounded=0;whiteSpace=wrap;html=1;" parent="pE7JUmBPL3v0cMtBO8co-50" vertex="1">
          <mxGeometry x="375.7512890472113" y="630.9411117226197" width="135.02067580675356" height="57.358282883874516" as="geometry" />
        </mxCell>
        <mxCell id="pE7JUmBPL3v0cMtBO8co-92" value="Logging and monitoring" style="rounded=0;whiteSpace=wrap;html=1;fillColor=#fff2cc;strokeColor=#d6b656;" parent="pE7JUmBPL3v0cMtBO8co-50" vertex="1">
          <mxGeometry x="50.632753427532585" y="630.9411117226197" width="135.02067580675356" height="57.358282883874516" as="geometry" />
        </mxCell>
        <mxCell id="pE7JUmBPL3v0cMtBO8co-93" value="Error handling" style="rounded=0;whiteSpace=wrap;html=1;" parent="pE7JUmBPL3v0cMtBO8co-50" vertex="1">
          <mxGeometry x="375.7512890472113" y="564.0231150247661" width="135.02067580675356" height="57.358282883874516" as="geometry" />
        </mxCell>
        <mxCell id="pE7JUmBPL3v0cMtBO8co-94" style="edgeStyle=orthogonalEdgeStyle;rounded=0;orthogonalLoop=1;jettySize=auto;html=1;" parent="pE7JUmBPL3v0cMtBO8co-50" source="pE7JUmBPL3v0cMtBO8co-95" target="pE7JUmBPL3v0cMtBO8co-77" edge="1">
          <mxGeometry relative="1" as="geometry" />
        </mxCell>
        <mxCell id="pE7JUmBPL3v0cMtBO8co-95" value="&lt;span style=&quot;color: rgba(0, 0, 0, 0.9); font-family: -apple-system, system-ui, BlinkMacSystemFont, &amp;quot;Segoe UI&amp;quot;, Roboto, &amp;quot;Helvetica Neue&amp;quot;, &amp;quot;Fira Sans&amp;quot;, Ubuntu, Oxygen, &amp;quot;Oxygen Sans&amp;quot;, Cantarell, &amp;quot;Droid Sans&amp;quot;, &amp;quot;Apple Color Emoji&amp;quot;, &amp;quot;Segoe UI Emoji&amp;quot;, &amp;quot;Segoe UI Emoji&amp;quot;, &amp;quot;Segoe UI Symbol&amp;quot;, &amp;quot;Lucida Grande&amp;quot;, Helvetica, Arial, sans-serif; font-size: 14px; font-style: normal; font-variant-ligatures: normal; font-variant-caps: normal; font-weight: 400; letter-spacing: normal; orphans: 2; text-align: start; text-indent: 0px; text-transform: none; widows: 2; word-spacing: 0px; -webkit-text-stroke-width: 0px; background-color: rgb(255, 255, 255); text-decoration-thickness: initial; text-decoration-style: initial; text-decoration-color: initial; float: none; display: inline !important;&quot;&gt;applies predefined rules to limit the number of requests a client can make within a certain time frame to prevent abuse and manage load.&lt;/span&gt;" style="text;html=1;strokeColor=none;fillColor=default;align=center;verticalAlign=middle;whiteSpace=wrap;rounded=0;" parent="pE7JUmBPL3v0cMtBO8co-50" vertex="1">
          <mxGeometry x="526.0180494971441" y="678.7396807925151" width="254.34519805097202" height="28.679141441937258" as="geometry" />
        </mxCell>
        <mxCell id="pE7JUmBPL3v0cMtBO8co-96" value="" style="edgeStyle=orthogonalEdgeStyle;rounded=0;orthogonalLoop=1;jettySize=auto;html=1;" parent="pE7JUmBPL3v0cMtBO8co-50" source="pE7JUmBPL3v0cMtBO8co-97" target="pE7JUmBPL3v0cMtBO8co-79" edge="1">
          <mxGeometry relative="1" as="geometry" />
        </mxCell>
        <mxCell id="pE7JUmBPL3v0cMtBO8co-97" value="&#xa;&lt;span style=&quot;color: rgba(0, 0, 0, 0.9); font-family: -apple-system, system-ui, BlinkMacSystemFont, &amp;quot;Segoe UI&amp;quot;, Roboto, &amp;quot;Helvetica Neue&amp;quot;, &amp;quot;Fira Sans&amp;quot;, Ubuntu, Oxygen, &amp;quot;Oxygen Sans&amp;quot;, Cantarell, &amp;quot;Droid Sans&amp;quot;, &amp;quot;Apple Color Emoji&amp;quot;, &amp;quot;Segoe UI Emoji&amp;quot;, &amp;quot;Segoe UI Emoji&amp;quot;, &amp;quot;Segoe UI Symbol&amp;quot;, &amp;quot;Lucida Grande&amp;quot;, Helvetica, Arial, sans-serif; font-size: 14px; font-style: normal; font-variant-ligatures: normal; font-variant-caps: normal; font-weight: 400; letter-spacing: normal; orphans: 2; text-align: start; text-indent: 0px; text-transform: none; widows: 2; word-spacing: 0px; -webkit-text-stroke-width: 0px; background-color: rgb(255, 255, 255); text-decoration-thickness: initial; text-decoration-style: initial; text-decoration-color: initial; float: none; display: inline !important;&quot;&gt;directs the validated and authorized requests to the correct backend services.&lt;/span&gt;&lt;span style=&quot;box-sizing: inherit; margin: var(--artdeco-reset-base-margin-zero); padding: var(--artdeco-reset-base-padding-zero); border: var(--artdeco-reset-base-border-zero); font-size: 14px; vertical-align: var(--artdeco-reset-base-vertical-align-baseline); background-color: rgb(255, 255, 255); outline: var(--artdeco-reset-base-outline-zero); color: rgba(0, 0, 0, 0.9); font-family: -apple-system, system-ui, BlinkMacSystemFont, &amp;quot;Segoe UI&amp;quot;, Roboto, &amp;quot;Helvetica Neue&amp;quot;, &amp;quot;Fira Sans&amp;quot;, Ubuntu, Oxygen, &amp;quot;Oxygen Sans&amp;quot;, Cantarell, &amp;quot;Droid Sans&amp;quot;, &amp;quot;Apple Color Emoji&amp;quot;, &amp;quot;Segoe UI Emoji&amp;quot;, &amp;quot;Segoe UI Emoji&amp;quot;, &amp;quot;Segoe UI Symbol&amp;quot;, &amp;quot;Lucida Grande&amp;quot;, Helvetica, Arial, sans-serif; font-style: normal; font-variant-ligatures: normal; font-variant-caps: normal; font-weight: 400; letter-spacing: normal; orphans: 2; text-align: start; text-indent: 0px; text-transform: none; widows: 2; word-spacing: 0px; -webkit-text-stroke-width: 0px; text-decoration-thickness: initial; text-decoration-style: initial; text-decoration-color: initial; line-height: inherit !important;&quot; class=&quot;white-space-pre&quot;&gt; &lt;/span&gt;&#xa;&#xa;" style="text;html=1;strokeColor=none;fillColor=default;align=center;verticalAlign=middle;whiteSpace=wrap;rounded=0;" parent="pE7JUmBPL3v0cMtBO8co-50" vertex="1">
          <mxGeometry x="792.0650394513679" y="693.0792515134838" width="164.33141417980295" height="28.679141441937258" as="geometry" />
        </mxCell>
        <mxCell id="pE7JUmBPL3v0cMtBO8co-98" style="edgeStyle=orthogonalEdgeStyle;rounded=0;orthogonalLoop=1;jettySize=auto;html=1;" parent="pE7JUmBPL3v0cMtBO8co-50" source="pE7JUmBPL3v0cMtBO8co-121" edge="1">
          <mxGeometry relative="1" as="geometry">
            <mxPoint x="1136.4240213735086" y="597.4821133736929" as="targetPoint" />
          </mxGeometry>
        </mxCell>
        <mxCell id="pE7JUmBPL3v0cMtBO8co-99" style="edgeStyle=orthogonalEdgeStyle;rounded=0;orthogonalLoop=1;jettySize=auto;html=1;" parent="pE7JUmBPL3v0cMtBO8co-50" source="pE7JUmBPL3v0cMtBO8co-100" target="pE7JUmBPL3v0cMtBO8co-89" edge="1">
          <mxGeometry relative="1" as="geometry" />
        </mxCell>
        <mxCell id="pE7JUmBPL3v0cMtBO8co-100" value="&#xa;&lt;span style=&quot;color: rgba(0, 0, 0, 0.9); font-family: -apple-system, system-ui, BlinkMacSystemFont, &amp;quot;Segoe UI&amp;quot;, Roboto, &amp;quot;Helvetica Neue&amp;quot;, &amp;quot;Fira Sans&amp;quot;, Ubuntu, Oxygen, &amp;quot;Oxygen Sans&amp;quot;, Cantarell, &amp;quot;Droid Sans&amp;quot;, &amp;quot;Apple Color Emoji&amp;quot;, &amp;quot;Segoe UI Emoji&amp;quot;, &amp;quot;Segoe UI Emoji&amp;quot;, &amp;quot;Segoe UI Symbol&amp;quot;, &amp;quot;Lucida Grande&amp;quot;, Helvetica, Arial, sans-serif; font-size: 14px; font-style: normal; font-variant-ligatures: normal; font-variant-caps: normal; font-weight: 400; letter-spacing: normal; orphans: 2; text-align: start; text-indent: 0px; text-transform: none; widows: 2; word-spacing: 0px; -webkit-text-stroke-width: 0px; background-color: rgb(255, 255, 255); text-decoration-thickness: initial; text-decoration-style: initial; text-decoration-color: initial; float: none; display: inline !important;&quot;&gt;implements patterns to detect failures and prevent overloading the system, avoiding cascading failure&lt;/span&gt;&#xa;&#xa;" style="text;html=1;strokeColor=none;fillColor=default;align=center;verticalAlign=middle;whiteSpace=wrap;rounded=0;" parent="pE7JUmBPL3v0cMtBO8co-50" vertex="1">
          <mxGeometry x="14.00839511495073" y="458.8662630709961" width="208.1568752020784" height="28.679141441937258" as="geometry" />
        </mxCell>
        <mxCell id="pE7JUmBPL3v0cMtBO8co-101" style="edgeStyle=orthogonalEdgeStyle;rounded=0;orthogonalLoop=1;jettySize=auto;html=1;" parent="pE7JUmBPL3v0cMtBO8co-50" source="pE7JUmBPL3v0cMtBO8co-102" edge="1">
          <mxGeometry relative="1" as="geometry">
            <mxPoint x="455.1321946985984" y="688.2993946064942" as="targetPoint" />
          </mxGeometry>
        </mxCell>
        <mxCell id="pE7JUmBPL3v0cMtBO8co-102" value="&#xa;&lt;span style=&quot;color: rgba(0, 0, 0, 0.9); font-family: -apple-system, system-ui, BlinkMacSystemFont, &amp;quot;Segoe UI&amp;quot;, Roboto, &amp;quot;Helvetica Neue&amp;quot;, &amp;quot;Fira Sans&amp;quot;, Ubuntu, Oxygen, &amp;quot;Oxygen Sans&amp;quot;, Cantarell, &amp;quot;Droid Sans&amp;quot;, &amp;quot;Apple Color Emoji&amp;quot;, &amp;quot;Segoe UI Emoji&amp;quot;, &amp;quot;Segoe UI Emoji&amp;quot;, &amp;quot;Segoe UI Symbol&amp;quot;, &amp;quot;Lucida Grande&amp;quot;, Helvetica, Arial, sans-serif; font-size: 14px; font-style: normal; font-variant-ligatures: normal; font-variant-caps: normal; font-weight: 400; letter-spacing: normal; orphans: 2; text-align: start; text-indent: 0px; text-transform: none; widows: 2; word-spacing: 0px; -webkit-text-stroke-width: 0px; background-color: rgb(255, 255, 255); text-decoration-thickness: initial; text-decoration-style: initial; text-decoration-color: initial; float: none; display: inline !important;&quot;&gt;stores responses to common requests, reducing the number of calls to the backend services.&lt;/span&gt;&#xa;&#xa;" style="text;html=1;strokeColor=none;fillColor=none;align=center;verticalAlign=middle;whiteSpace=wrap;rounded=0;" parent="pE7JUmBPL3v0cMtBO8co-50" vertex="1">
          <mxGeometry x="333.6135864725202" y="755.2173913043478" width="243.03721645215643" height="28.679141441937258" as="geometry" />
        </mxCell>
        <mxCell id="pE7JUmBPL3v0cMtBO8co-103" value="" style="edgeStyle=orthogonalEdgeStyle;rounded=0;orthogonalLoop=1;jettySize=auto;html=1;" parent="pE7JUmBPL3v0cMtBO8co-50" source="pE7JUmBPL3v0cMtBO8co-104" target="pE7JUmBPL3v0cMtBO8co-93" edge="1">
          <mxGeometry relative="1" as="geometry" />
        </mxCell>
        <mxCell id="pE7JUmBPL3v0cMtBO8co-104" value="&#xa;&lt;span style=&quot;color: rgba(0, 0, 0, 0.9); font-family: -apple-system, system-ui, BlinkMacSystemFont, &amp;quot;Segoe UI&amp;quot;, Roboto, &amp;quot;Helvetica Neue&amp;quot;, &amp;quot;Fira Sans&amp;quot;, Ubuntu, Oxygen, &amp;quot;Oxygen Sans&amp;quot;, Cantarell, &amp;quot;Droid Sans&amp;quot;, &amp;quot;Apple Color Emoji&amp;quot;, &amp;quot;Segoe UI Emoji&amp;quot;, &amp;quot;Segoe UI Emoji&amp;quot;, &amp;quot;Segoe UI Symbol&amp;quot;, &amp;quot;Lucida Grande&amp;quot;, Helvetica, Arial, sans-serif; font-size: 14px; font-style: normal; font-variant-ligatures: normal; font-variant-caps: normal; font-weight: 400; letter-spacing: normal; orphans: 2; text-align: start; text-indent: 0px; text-transform: none; widows: 2; word-spacing: 0px; -webkit-text-stroke-width: 0px; background-color: rgb(255, 255, 255); text-decoration-thickness: initial; text-decoration-style: initial; text-decoration-color: initial; float: none; display: inline !important;&quot;&gt;handles any errors that may arise during the processing of requests&lt;/span&gt;&#xa;&#xa;" style="text;html=1;strokeColor=none;fillColor=default;align=center;verticalAlign=middle;whiteSpace=wrap;rounded=0;" parent="pE7JUmBPL3v0cMtBO8co-50" vertex="1">
          <mxGeometry x="355.55444629111776" y="506.6648321408916" width="176.7083094620887" height="32.50302696752889" as="geometry" />
        </mxCell>
        <mxCell id="pE7JUmBPL3v0cMtBO8co-105" value="" style="edgeStyle=orthogonalEdgeStyle;rounded=0;orthogonalLoop=1;jettySize=auto;html=1;" parent="pE7JUmBPL3v0cMtBO8co-50" source="pE7JUmBPL3v0cMtBO8co-106" target="pE7JUmBPL3v0cMtBO8co-71" edge="1">
          <mxGeometry relative="1" as="geometry" />
        </mxCell>
        <mxCell id="pE7JUmBPL3v0cMtBO8co-106" value="&#xa;&lt;span style=&quot;color: rgba(0, 0, 0, 0.9); font-family: -apple-system, system-ui, BlinkMacSystemFont, &amp;quot;Segoe UI&amp;quot;, Roboto, &amp;quot;Helvetica Neue&amp;quot;, &amp;quot;Fira Sans&amp;quot;, Ubuntu, Oxygen, &amp;quot;Oxygen Sans&amp;quot;, Cantarell, &amp;quot;Droid Sans&amp;quot;, &amp;quot;Apple Color Emoji&amp;quot;, &amp;quot;Segoe UI Emoji&amp;quot;, &amp;quot;Segoe UI Emoji&amp;quot;, &amp;quot;Segoe UI Symbol&amp;quot;, &amp;quot;Lucida Grande&amp;quot;, Helvetica, Arial, sans-serif; font-size: 14px; font-style: normal; font-variant-ligatures: normal; font-variant-caps: normal; font-weight: 400; letter-spacing: normal; orphans: 2; text-align: start; text-indent: 0px; text-transform: none; widows: 2; word-spacing: 0px; -webkit-text-stroke-width: 0px; background-color: rgb(255, 255, 255); text-decoration-thickness: initial; text-decoration-style: initial; text-decoration-color: initial; float: none; display: inline !important;&quot;&gt;checks that the incoming requests are well-formed and have correct format and necessary parameters&lt;/span&gt;&#xa;&#xa;" style="text;html=1;strokeColor=none;fillColor=default;align=center;verticalAlign=middle;whiteSpace=wrap;rounded=0;" parent="pE7JUmBPL3v0cMtBO8co-50" vertex="1">
          <mxGeometry x="138.39619270192242" y="230.38910291689598" width="263.29031782316935" height="28.679141441937258" as="geometry" />
        </mxCell>
        <mxCell id="pE7JUmBPL3v0cMtBO8co-107" value="" style="endArrow=none;html=1;rounded=0;fillColor=#fff2cc;strokeColor=#d6b656;strokeWidth=4;" parent="pE7JUmBPL3v0cMtBO8co-50" edge="1">
          <mxGeometry width="50" height="50" relative="1" as="geometry">
            <mxPoint x="292.54479758129935" y="602.2619702806825" as="sourcePoint" />
            <mxPoint x="101.26550685506517" y="602.2619702806825" as="targetPoint" />
          </mxGeometry>
        </mxCell>
        <mxCell id="pE7JUmBPL3v0cMtBO8co-108" value="" style="endArrow=none;html=1;rounded=0;entryX=0.434;entryY=0.014;entryDx=0;entryDy=0;entryPerimeter=0;fillColor=#fff2cc;strokeColor=#d6b656;strokeWidth=4;" parent="pE7JUmBPL3v0cMtBO8co-50" target="pE7JUmBPL3v0cMtBO8co-90" edge="1">
          <mxGeometry width="50" height="50" relative="1" as="geometry">
            <mxPoint x="270.0413516135071" y="602.2619702806825" as="sourcePoint" />
            <mxPoint x="348.80341250078" y="573.5828288387452" as="targetPoint" />
          </mxGeometry>
        </mxCell>
        <mxCell id="pE7JUmBPL3v0cMtBO8co-109" value="" style="endArrow=none;html=1;rounded=0;entryX=0.434;entryY=0.014;entryDx=0;entryDy=0;entryPerimeter=0;fillColor=#fff2cc;strokeColor=#d6b656;strokeWidth=4;" parent="pE7JUmBPL3v0cMtBO8co-50" edge="1">
          <mxGeometry width="50" height="50" relative="1" as="geometry">
            <mxPoint x="124.241525188181" y="601.4589543203081" as="sourcePoint" />
            <mxPoint x="124.241525188181" y="631.0940671436432" as="targetPoint" />
          </mxGeometry>
        </mxCell>
        <mxCell id="pE7JUmBPL3v0cMtBO8co-110" value="Load balacing" style="rounded=1;whiteSpace=wrap;html=1;" parent="pE7JUmBPL3v0cMtBO8co-50" vertex="1">
          <mxGeometry y="105.15685195376994" width="1260.1929741963659" height="57.358282883874516" as="geometry" />
        </mxCell>
        <mxCell id="pE7JUmBPL3v0cMtBO8co-111" value="" style="shape=flexArrow;endArrow=classic;html=1;rounded=0;startArrow=block;dashed=1;" parent="pE7JUmBPL3v0cMtBO8co-50" edge="1">
          <mxGeometry width="50" height="50" relative="1" as="geometry">
            <mxPoint x="600.7857487251337" y="286.7914144193726" as="sourcePoint" />
            <mxPoint x="776.3688858888329" y="286.7914144193726" as="targetPoint" />
          </mxGeometry>
        </mxCell>
        <mxCell id="pE7JUmBPL3v0cMtBO8co-112" value="" style="shape=flexArrow;endArrow=classic;html=1;rounded=0;startArrow=block;dashed=1;" parent="pE7JUmBPL3v0cMtBO8co-50" edge="1">
          <mxGeometry width="50" height="50" relative="1" as="geometry">
            <mxPoint x="596.3413181464948" y="344.1496973032471" as="sourcePoint" />
            <mxPoint x="708.858547985456" y="439.746835443038" as="targetPoint" />
          </mxGeometry>
        </mxCell>
        <mxCell id="pE7JUmBPL3v0cMtBO8co-113" value="" style="shape=flexArrow;endArrow=classic;startArrow=classic;html=1;rounded=0;entryX=0.509;entryY=1.013;entryDx=0;entryDy=0;entryPerimeter=0;" parent="pE7JUmBPL3v0cMtBO8co-50" target="pE7JUmBPL3v0cMtBO8co-110" edge="1">
          <mxGeometry width="100" height="100" relative="1" as="geometry">
            <mxPoint x="641.3482100820795" y="210.3137039075399" as="sourcePoint" />
            <mxPoint x="855.1309467761059" y="430.1871216290589" as="targetPoint" />
          </mxGeometry>
        </mxCell>
        <mxCell id="pE7JUmBPL3v0cMtBO8co-114" value="Client Endpoint" style="rounded=1;whiteSpace=wrap;html=1;" parent="pE7JUmBPL3v0cMtBO8co-50" vertex="1">
          <mxGeometry x="4.894499497994842" width="1260.1929741963659" height="57.358282883874516" as="geometry" />
        </mxCell>
        <mxCell id="pE7JUmBPL3v0cMtBO8co-115" value="" style="shape=flexArrow;endArrow=classic;startArrow=classic;html=1;rounded=0;entryX=0.509;entryY=1.013;entryDx=0;entryDy=0;entryPerimeter=0;" parent="pE7JUmBPL3v0cMtBO8co-50" edge="1">
          <mxGeometry width="100" height="100" relative="1" as="geometry">
            <mxPoint x="639.0978654853001" y="105.15685195376994" as="sourcePoint" />
            <mxPoint x="639.0978654853001" y="58.314254265272425" as="targetPoint" />
          </mxGeometry>
        </mxCell>
        <mxCell id="pE7JUmBPL3v0cMtBO8co-116" value="Application Endpoint" style="rounded=1;whiteSpace=wrap;html=1;" parent="pE7JUmBPL3v0cMtBO8co-50" vertex="1">
          <mxGeometry x="4.894499497994842" y="811.1417171161255" width="1260.1929741963659" height="57.358282883874516" as="geometry" />
        </mxCell>
        <mxCell id="pE7JUmBPL3v0cMtBO8co-117" value="" style="shape=flexArrow;endArrow=classic;startArrow=classic;html=1;rounded=0;entryX=0.5;entryY=1;entryDx=0;entryDy=0;" parent="pE7JUmBPL3v0cMtBO8co-50" target="pE7JUmBPL3v0cMtBO8co-80" edge="1">
          <mxGeometry width="100" height="100" relative="1" as="geometry">
            <mxPoint x="1068.9136834701321" y="812.5756741882224" as="sourcePoint" />
            <mxPoint x="1072.1991865814298" y="774.336818932306" as="targetPoint" />
          </mxGeometry>
        </mxCell>
        <mxCell id="pE7JUmBPL3v0cMtBO8co-118" value="8. Handle Request to Application" style="text;html=1;strokeColor=none;fillColor=none;align=center;verticalAlign=middle;whiteSpace=wrap;rounded=0;fontStyle=1" parent="pE7JUmBPL3v0cMtBO8co-50" vertex="1">
          <mxGeometry x="525.1179116584324" y="506.6648321408916" width="341.2647581015696" height="28.679141441937258" as="geometry" />
        </mxCell>
        <mxCell id="pE7JUmBPL3v0cMtBO8co-119" style="edgeStyle=orthogonalEdgeStyle;rounded=0;orthogonalLoop=1;jettySize=auto;html=1;exitX=0.5;exitY=1;exitDx=0;exitDy=0;" parent="pE7JUmBPL3v0cMtBO8co-49" source="pE7JUmBPL3v0cMtBO8co-122" target="pE7JUmBPL3v0cMtBO8co-122" edge="1">
          <mxGeometry relative="1" as="geometry" />
        </mxCell>
        <mxCell id="pE7JUmBPL3v0cMtBO8co-120" value="" style="edgeStyle=orthogonalEdgeStyle;rounded=0;orthogonalLoop=1;jettySize=auto;html=1;" parent="pE7JUmBPL3v0cMtBO8co-49" source="pE7JUmBPL3v0cMtBO8co-122" target="pE7JUmBPL3v0cMtBO8co-80" edge="1">
          <mxGeometry relative="1" as="geometry" />
        </mxCell>
        <mxCell id="pE7JUmBPL3v0cMtBO8co-121" value="&#xa;&lt;span style=&quot;color: rgba(0, 0, 0, 0.9); font-family: -apple-system, system-ui, BlinkMacSystemFont, &amp;quot;Segoe UI&amp;quot;, Roboto, &amp;quot;Helvetica Neue&amp;quot;, &amp;quot;Fira Sans&amp;quot;, Ubuntu, Oxygen, &amp;quot;Oxygen Sans&amp;quot;, Cantarell, &amp;quot;Droid Sans&amp;quot;, &amp;quot;Apple Color Emoji&amp;quot;, &amp;quot;Segoe UI Emoji&amp;quot;, &amp;quot;Segoe UI Emoji&amp;quot;, &amp;quot;Segoe UI Symbol&amp;quot;, &amp;quot;Lucida Grande&amp;quot;, Helvetica, Arial, sans-serif; font-size: 14px; font-style: normal; font-variant-ligatures: normal; font-variant-caps: normal; font-weight: 400; letter-spacing: normal; orphans: 2; text-align: start; text-indent: 0px; text-transform: none; widows: 2; word-spacing: 0px; -webkit-text-stroke-width: 0px; background-color: rgb(255, 255, 255); text-decoration-thickness: initial; text-decoration-style: initial; text-decoration-color: initial; float: none; display: inline !important;&quot;&gt;&lt;span&gt;&amp;nbsp;&lt;/span&gt;identifies the appropriate services required to fulfill the request based on the request path, parameters, or headers.&lt;/span&gt;&#xa;&#xa;" style="text;html=1;strokeColor=none;fillColor=default;align=center;verticalAlign=middle;whiteSpace=wrap;rounded=0;" parent="pE7JUmBPL3v0cMtBO8co-49" vertex="1">
          <mxGeometry x="1170.1791903251972" y="583.1425426527243" width="213.78273669402648" height="28.679141441937258" as="geometry" />
        </mxCell>
        <mxCell id="pE7JUmBPL3v0cMtBO8co-122" value="&#xa;&lt;span style=&quot;color: rgba(0, 0, 0, 0.9); font-family: -apple-system, system-ui, BlinkMacSystemFont, &amp;quot;Segoe UI&amp;quot;, Roboto, &amp;quot;Helvetica Neue&amp;quot;, &amp;quot;Fira Sans&amp;quot;, Ubuntu, Oxygen, &amp;quot;Oxygen Sans&amp;quot;, Cantarell, &amp;quot;Droid Sans&amp;quot;, &amp;quot;Apple Color Emoji&amp;quot;, &amp;quot;Segoe UI Emoji&amp;quot;, &amp;quot;Segoe UI Emoji&amp;quot;, &amp;quot;Segoe UI Symbol&amp;quot;, &amp;quot;Lucida Grande&amp;quot;, Helvetica, Arial, sans-serif; font-size: 14px; font-style: normal; font-variant-ligatures: normal; font-variant-caps: normal; font-weight: 400; letter-spacing: normal; orphans: 2; text-align: start; text-indent: 0px; text-transform: none; widows: 2; word-spacing: 0px; -webkit-text-stroke-width: 0px; background-color: rgb(255, 255, 255); text-decoration-thickness: initial; text-decoration-style: initial; text-decoration-color: initial; float: none; display: inline !important;&quot;&gt;converts the request from the web-friendly protocols like HTTP/HTTPS to the specific protocols used by the backend services, if necessary.&lt;/span&gt;&#xa;&#xa;" style="text;html=1;strokeColor=none;fillColor=default;align=center;verticalAlign=middle;whiteSpace=wrap;rounded=0;" parent="pE7JUmBPL3v0cMtBO8co-49" vertex="1">
          <mxGeometry x="1175.8050518171453" y="716.9785360484315" width="221.0963566335589" height="28.679141441937258" as="geometry" />
        </mxCell>
        <mxCell id="LSLcMXfksozJM03Gyprl-1" value="Cloud Provider API" style="rounded=1;whiteSpace=wrap;html=1;" parent="1" vertex="1">
          <mxGeometry x="-40" y="1070" width="280" height="220" as="geometry" />
        </mxCell>
        <mxCell id="LSLcMXfksozJM03Gyprl-2" value="KubeCTL" style="rounded=1;whiteSpace=wrap;html=1;" parent="1" vertex="1">
          <mxGeometry x="300" y="1070" width="280" height="220" as="geometry" />
        </mxCell>
        <mxCell id="LSLcMXfksozJM03Gyprl-3" value="" style="rounded=1;whiteSpace=wrap;html=1;" parent="1" vertex="1">
          <mxGeometry x="-100" y="1360" width="720" height="760" as="geometry" />
        </mxCell>
        <mxCell id="LSLcMXfksozJM03Gyprl-4" value="" style="rounded=1;whiteSpace=wrap;html=1;dashed=1;dashPattern=8 8;fillColor=#dae8fc;strokeColor=#6c8ebf;" parent="1" vertex="1">
          <mxGeometry x="-37" y="1910" width="587" height="200" as="geometry" />
        </mxCell>
        <mxCell id="LSLcMXfksozJM03Gyprl-5" value="" style="rounded=1;whiteSpace=wrap;html=1;dashed=1;dashPattern=8 8;fillColor=#f8cecc;strokeColor=#b85450;opacity=40;" parent="1" vertex="1">
          <mxGeometry x="-24.5" y="1390" width="567" height="630" as="geometry" />
        </mxCell>
        <mxCell id="LSLcMXfksozJM03Gyprl-6" value="Cloud - controller - manager" style="rounded=1;whiteSpace=wrap;html=1;" parent="1" vertex="1">
          <mxGeometry x="30" y="1460" width="215" height="60" as="geometry" />
        </mxCell>
        <mxCell id="LSLcMXfksozJM03Gyprl-7" value="Kube - controller - manager" style="rounded=1;whiteSpace=wrap;html=1;" parent="1" vertex="1">
          <mxGeometry x="30" y="1540" width="215" height="60" as="geometry" />
        </mxCell>
        <mxCell id="LSLcMXfksozJM03Gyprl-8" value="Kube - Scheduler" style="rounded=1;whiteSpace=wrap;html=1;" parent="1" vertex="1">
          <mxGeometry x="30" y="1620" width="215" height="60" as="geometry" />
        </mxCell>
        <mxCell id="LSLcMXfksozJM03Gyprl-9" value="Kube - proxy" style="rounded=1;whiteSpace=wrap;html=1;" parent="1" vertex="1">
          <mxGeometry x="30" y="1695" width="215" height="60" as="geometry" />
        </mxCell>
        <mxCell id="LSLcMXfksozJM03Gyprl-10" value="Additional Services" style="rounded=1;whiteSpace=wrap;html=1;" parent="1" vertex="1">
          <mxGeometry x="30" y="1780" width="215" height="60" as="geometry" />
        </mxCell>
        <mxCell id="LSLcMXfksozJM03Gyprl-11" value="etcd" style="rounded=1;whiteSpace=wrap;html=1;" parent="1" vertex="1">
          <mxGeometry x="9" y="1860" width="495" height="60" as="geometry" />
        </mxCell>
        <mxCell id="LSLcMXfksozJM03Gyprl-12" value="Container runtime" style="rounded=1;whiteSpace=wrap;html=1;" parent="1" vertex="1">
          <mxGeometry x="9" y="1930" width="495" height="60" as="geometry" />
        </mxCell>
        <mxCell id="LSLcMXfksozJM03Gyprl-72" style="edgeStyle=orthogonalEdgeStyle;rounded=0;orthogonalLoop=1;jettySize=auto;html=1;" parent="1" source="LSLcMXfksozJM03Gyprl-13" edge="1">
          <mxGeometry relative="1" as="geometry">
            <mxPoint x="256.5" y="1990" as="targetPoint" />
          </mxGeometry>
        </mxCell>
        <mxCell id="LSLcMXfksozJM03Gyprl-13" value="Kubelet" style="rounded=1;whiteSpace=wrap;html=1;" parent="1" vertex="1">
          <mxGeometry x="9" y="2020" width="495" height="60" as="geometry" />
        </mxCell>
        <mxCell id="LSLcMXfksozJM03Gyprl-70" style="edgeStyle=orthogonalEdgeStyle;rounded=0;orthogonalLoop=1;jettySize=auto;html=1;entryX=0.5;entryY=0;entryDx=0;entryDy=0;" parent="1" source="LSLcMXfksozJM03Gyprl-14" target="LSLcMXfksozJM03Gyprl-11" edge="1">
          <mxGeometry relative="1" as="geometry">
            <Array as="points">
              <mxPoint x="400" y="1840" />
              <mxPoint x="257" y="1840" />
            </Array>
          </mxGeometry>
        </mxCell>
        <mxCell id="LSLcMXfksozJM03Gyprl-14" value="Kube - API server" style="rounded=1;whiteSpace=wrap;html=1;" parent="1" vertex="1">
          <mxGeometry x="320" y="1470" width="180" height="350" as="geometry" />
        </mxCell>
        <mxCell id="LSLcMXfksozJM03Gyprl-15" value="&lt;font style=&quot;font-size: 23px;&quot;&gt;CTL Plan&lt;/font&gt;" style="text;html=1;align=center;verticalAlign=middle;whiteSpace=wrap;rounded=0;" parent="1" vertex="1">
          <mxGeometry x="180" y="1360" width="200" height="40" as="geometry" />
        </mxCell>
        <mxCell id="LSLcMXfksozJM03Gyprl-16" value="SYSTEM Services" style="text;html=1;align=center;verticalAlign=middle;whiteSpace=wrap;rounded=0;" parent="1" vertex="1">
          <mxGeometry x="158" y="2081" width="202" height="39" as="geometry" />
        </mxCell>
        <mxCell id="LSLcMXfksozJM03Gyprl-17" value="" style="group" parent="1" vertex="1" connectable="0">
          <mxGeometry x="790" y="1220" width="330" height="480" as="geometry" />
        </mxCell>
        <mxCell id="LSLcMXfksozJM03Gyprl-18" value="" style="rounded=1;whiteSpace=wrap;html=1;" parent="LSLcMXfksozJM03Gyprl-17" vertex="1">
          <mxGeometry width="330" height="479.99999999999994" as="geometry" />
        </mxCell>
        <mxCell id="LSLcMXfksozJM03Gyprl-19" value="Pod 1" style="rounded=1;whiteSpace=wrap;html=1;verticalAlign=top;" parent="LSLcMXfksozJM03Gyprl-17" vertex="1">
          <mxGeometry x="19.249999999999996" y="48" width="132" height="175.99999999999994" as="geometry" />
        </mxCell>
        <mxCell id="LSLcMXfksozJM03Gyprl-20" value="Pod 2" style="rounded=1;whiteSpace=wrap;html=1;verticalAlign=top;" parent="LSLcMXfksozJM03Gyprl-17" vertex="1">
          <mxGeometry x="184.24999999999997" y="48" width="132" height="175.99999999999994" as="geometry" />
        </mxCell>
        <mxCell id="LSLcMXfksozJM03Gyprl-97" value="" style="rounded=1;whiteSpace=wrap;html=1;dashed=1;dashPattern=8 8;fillColor=#dae8fc;strokeColor=#6c8ebf;" parent="LSLcMXfksozJM03Gyprl-17" vertex="1">
          <mxGeometry x="33.25" y="298" width="260" height="172" as="geometry" />
        </mxCell>
        <mxCell id="LSLcMXfksozJM03Gyprl-21" value="container runtime" style="rounded=1;whiteSpace=wrap;html=1;" parent="LSLcMXfksozJM03Gyprl-17" vertex="1">
          <mxGeometry x="16.499999999999996" y="319.99999999999994" width="297" height="48" as="geometry" />
        </mxCell>
        <mxCell id="LSLcMXfksozJM03Gyprl-23" value="kube-proxy" style="rounded=1;whiteSpace=wrap;html=1;" parent="LSLcMXfksozJM03Gyprl-17" vertex="1">
          <mxGeometry x="19.25" y="250" width="300" height="48" as="geometry" />
        </mxCell>
        <mxCell id="LSLcMXfksozJM03Gyprl-24" value="kubelet" style="rounded=1;whiteSpace=wrap;html=1;" parent="LSLcMXfksozJM03Gyprl-17" vertex="1">
          <mxGeometry x="16.5" y="400" width="293.5" height="48" as="geometry" />
        </mxCell>
        <mxCell id="LSLcMXfksozJM03Gyprl-25" value="container 1" style="rounded=1;whiteSpace=wrap;html=1;" parent="LSLcMXfksozJM03Gyprl-17" vertex="1">
          <mxGeometry x="27.62" y="90" width="115.25" height="28" as="geometry" />
        </mxCell>
        <mxCell id="LSLcMXfksozJM03Gyprl-26" value="container 2" style="rounded=1;whiteSpace=wrap;html=1;" parent="LSLcMXfksozJM03Gyprl-17" vertex="1">
          <mxGeometry x="27.5" y="140" width="115.25" height="28" as="geometry" />
        </mxCell>
        <mxCell id="LSLcMXfksozJM03Gyprl-27" value="container 1" style="rounded=1;whiteSpace=wrap;html=1;" parent="LSLcMXfksozJM03Gyprl-17" vertex="1">
          <mxGeometry x="189.88" y="90" width="115.25" height="28" as="geometry" />
        </mxCell>
        <mxCell id="LSLcMXfksozJM03Gyprl-29" value="" style="rounded=1;whiteSpace=wrap;html=1;fillColor=#FF9999;strokeColor=#000000;dashed=1;gradientColor=#b77676;gradientDirection=north;opacity=10;strokeWidth=8;" parent="LSLcMXfksozJM03Gyprl-17" vertex="1">
          <mxGeometry x="15.75" y="20" width="303.5" height="290" as="geometry" />
        </mxCell>
        <mxCell id="LSLcMXfksozJM03Gyprl-22" value="WORKER Node 1" style="rounded=1;whiteSpace=wrap;html=1;" parent="1" vertex="1">
          <mxGeometry x="806.5" y="1190" width="297" height="48" as="geometry" />
        </mxCell>
        <mxCell id="LSLcMXfksozJM03Gyprl-43" value="" style="group" parent="1" vertex="1" connectable="0">
          <mxGeometry x="794.25" y="1810" width="330" height="480" as="geometry" />
        </mxCell>
        <mxCell id="LSLcMXfksozJM03Gyprl-44" value="" style="rounded=1;whiteSpace=wrap;html=1;" parent="LSLcMXfksozJM03Gyprl-43" vertex="1">
          <mxGeometry width="330" height="479.99999999999994" as="geometry" />
        </mxCell>
        <mxCell id="LSLcMXfksozJM03Gyprl-45" value="Pod 1" style="rounded=1;whiteSpace=wrap;html=1;verticalAlign=top;" parent="LSLcMXfksozJM03Gyprl-43" vertex="1">
          <mxGeometry x="19.249999999999996" y="48" width="132" height="175.99999999999994" as="geometry" />
        </mxCell>
        <mxCell id="LSLcMXfksozJM03Gyprl-46" value="Pod 2" style="rounded=1;whiteSpace=wrap;html=1;verticalAlign=top;" parent="LSLcMXfksozJM03Gyprl-43" vertex="1">
          <mxGeometry x="184.24999999999997" y="48" width="132" height="175.99999999999994" as="geometry" />
        </mxCell>
        <mxCell id="LSLcMXfksozJM03Gyprl-98" value="" style="rounded=1;whiteSpace=wrap;html=1;dashed=1;dashPattern=8 8;fillColor=#dae8fc;strokeColor=#6c8ebf;" parent="LSLcMXfksozJM03Gyprl-43" vertex="1">
          <mxGeometry x="37.5" y="290" width="260" height="172" as="geometry" />
        </mxCell>
        <mxCell id="LSLcMXfksozJM03Gyprl-47" value="container runtime" style="rounded=1;whiteSpace=wrap;html=1;" parent="LSLcMXfksozJM03Gyprl-43" vertex="1">
          <mxGeometry x="16.499999999999996" y="319.99999999999994" width="297" height="48" as="geometry" />
        </mxCell>
        <mxCell id="LSLcMXfksozJM03Gyprl-48" value="kube-proxy" style="rounded=1;whiteSpace=wrap;html=1;" parent="LSLcMXfksozJM03Gyprl-43" vertex="1">
          <mxGeometry x="19.25" y="250" width="300" height="48" as="geometry" />
        </mxCell>
        <mxCell id="LSLcMXfksozJM03Gyprl-49" value="kubelet" style="rounded=1;whiteSpace=wrap;html=1;" parent="LSLcMXfksozJM03Gyprl-43" vertex="1">
          <mxGeometry x="16.5" y="400" width="293.5" height="48" as="geometry" />
        </mxCell>
        <mxCell id="LSLcMXfksozJM03Gyprl-50" value="container 1" style="rounded=1;whiteSpace=wrap;html=1;" parent="LSLcMXfksozJM03Gyprl-43" vertex="1">
          <mxGeometry x="27.62" y="90" width="115.25" height="28" as="geometry" />
        </mxCell>
        <mxCell id="LSLcMXfksozJM03Gyprl-51" value="container 2" style="rounded=1;whiteSpace=wrap;html=1;" parent="LSLcMXfksozJM03Gyprl-43" vertex="1">
          <mxGeometry x="27.5" y="140" width="115.25" height="28" as="geometry" />
        </mxCell>
        <mxCell id="LSLcMXfksozJM03Gyprl-52" value="container 1" style="rounded=1;whiteSpace=wrap;html=1;" parent="LSLcMXfksozJM03Gyprl-43" vertex="1">
          <mxGeometry x="189.88" y="90" width="115.25" height="28" as="geometry" />
        </mxCell>
        <mxCell id="LSLcMXfksozJM03Gyprl-53" value="" style="rounded=1;whiteSpace=wrap;html=1;fillColor=#FF9999;strokeColor=#000000;dashed=1;gradientColor=#b77676;gradientDirection=north;opacity=10;strokeWidth=8;" parent="LSLcMXfksozJM03Gyprl-43" vertex="1">
          <mxGeometry x="15.75" y="20" width="303.5" height="290" as="geometry" />
        </mxCell>
        <mxCell id="LSLcMXfksozJM03Gyprl-77" value="" style="endArrow=classic;html=1;rounded=0;" parent="LSLcMXfksozJM03Gyprl-43" edge="1">
          <mxGeometry width="50" height="50" relative="1" as="geometry">
            <mxPoint x="-84.25" y="273" as="sourcePoint" />
            <mxPoint x="16.499999999999545" y="273.0356565656566" as="targetPoint" />
          </mxGeometry>
        </mxCell>
        <mxCell id="LSLcMXfksozJM03Gyprl-54" value="WORKER Node 2" style="rounded=1;whiteSpace=wrap;html=1;" parent="1" vertex="1">
          <mxGeometry x="810.75" y="1780" width="297" height="48" as="geometry" />
        </mxCell>
        <mxCell id="LSLcMXfksozJM03Gyprl-55" value="" style="endArrow=none;dashed=1;html=1;dashPattern=1 3;strokeWidth=2;rounded=0;" parent="1" edge="1">
          <mxGeometry width="50" height="50" relative="1" as="geometry">
            <mxPoint x="1280" y="2260" as="sourcePoint" />
            <mxPoint x="1280" y="1090" as="targetPoint" />
          </mxGeometry>
        </mxCell>
        <mxCell id="LSLcMXfksozJM03Gyprl-56" value="CLOUD PROVIDER NETWORK EDGE" style="rounded=1;whiteSpace=wrap;html=1;" parent="1" vertex="1">
          <mxGeometry x="1030" y="1445" width="280" height="90" as="geometry" />
        </mxCell>
        <mxCell id="LSLcMXfksozJM03Gyprl-57" value="END USER" style="rounded=1;whiteSpace=wrap;html=1;" parent="1" vertex="1">
          <mxGeometry x="1450" y="1639" width="220" height="230" as="geometry" />
        </mxCell>
        <mxCell id="LSLcMXfksozJM03Gyprl-58" value="" style="endArrow=classic;startArrow=classic;html=1;rounded=0;entryX=0;entryY=0.5;entryDx=0;entryDy=0;" parent="1" target="LSLcMXfksozJM03Gyprl-57" edge="1">
          <mxGeometry width="50" height="50" relative="1" as="geometry">
            <mxPoint x="1310" y="1754" as="sourcePoint" />
            <mxPoint x="770" y="1550" as="targetPoint" />
          </mxGeometry>
        </mxCell>
        <mxCell id="LSLcMXfksozJM03Gyprl-59" value="" style="endArrow=classic;startArrow=classic;html=1;rounded=0;" parent="1" edge="1">
          <mxGeometry width="50" height="50" relative="1" as="geometry">
            <mxPoint x="1110" y="1490" as="sourcePoint" />
            <mxPoint x="1240" y="1740" as="targetPoint" />
            <Array as="points">
              <mxPoint x="1240" y="1490" />
            </Array>
          </mxGeometry>
        </mxCell>
        <mxCell id="LSLcMXfksozJM03Gyprl-60" value="" style="endArrow=classic;startArrow=classic;html=1;rounded=0;" parent="1" edge="1">
          <mxGeometry width="50" height="50" relative="1" as="geometry">
            <mxPoint x="1140" y="2081" as="sourcePoint" />
            <mxPoint x="1240" y="1780" as="targetPoint" />
            <Array as="points">
              <mxPoint x="1240" y="2080" />
            </Array>
          </mxGeometry>
        </mxCell>
        <mxCell id="LSLcMXfksozJM03Gyprl-61" value="" style="endArrow=none;html=1;rounded=0;" parent="1" edge="1">
          <mxGeometry width="50" height="50" relative="1" as="geometry">
            <mxPoint x="279.29" y="1820" as="sourcePoint" />
            <mxPoint x="279.29" y="1480" as="targetPoint" />
          </mxGeometry>
        </mxCell>
        <mxCell id="LSLcMXfksozJM03Gyprl-63" value="" style="endArrow=classic;startArrow=classic;html=1;rounded=0;exitX=1;exitY=0.5;exitDx=0;exitDy=0;" parent="1" edge="1">
          <mxGeometry width="50" height="50" relative="1" as="geometry">
            <mxPoint x="245" y="1480" as="sourcePoint" />
            <mxPoint x="280" y="1480" as="targetPoint" />
          </mxGeometry>
        </mxCell>
        <mxCell id="LSLcMXfksozJM03Gyprl-64" value="" style="endArrow=classic;startArrow=classic;html=1;rounded=0;exitX=1;exitY=0.5;exitDx=0;exitDy=0;" parent="1" edge="1">
          <mxGeometry width="50" height="50" relative="1" as="geometry">
            <mxPoint x="243" y="1574" as="sourcePoint" />
            <mxPoint x="278" y="1574" as="targetPoint" />
          </mxGeometry>
        </mxCell>
        <mxCell id="LSLcMXfksozJM03Gyprl-65" value="" style="endArrow=classic;startArrow=classic;html=1;rounded=0;exitX=1;exitY=0.5;exitDx=0;exitDy=0;" parent="1" edge="1">
          <mxGeometry width="50" height="50" relative="1" as="geometry">
            <mxPoint x="245" y="1649.71" as="sourcePoint" />
            <mxPoint x="280" y="1649.71" as="targetPoint" />
          </mxGeometry>
        </mxCell>
        <mxCell id="LSLcMXfksozJM03Gyprl-66" value="" style="endArrow=classic;startArrow=classic;html=1;rounded=0;exitX=1;exitY=0.5;exitDx=0;exitDy=0;" parent="1" edge="1">
          <mxGeometry width="50" height="50" relative="1" as="geometry">
            <mxPoint x="280" y="1620" as="sourcePoint" />
            <mxPoint x="315" y="1620" as="targetPoint" />
          </mxGeometry>
        </mxCell>
        <mxCell id="LSLcMXfksozJM03Gyprl-67" value="" style="endArrow=classic;startArrow=classic;html=1;rounded=0;exitX=1;exitY=0.5;exitDx=0;exitDy=0;" parent="1" edge="1">
          <mxGeometry width="50" height="50" relative="1" as="geometry">
            <mxPoint x="242.5" y="1724.71" as="sourcePoint" />
            <mxPoint x="277.5" y="1724.71" as="targetPoint" />
          </mxGeometry>
        </mxCell>
        <mxCell id="LSLcMXfksozJM03Gyprl-68" value="" style="endArrow=classic;startArrow=classic;html=1;rounded=0;exitX=1;exitY=0.5;exitDx=0;exitDy=0;" parent="1" edge="1">
          <mxGeometry width="50" height="50" relative="1" as="geometry">
            <mxPoint x="245" y="1820" as="sourcePoint" />
            <mxPoint x="280" y="1820" as="targetPoint" />
          </mxGeometry>
        </mxCell>
        <mxCell id="LSLcMXfksozJM03Gyprl-69" style="edgeStyle=orthogonalEdgeStyle;rounded=0;orthogonalLoop=1;jettySize=auto;html=1;" parent="1" source="LSLcMXfksozJM03Gyprl-11" edge="1">
          <mxGeometry relative="1" as="geometry">
            <mxPoint x="400" y="1820" as="targetPoint" />
          </mxGeometry>
        </mxCell>
        <mxCell id="LSLcMXfksozJM03Gyprl-71" style="edgeStyle=orthogonalEdgeStyle;rounded=0;orthogonalLoop=1;jettySize=auto;html=1;entryX=0.5;entryY=0;entryDx=0;entryDy=0;" parent="1" source="LSLcMXfksozJM03Gyprl-12" target="LSLcMXfksozJM03Gyprl-13" edge="1">
          <mxGeometry relative="1" as="geometry" />
        </mxCell>
        <mxCell id="LSLcMXfksozJM03Gyprl-73" value="" style="endArrow=classic;startArrow=classic;html=1;rounded=0;entryX=0.474;entryY=0.992;entryDx=0;entryDy=0;entryPerimeter=0;exitX=0.626;exitY=0;exitDx=0;exitDy=0;exitPerimeter=0;" parent="1" source="LSLcMXfksozJM03Gyprl-14" target="LSLcMXfksozJM03Gyprl-2" edge="1">
          <mxGeometry width="50" height="50" relative="1" as="geometry">
            <mxPoint x="390" y="1360" as="sourcePoint" />
            <mxPoint x="440" y="1310" as="targetPoint" />
          </mxGeometry>
        </mxCell>
        <mxCell id="LSLcMXfksozJM03Gyprl-74" value="" style="endArrow=classic;startArrow=classic;html=1;rounded=0;entryX=0.474;entryY=0.992;entryDx=0;entryDy=0;entryPerimeter=0;" parent="1" edge="1">
          <mxGeometry width="50" height="50" relative="1" as="geometry">
            <mxPoint x="137" y="1460" as="sourcePoint" />
            <mxPoint x="137.48000000000002" y="1288" as="targetPoint" />
          </mxGeometry>
        </mxCell>
        <mxCell id="LSLcMXfksozJM03Gyprl-76" value="" style="endArrow=classic;html=1;rounded=0;" parent="1" edge="1">
          <mxGeometry width="50" height="50" relative="1" as="geometry">
            <mxPoint x="710.75" y="1490.97" as="sourcePoint" />
            <mxPoint x="806.4999999999995" y="1489.0356565656564" as="targetPoint" />
          </mxGeometry>
        </mxCell>
        <mxCell id="LSLcMXfksozJM03Gyprl-90" value="" style="endArrow=classic;html=1;rounded=0;" parent="1" edge="1">
          <mxGeometry width="50" height="50" relative="1" as="geometry">
            <mxPoint x="710" y="1650" as="sourcePoint" />
            <mxPoint x="810.7499999999995" y="1649.9956565656566" as="targetPoint" />
          </mxGeometry>
        </mxCell>
        <mxCell id="LSLcMXfksozJM03Gyprl-91" value="" style="endArrow=classic;html=1;rounded=0;" parent="1" edge="1">
          <mxGeometry width="50" height="50" relative="1" as="geometry">
            <mxPoint x="710.75" y="2231.9300000000003" as="sourcePoint" />
            <mxPoint x="806.4999999999995" y="2229.9956565656566" as="targetPoint" />
          </mxGeometry>
        </mxCell>
        <mxCell id="LSLcMXfksozJM03Gyprl-93" value="" style="endArrow=classic;html=1;rounded=0;" parent="1" target="LSLcMXfksozJM03Gyprl-14" edge="1">
          <mxGeometry width="50" height="50" relative="1" as="geometry">
            <mxPoint x="710" y="1645" as="sourcePoint" />
            <mxPoint x="900" y="1680" as="targetPoint" />
          </mxGeometry>
        </mxCell>
        <mxCell id="LSLcMXfksozJM03Gyprl-94" value="" style="endArrow=none;html=1;rounded=0;" parent="1" edge="1">
          <mxGeometry width="50" height="50" relative="1" as="geometry">
            <mxPoint x="710" y="2230" as="sourcePoint" />
            <mxPoint x="710" y="1490" as="targetPoint" />
          </mxGeometry>
        </mxCell>
        <mxCell id="LSLcMXfksozJM03Gyprl-95" value="LOAD BALANCING" style="rounded=1;whiteSpace=wrap;html=1;" parent="1" vertex="1">
          <mxGeometry x="1190" y="1737" width="120" height="43" as="geometry" />
        </mxCell>
        <mxCell id="y-TX2a_j0supAGSEBNOk-1" value="" style="group" parent="1" vertex="1" connectable="0">
          <mxGeometry x="-660" width="330" height="480" as="geometry" />
        </mxCell>
        <mxCell id="y-TX2a_j0supAGSEBNOk-2" value="" style="rounded=1;whiteSpace=wrap;html=1;" parent="y-TX2a_j0supAGSEBNOk-1" vertex="1">
          <mxGeometry width="330" height="479.99999999999994" as="geometry" />
        </mxCell>
        <mxCell id="y-TX2a_j0supAGSEBNOk-3" value="Pod 1" style="rounded=1;whiteSpace=wrap;html=1;verticalAlign=top;" parent="y-TX2a_j0supAGSEBNOk-1" vertex="1">
          <mxGeometry x="19.249999999999996" y="48" width="132" height="175.99999999999994" as="geometry" />
        </mxCell>
        <mxCell id="y-TX2a_j0supAGSEBNOk-4" value="Pod 2" style="rounded=1;whiteSpace=wrap;html=1;verticalAlign=top;" parent="y-TX2a_j0supAGSEBNOk-1" vertex="1">
          <mxGeometry x="184.24999999999997" y="48" width="132" height="175.99999999999994" as="geometry" />
        </mxCell>
        <mxCell id="y-TX2a_j0supAGSEBNOk-5" value="container runtime" style="rounded=1;whiteSpace=wrap;html=1;" parent="y-TX2a_j0supAGSEBNOk-1" vertex="1">
          <mxGeometry x="19.249999999999996" y="239.99999999999994" width="297" height="48" as="geometry" />
        </mxCell>
        <mxCell id="y-TX2a_j0supAGSEBNOk-6" value="WORKER Node 2" style="rounded=1;whiteSpace=wrap;html=1;" parent="y-TX2a_j0supAGSEBNOk-1" vertex="1">
          <mxGeometry x="16.5" y="389.9999999999999" width="297" height="48" as="geometry" />
        </mxCell>
        <mxCell id="y-TX2a_j0supAGSEBNOk-7" value="kube-proxy" style="rounded=1;whiteSpace=wrap;html=1;" parent="y-TX2a_j0supAGSEBNOk-1" vertex="1">
          <mxGeometry x="181.5" y="310" width="132" height="48" as="geometry" />
        </mxCell>
        <mxCell id="y-TX2a_j0supAGSEBNOk-8" value="kubelet" style="rounded=1;whiteSpace=wrap;html=1;" parent="y-TX2a_j0supAGSEBNOk-1" vertex="1">
          <mxGeometry x="19.249999999999996" y="310" width="132" height="48" as="geometry" />
        </mxCell>
        <mxCell id="y-TX2a_j0supAGSEBNOk-9" value="container 1" style="rounded=1;whiteSpace=wrap;html=1;" parent="y-TX2a_j0supAGSEBNOk-1" vertex="1">
          <mxGeometry x="27.62" y="90" width="115.25" height="28" as="geometry" />
        </mxCell>
        <mxCell id="y-TX2a_j0supAGSEBNOk-10" value="container 2" style="rounded=1;whiteSpace=wrap;html=1;" parent="y-TX2a_j0supAGSEBNOk-1" vertex="1">
          <mxGeometry x="27.5" y="140" width="115.25" height="28" as="geometry" />
        </mxCell>
        <mxCell id="y-TX2a_j0supAGSEBNOk-11" value="container 1" style="rounded=1;whiteSpace=wrap;html=1;" parent="y-TX2a_j0supAGSEBNOk-1" vertex="1">
          <mxGeometry x="189.88" y="90" width="115.25" height="28" as="geometry" />
        </mxCell>
        <mxCell id="y-TX2a_j0supAGSEBNOk-37" value="" style="group" parent="1" vertex="1" connectable="0">
          <mxGeometry x="2870" y="1450" width="330" height="519" as="geometry" />
        </mxCell>
        <mxCell id="r_oYrM3Btbg6iGKMfWGE-13" value="WORKER Node 2" style="rounded=1;whiteSpace=wrap;html=1;movable=1;resizable=1;rotatable=1;deletable=1;editable=1;locked=0;connectable=1;" parent="y-TX2a_j0supAGSEBNOk-37" vertex="1">
          <mxGeometry x="18.25" width="297" height="48" as="geometry" />
        </mxCell>
        <mxCell id="r_oYrM3Btbg6iGKMfWGE-2" value="" style="rounded=1;whiteSpace=wrap;html=1;movable=1;resizable=1;rotatable=1;deletable=1;editable=1;locked=0;connectable=1;" parent="y-TX2a_j0supAGSEBNOk-37" vertex="1">
          <mxGeometry y="39" width="330" height="479.99999999999994" as="geometry" />
        </mxCell>
        <mxCell id="r_oYrM3Btbg6iGKMfWGE-12" value="" style="rounded=1;whiteSpace=wrap;html=1;fillColor=#FF9999;strokeColor=#000000;dashed=1;gradientColor=#b77676;gradientDirection=north;opacity=10;strokeWidth=8;movable=1;resizable=1;rotatable=1;deletable=1;editable=1;locked=0;connectable=1;" parent="y-TX2a_j0supAGSEBNOk-37" vertex="1">
          <mxGeometry x="13.25" y="39" width="303.5" height="290" as="geometry" />
        </mxCell>
        <mxCell id="r_oYrM3Btbg6iGKMfWGE-3" value="Pod 1" style="rounded=1;whiteSpace=wrap;html=1;verticalAlign=top;movable=1;resizable=1;rotatable=1;deletable=1;editable=1;locked=0;connectable=1;" parent="y-TX2a_j0supAGSEBNOk-37" vertex="1">
          <mxGeometry x="21" y="78" width="132" height="175.99999999999994" as="geometry" />
        </mxCell>
        <mxCell id="r_oYrM3Btbg6iGKMfWGE-5" value="" style="rounded=1;whiteSpace=wrap;html=1;dashed=1;dashPattern=8 8;fillColor=#dae8fc;strokeColor=#6c8ebf;movable=1;resizable=1;rotatable=1;deletable=1;editable=1;locked=0;connectable=1;" parent="y-TX2a_j0supAGSEBNOk-37" vertex="1">
          <mxGeometry x="35" y="328" width="260" height="172" as="geometry" />
        </mxCell>
        <mxCell id="r_oYrM3Btbg6iGKMfWGE-4" value="Pod 2" style="rounded=1;whiteSpace=wrap;html=1;verticalAlign=top;movable=1;resizable=1;rotatable=1;deletable=1;editable=1;locked=0;connectable=1;" parent="y-TX2a_j0supAGSEBNOk-37" vertex="1">
          <mxGeometry x="186" y="78" width="132" height="175.99999999999994" as="geometry" />
        </mxCell>
        <mxCell id="r_oYrM3Btbg6iGKMfWGE-6" value="container runtime" style="rounded=1;whiteSpace=wrap;html=1;movable=1;resizable=1;rotatable=1;deletable=1;editable=1;locked=0;connectable=1;" parent="y-TX2a_j0supAGSEBNOk-37" vertex="1">
          <mxGeometry x="18.25" y="350" width="297" height="48" as="geometry" />
        </mxCell>
        <mxCell id="y-TX2a_j0supAGSEBNOk-51" style="edgeStyle=orthogonalEdgeStyle;rounded=0;orthogonalLoop=1;jettySize=auto;html=1;startArrow=classic;startFill=1;" parent="y-TX2a_j0supAGSEBNOk-37" edge="1">
          <mxGeometry relative="1" as="geometry">
            <mxPoint x="-131.75" y="435" as="targetPoint" />
            <mxPoint y="435" as="sourcePoint" />
          </mxGeometry>
        </mxCell>
        <mxCell id="r_oYrM3Btbg6iGKMfWGE-7" value="kube-proxy" style="rounded=1;whiteSpace=wrap;html=1;movable=1;resizable=1;rotatable=1;deletable=1;editable=1;locked=0;connectable=1;" parent="y-TX2a_j0supAGSEBNOk-37" vertex="1">
          <mxGeometry x="11.75" y="266" width="300" height="48" as="geometry" />
        </mxCell>
        <mxCell id="r_oYrM3Btbg6iGKMfWGE-8" value="kubelet" style="rounded=1;whiteSpace=wrap;html=1;movable=1;resizable=1;rotatable=1;deletable=1;editable=1;locked=0;connectable=1;" parent="y-TX2a_j0supAGSEBNOk-37" vertex="1">
          <mxGeometry x="18.25" y="430" width="293.5" height="48" as="geometry" />
        </mxCell>
        <mxCell id="r_oYrM3Btbg6iGKMfWGE-9" value="container 1" style="rounded=1;whiteSpace=wrap;html=1;movable=1;resizable=1;rotatable=1;deletable=1;editable=1;locked=0;connectable=1;" parent="y-TX2a_j0supAGSEBNOk-37" vertex="1">
          <mxGeometry x="29.36999999999989" y="120" width="115.25" height="28" as="geometry" />
        </mxCell>
        <mxCell id="r_oYrM3Btbg6iGKMfWGE-10" value="container 2" style="rounded=1;whiteSpace=wrap;html=1;movable=1;resizable=1;rotatable=1;deletable=1;editable=1;locked=0;connectable=1;" parent="y-TX2a_j0supAGSEBNOk-37" vertex="1">
          <mxGeometry x="29.25" y="170" width="115.25" height="28" as="geometry" />
        </mxCell>
        <mxCell id="r_oYrM3Btbg6iGKMfWGE-11" value="container 1" style="rounded=1;whiteSpace=wrap;html=1;movable=1;resizable=1;rotatable=1;deletable=1;editable=1;locked=0;connectable=1;" parent="y-TX2a_j0supAGSEBNOk-37" vertex="1">
          <mxGeometry x="191.6300000000001" y="120" width="115.25" height="28" as="geometry" />
        </mxCell>
        <mxCell id="y-TX2a_j0supAGSEBNOk-38" value="" style="group" parent="1" vertex="1" connectable="0">
          <mxGeometry x="2220" y="1450" width="330" height="519" as="geometry" />
        </mxCell>
        <mxCell id="y-TX2a_j0supAGSEBNOk-39" value="WORKER Node 1" style="rounded=1;whiteSpace=wrap;html=1;movable=1;resizable=1;rotatable=1;deletable=1;editable=1;locked=0;connectable=1;" parent="y-TX2a_j0supAGSEBNOk-38" vertex="1">
          <mxGeometry x="6.5" y="145" width="297" height="48" as="geometry" />
        </mxCell>
        <mxCell id="y-TX2a_j0supAGSEBNOk-40" value="" style="rounded=1;whiteSpace=wrap;html=1;movable=1;resizable=1;rotatable=1;deletable=1;editable=1;locked=0;connectable=1;" parent="y-TX2a_j0supAGSEBNOk-38" vertex="1">
          <mxGeometry y="39" width="330" height="479.99999999999994" as="geometry" />
        </mxCell>
        <mxCell id="y-TX2a_j0supAGSEBNOk-41" value="" style="rounded=1;whiteSpace=wrap;html=1;fillColor=#FF9999;strokeColor=#000000;dashed=1;gradientColor=#b77676;gradientDirection=north;opacity=10;strokeWidth=8;movable=1;resizable=1;rotatable=1;deletable=1;editable=1;locked=0;connectable=1;" parent="y-TX2a_j0supAGSEBNOk-38" vertex="1">
          <mxGeometry x="1.5" y="184" width="303.5" height="290" as="geometry" />
        </mxCell>
        <mxCell id="y-TX2a_j0supAGSEBNOk-42" value="Pod 1" style="rounded=1;whiteSpace=wrap;html=1;verticalAlign=top;movable=1;resizable=1;rotatable=1;deletable=1;editable=1;locked=0;connectable=1;" parent="y-TX2a_j0supAGSEBNOk-38" vertex="1">
          <mxGeometry x="9.25" y="223" width="132" height="175.99999999999994" as="geometry" />
        </mxCell>
        <mxCell id="y-TX2a_j0supAGSEBNOk-43" value="" style="rounded=1;whiteSpace=wrap;html=1;dashed=1;dashPattern=8 8;fillColor=#dae8fc;strokeColor=#6c8ebf;movable=1;resizable=1;rotatable=1;deletable=1;editable=1;locked=0;connectable=1;" parent="y-TX2a_j0supAGSEBNOk-38" vertex="1">
          <mxGeometry x="35" y="328" width="260" height="172" as="geometry" />
        </mxCell>
        <mxCell id="y-TX2a_j0supAGSEBNOk-44" value="Pod 2" style="rounded=1;whiteSpace=wrap;html=1;verticalAlign=top;movable=1;resizable=1;rotatable=1;deletable=1;editable=1;locked=0;connectable=1;" parent="y-TX2a_j0supAGSEBNOk-38" vertex="1">
          <mxGeometry x="174.25" y="223" width="132" height="175.99999999999994" as="geometry" />
        </mxCell>
        <mxCell id="y-TX2a_j0supAGSEBNOk-45" value="container runtime" style="rounded=1;whiteSpace=wrap;html=1;movable=1;resizable=1;rotatable=1;deletable=1;editable=1;locked=0;connectable=1;" parent="y-TX2a_j0supAGSEBNOk-38" vertex="1">
          <mxGeometry x="6.5" y="495" width="297" height="48" as="geometry" />
        </mxCell>
        <mxCell id="y-TX2a_j0supAGSEBNOk-52" style="edgeStyle=orthogonalEdgeStyle;rounded=0;orthogonalLoop=1;jettySize=auto;html=1;startArrow=classic;startFill=1;" parent="y-TX2a_j0supAGSEBNOk-38" source="y-TX2a_j0supAGSEBNOk-46" edge="1">
          <mxGeometry relative="1" as="geometry">
            <mxPoint x="498.25" y="435" as="targetPoint" />
          </mxGeometry>
        </mxCell>
        <mxCell id="y-TX2a_j0supAGSEBNOk-46" value="kube-proxy" style="rounded=1;whiteSpace=wrap;html=1;movable=1;resizable=1;rotatable=1;deletable=1;editable=1;locked=0;connectable=1;" parent="y-TX2a_j0supAGSEBNOk-38" vertex="1">
          <mxGeometry y="411" width="300" height="48" as="geometry" />
        </mxCell>
        <mxCell id="y-TX2a_j0supAGSEBNOk-47" value="kubelet" style="rounded=1;whiteSpace=wrap;html=1;movable=1;resizable=1;rotatable=1;deletable=1;editable=1;locked=0;connectable=1;" parent="y-TX2a_j0supAGSEBNOk-38" vertex="1">
          <mxGeometry x="18.25" y="430" width="293.5" height="48" as="geometry" />
        </mxCell>
        <mxCell id="y-TX2a_j0supAGSEBNOk-48" value="container 1" style="rounded=1;whiteSpace=wrap;html=1;movable=1;resizable=1;rotatable=1;deletable=1;editable=1;locked=0;connectable=1;" parent="y-TX2a_j0supAGSEBNOk-38" vertex="1">
          <mxGeometry x="17.61999999999989" y="265" width="115.25" height="28" as="geometry" />
        </mxCell>
        <mxCell id="y-TX2a_j0supAGSEBNOk-49" value="container 2" style="rounded=1;whiteSpace=wrap;html=1;movable=1;resizable=1;rotatable=1;deletable=1;editable=1;locked=0;connectable=1;" parent="y-TX2a_j0supAGSEBNOk-38" vertex="1">
          <mxGeometry x="17.5" y="315" width="115.25" height="28" as="geometry" />
        </mxCell>
        <mxCell id="y-TX2a_j0supAGSEBNOk-50" value="container 1" style="rounded=1;whiteSpace=wrap;html=1;movable=1;resizable=1;rotatable=1;deletable=1;editable=1;locked=0;connectable=1;" parent="y-TX2a_j0supAGSEBNOk-38" vertex="1">
          <mxGeometry x="179.8800000000001" y="265" width="115.25" height="28" as="geometry" />
        </mxCell>
        <mxCell id="y-TX2a_j0supAGSEBNOk-53" value="Proxy node" style="rounded=1;whiteSpace=wrap;html=1;" parent="1" vertex="1">
          <mxGeometry x="2668.25" y="1735" width="120" height="60" as="geometry" />
        </mxCell>
        <mxCell id="y-TX2a_j0supAGSEBNOk-55" value="LOAD BALANCING" style="rounded=1;whiteSpace=wrap;html=1;" parent="1" vertex="1">
          <mxGeometry x="2668.25" y="1965" width="120" height="43" as="geometry" />
        </mxCell>
        <mxCell id="y-TX2a_j0supAGSEBNOk-56" value="" style="shape=flexArrow;endArrow=classic;startArrow=classic;html=1;rounded=0;entryX=0.5;entryY=1;entryDx=0;entryDy=0;exitX=0.5;exitY=0;exitDx=0;exitDy=0;" parent="1" source="y-TX2a_j0supAGSEBNOk-55" target="y-TX2a_j0supAGSEBNOk-53" edge="1">
          <mxGeometry width="100" height="100" relative="1" as="geometry">
            <mxPoint x="2678.25" y="1945" as="sourcePoint" />
            <mxPoint x="2778.25" y="1845" as="targetPoint" />
          </mxGeometry>
        </mxCell>
        <mxCell id="y-TX2a_j0supAGSEBNOk-59" value="Capture API Traffic" style="rounded=1;whiteSpace=wrap;html=1;" parent="1" vertex="1">
          <mxGeometry x="2588.25" y="1545" width="120" height="60" as="geometry" />
        </mxCell>
        <mxCell id="y-TX2a_j0supAGSEBNOk-60" value="Logging Request" style="rounded=1;whiteSpace=wrap;html=1;" parent="1" vertex="1">
          <mxGeometry x="2588.25" y="1665" width="120" height="60" as="geometry" />
        </mxCell>
        <mxCell id="y-TX2a_j0supAGSEBNOk-61" value="Handling Classify" style="rounded=1;whiteSpace=wrap;html=1;" parent="1" vertex="1">
          <mxGeometry x="2708.25" y="1605" width="120" height="60" as="geometry" />
        </mxCell>
        <mxCell id="y-TX2a_j0supAGSEBNOk-63" style="edgeStyle=orthogonalEdgeStyle;rounded=0;orthogonalLoop=1;jettySize=auto;html=1;entryX=0.5;entryY=1;entryDx=0;entryDy=0;startArrow=classic;startFill=1;" parent="1" source="y-TX2a_j0supAGSEBNOk-62" target="y-TX2a_j0supAGSEBNOk-55" edge="1">
          <mxGeometry relative="1" as="geometry" />
        </mxCell>
        <mxCell id="y-TX2a_j0supAGSEBNOk-62" value="END USER" style="rounded=1;whiteSpace=wrap;html=1;" parent="1" vertex="1">
          <mxGeometry x="2630" y="1990" width="220" height="230" as="geometry" />
        </mxCell>
        <mxCell id="lD0onL5QnXaqYymmlR6V-1" value="" style="group" parent="1" vertex="1" connectable="0">
          <mxGeometry x="-4290" y="2040" width="1710" height="1190" as="geometry" />
        </mxCell>
        <mxCell id="14Hxv5Df84lt4skrSm5c-60" style="edgeStyle=orthogonalEdgeStyle;rounded=0;orthogonalLoop=1;jettySize=auto;html=1;startArrow=classic;startFill=1;movable=1;resizable=1;rotatable=1;deletable=1;editable=1;locked=0;connectable=1;" parent="lD0onL5QnXaqYymmlR6V-1" source="14Hxv5Df84lt4skrSm5c-56" edge="1">
          <mxGeometry relative="1" as="geometry">
            <mxPoint x="1245" y="330" as="targetPoint" />
          </mxGeometry>
        </mxCell>
        <mxCell id="14Hxv5Df84lt4skrSm5c-79" style="edgeStyle=orthogonalEdgeStyle;rounded=0;orthogonalLoop=1;jettySize=auto;html=1;entryX=0;entryY=0.643;entryDx=0;entryDy=0;entryPerimeter=0;movable=1;resizable=1;rotatable=1;deletable=1;editable=1;locked=0;connectable=1;" parent="lD0onL5QnXaqYymmlR6V-1" source="14Hxv5Df84lt4skrSm5c-56" target="14Hxv5Df84lt4skrSm5c-70" edge="1">
          <mxGeometry relative="1" as="geometry">
            <mxPoint x="1540" y="120" as="targetPoint" />
            <Array as="points">
              <mxPoint x="1470" y="200" />
              <mxPoint x="1470" y="120" />
              <mxPoint x="1550" y="120" />
            </Array>
          </mxGeometry>
        </mxCell>
        <mxCell id="14Hxv5Df84lt4skrSm5c-88" style="edgeStyle=orthogonalEdgeStyle;rounded=0;orthogonalLoop=1;jettySize=auto;html=1;entryX=-0.026;entryY=0.596;entryDx=0;entryDy=0;entryPerimeter=0;movable=1;resizable=1;rotatable=1;deletable=1;editable=1;locked=0;connectable=1;" parent="lD0onL5QnXaqYymmlR6V-1" source="14Hxv5Df84lt4skrSm5c-56" target="14Hxv5Df84lt4skrSm5c-89" edge="1">
          <mxGeometry relative="1" as="geometry">
            <mxPoint x="1530" y="240" as="targetPoint" />
            <Array as="points">
              <mxPoint x="1470" y="200" />
              <mxPoint x="1470" y="254" />
            </Array>
          </mxGeometry>
        </mxCell>
        <mxCell id="14Hxv5Df84lt4skrSm5c-56" value="Validation" style="rounded=1;whiteSpace=wrap;html=1;movable=1;resizable=1;rotatable=1;deletable=1;editable=1;locked=0;connectable=1;" parent="lD0onL5QnXaqYymmlR6V-1" vertex="1">
          <mxGeometry x="1100" y="170" width="290" height="60" as="geometry" />
        </mxCell>
        <mxCell id="14Hxv5Df84lt4skrSm5c-66" style="edgeStyle=orthogonalEdgeStyle;rounded=0;orthogonalLoop=1;jettySize=auto;html=1;startArrow=classic;startFill=1;movable=1;resizable=1;rotatable=1;deletable=1;editable=1;locked=0;connectable=1;" parent="lD0onL5QnXaqYymmlR6V-1" source="14Hxv5Df84lt4skrSm5c-59" edge="1">
          <mxGeometry relative="1" as="geometry">
            <mxPoint x="1247.5" y="500" as="targetPoint" />
            <Array as="points">
              <mxPoint x="1248" y="430" />
              <mxPoint x="1248" y="430" />
            </Array>
          </mxGeometry>
        </mxCell>
        <mxCell id="14Hxv5Df84lt4skrSm5c-99" style="edgeStyle=orthogonalEdgeStyle;rounded=0;orthogonalLoop=1;jettySize=auto;html=1;entryX=0;entryY=0.5;entryDx=0;entryDy=0;movable=1;resizable=1;rotatable=1;deletable=1;editable=1;locked=0;connectable=1;" parent="lD0onL5QnXaqYymmlR6V-1" source="14Hxv5Df84lt4skrSm5c-59" target="14Hxv5Df84lt4skrSm5c-97" edge="1">
          <mxGeometry relative="1" as="geometry" />
        </mxCell>
        <mxCell id="14Hxv5Df84lt4skrSm5c-59" value="Load balancing" style="rounded=1;whiteSpace=wrap;html=1;arcSize=19;movable=1;resizable=1;rotatable=1;deletable=1;editable=1;locked=0;connectable=1;" parent="lD0onL5QnXaqYymmlR6V-1" vertex="1">
          <mxGeometry x="1100" y="338" width="300" height="60" as="geometry" />
        </mxCell>
        <mxCell id="14Hxv5Df84lt4skrSm5c-61" value="" style="group;movable=1;resizable=1;rotatable=1;deletable=1;editable=1;locked=0;connectable=1;" parent="lD0onL5QnXaqYymmlR6V-1" vertex="1" connectable="0">
          <mxGeometry x="1100" y="500" width="300" height="160" as="geometry" />
        </mxCell>
        <mxCell id="14Hxv5Df84lt4skrSm5c-62" value="Authentication" style="rounded=1;whiteSpace=wrap;html=1;movable=1;resizable=1;rotatable=1;deletable=1;editable=1;locked=0;connectable=1;" parent="14Hxv5Df84lt4skrSm5c-61" vertex="1">
          <mxGeometry y="100" width="300" height="60" as="geometry" />
        </mxCell>
        <mxCell id="14Hxv5Df84lt4skrSm5c-63" value="Authorization" style="rounded=1;whiteSpace=wrap;html=1;movable=1;resizable=1;rotatable=1;deletable=1;editable=1;locked=0;connectable=1;" parent="14Hxv5Df84lt4skrSm5c-61" vertex="1">
          <mxGeometry width="300" height="60" as="geometry" />
        </mxCell>
        <mxCell id="14Hxv5Df84lt4skrSm5c-64" value="" style="endArrow=classic;startArrow=classic;html=1;rounded=0;movable=1;resizable=1;rotatable=1;deletable=1;editable=1;locked=0;connectable=1;" parent="14Hxv5Df84lt4skrSm5c-61" source="14Hxv5Df84lt4skrSm5c-62" target="14Hxv5Df84lt4skrSm5c-63" edge="1">
          <mxGeometry width="50" height="50" relative="1" as="geometry">
            <mxPoint x="1085.1063829787236" y="-60" as="sourcePoint" />
            <mxPoint x="1191.4893617021276" y="-160" as="targetPoint" />
          </mxGeometry>
        </mxCell>
        <mxCell id="14Hxv5Df84lt4skrSm5c-77" style="edgeStyle=orthogonalEdgeStyle;rounded=0;orthogonalLoop=1;jettySize=auto;html=1;entryX=1;entryY=0;entryDx=0;entryDy=52.5;entryPerimeter=0;startArrow=classic;startFill=1;movable=1;resizable=1;rotatable=1;deletable=1;editable=1;locked=0;connectable=1;" parent="lD0onL5QnXaqYymmlR6V-1" source="14Hxv5Df84lt4skrSm5c-116" target="14Hxv5Df84lt4skrSm5c-82" edge="1">
          <mxGeometry relative="1" as="geometry">
            <mxPoint x="850" y="905" as="targetPoint" />
          </mxGeometry>
        </mxCell>
        <mxCell id="14Hxv5Df84lt4skrSm5c-67" value="Session managerment" style="rounded=1;whiteSpace=wrap;html=1;movable=1;resizable=1;rotatable=1;deletable=1;editable=1;locked=0;connectable=1;" parent="lD0onL5QnXaqYymmlR6V-1" vertex="1">
          <mxGeometry x="1100" y="870" width="300" height="70" as="geometry" />
        </mxCell>
        <mxCell id="14Hxv5Df84lt4skrSm5c-68" style="edgeStyle=orthogonalEdgeStyle;rounded=0;orthogonalLoop=1;jettySize=auto;html=1;entryX=0.5;entryY=0;entryDx=0;entryDy=0;startArrow=classic;startFill=1;movable=1;resizable=1;rotatable=1;deletable=1;editable=1;locked=0;connectable=1;" parent="lD0onL5QnXaqYymmlR6V-1" source="14Hxv5Df84lt4skrSm5c-62" target="14Hxv5Df84lt4skrSm5c-67" edge="1">
          <mxGeometry relative="1" as="geometry" />
        </mxCell>
        <mxCell id="14Hxv5Df84lt4skrSm5c-70" value="Cho phép các Traffic bình thường" style="ellipse;whiteSpace=wrap;html=1;aspect=fixed;movable=1;resizable=1;rotatable=1;deletable=1;editable=1;locked=0;connectable=1;" parent="lD0onL5QnXaqYymmlR6V-1" vertex="1">
          <mxGeometry x="1558" y="30.5" width="140" height="140" as="geometry" />
        </mxCell>
        <mxCell id="14Hxv5Df84lt4skrSm5c-72" value="Kiểm tra tính khả thi về yêu cầu của request" style="ellipse;whiteSpace=wrap;html=1;aspect=fixed;movable=1;resizable=1;rotatable=1;deletable=1;editable=1;locked=0;connectable=1;" parent="lD0onL5QnXaqYymmlR6V-1" vertex="1">
          <mxGeometry x="1570" y="480" width="140" height="140" as="geometry" />
        </mxCell>
        <mxCell id="14Hxv5Df84lt4skrSm5c-73" value="Xử lý và trả về Token Authen-Author&amp;nbsp;" style="ellipse;whiteSpace=wrap;html=1;aspect=fixed;movable=1;resizable=1;rotatable=1;deletable=1;editable=1;locked=0;connectable=1;" parent="lD0onL5QnXaqYymmlR6V-1" vertex="1">
          <mxGeometry x="1595" y="671" width="90" height="90" as="geometry" />
        </mxCell>
        <mxCell id="14Hxv5Df84lt4skrSm5c-80" value="Author Database" style="shape=cylinder3;whiteSpace=wrap;html=1;boundedLbl=1;backgroundOutline=1;size=15;movable=1;resizable=1;rotatable=1;deletable=1;editable=1;locked=0;connectable=1;" parent="lD0onL5QnXaqYymmlR6V-1" vertex="1">
          <mxGeometry x="722" y="484" width="90" height="90" as="geometry" />
        </mxCell>
        <mxCell id="14Hxv5Df84lt4skrSm5c-81" value="Authen Database" style="shape=cylinder3;whiteSpace=wrap;html=1;boundedLbl=1;backgroundOutline=1;size=15;movable=1;resizable=1;rotatable=1;deletable=1;editable=1;locked=0;connectable=1;" parent="lD0onL5QnXaqYymmlR6V-1" vertex="1">
          <mxGeometry x="715" y="591" width="100" height="80" as="geometry" />
        </mxCell>
        <mxCell id="14Hxv5Df84lt4skrSm5c-82" value="Session Database" style="shape=cylinder3;whiteSpace=wrap;html=1;boundedLbl=1;backgroundOutline=1;size=15;movable=1;resizable=1;rotatable=1;deletable=1;editable=1;locked=0;connectable=1;" parent="lD0onL5QnXaqYymmlR6V-1" vertex="1">
          <mxGeometry x="713" y="846" width="100" height="80" as="geometry" />
        </mxCell>
        <mxCell id="14Hxv5Df84lt4skrSm5c-87" style="edgeStyle=orthogonalEdgeStyle;rounded=0;orthogonalLoop=1;jettySize=auto;html=1;entryX=0.5;entryY=0;entryDx=0;entryDy=0;startArrow=classic;startFill=1;movable=1;resizable=1;rotatable=1;deletable=1;editable=1;locked=0;connectable=1;" parent="lD0onL5QnXaqYymmlR6V-1" source="14Hxv5Df84lt4skrSm5c-86" target="14Hxv5Df84lt4skrSm5c-56" edge="1">
          <mxGeometry relative="1" as="geometry" />
        </mxCell>
        <mxCell id="14Hxv5Df84lt4skrSm5c-119" style="edgeStyle=orthogonalEdgeStyle;rounded=0;orthogonalLoop=1;jettySize=auto;html=1;movable=1;resizable=1;rotatable=1;deletable=1;editable=1;locked=0;connectable=1;" parent="lD0onL5QnXaqYymmlR6V-1" source="14Hxv5Df84lt4skrSm5c-86" target="14Hxv5Df84lt4skrSm5c-118" edge="1">
          <mxGeometry relative="1" as="geometry" />
        </mxCell>
        <mxCell id="14Hxv5Df84lt4skrSm5c-86" value="API Traffic" style="rounded=1;whiteSpace=wrap;html=1;movable=1;resizable=1;rotatable=1;deletable=1;editable=1;locked=0;connectable=1;" parent="lD0onL5QnXaqYymmlR6V-1" vertex="1">
          <mxGeometry x="1129" width="231" height="70" as="geometry" />
        </mxCell>
        <mxCell id="14Hxv5Df84lt4skrSm5c-89" value="Chặn các Traffic bất&amp;nbsp; thường" style="ellipse;whiteSpace=wrap;html=1;aspect=fixed;movable=1;resizable=1;rotatable=1;deletable=1;editable=1;locked=0;connectable=1;" parent="lD0onL5QnXaqYymmlR6V-1" vertex="1">
          <mxGeometry x="1558" y="170.5" width="140" height="140" as="geometry" />
        </mxCell>
        <mxCell id="14Hxv5Df84lt4skrSm5c-94" value="" style="group;movable=1;resizable=1;rotatable=1;deletable=1;editable=1;locked=0;connectable=1;" parent="lD0onL5QnXaqYymmlR6V-1" vertex="1" connectable="0">
          <mxGeometry x="860" y="70" width="230" height="200" as="geometry" />
        </mxCell>
        <mxCell id="14Hxv5Df84lt4skrSm5c-90" value="Định nghĩa thế nào là bình thường và bất thường dựa trên&lt;div&gt;&lt;br/&gt;&lt;/div&gt;" style="rounded=1;whiteSpace=wrap;html=1;verticalAlign=top;movable=1;resizable=1;rotatable=1;deletable=1;editable=1;locked=0;connectable=1;" parent="14Hxv5Df84lt4skrSm5c-94" vertex="1">
          <mxGeometry width="230" height="200" as="geometry" />
        </mxCell>
        <mxCell id="14Hxv5Df84lt4skrSm5c-92" value="Request:&lt;br&gt;- Header&amp;nbsp;&lt;div&gt;- Path/end-point&lt;/div&gt;" style="rounded=1;whiteSpace=wrap;html=1;movable=1;resizable=1;rotatable=1;deletable=1;editable=1;locked=0;connectable=1;" parent="14Hxv5Df84lt4skrSm5c-94" vertex="1">
          <mxGeometry x="25" y="50" width="180" height="60" as="geometry" />
        </mxCell>
        <mxCell id="14Hxv5Df84lt4skrSm5c-93" value="Respone:&lt;div&gt;-Body&lt;/div&gt;" style="rounded=1;whiteSpace=wrap;html=1;movable=1;resizable=1;rotatable=1;deletable=1;editable=1;locked=0;connectable=1;" parent="14Hxv5Df84lt4skrSm5c-94" vertex="1">
          <mxGeometry x="25" y="120" width="180" height="60" as="geometry" />
        </mxCell>
        <mxCell id="14Hxv5Df84lt4skrSm5c-95" value="Load các configure về việc xử lý các request và trả reponse t" style="rounded=1;whiteSpace=wrap;html=1;movable=1;resizable=1;rotatable=1;deletable=1;editable=1;locked=0;connectable=1;" parent="lD0onL5QnXaqYymmlR6V-1" vertex="1">
          <mxGeometry x="870" y="300" width="210" height="130" as="geometry" />
        </mxCell>
        <mxCell id="14Hxv5Df84lt4skrSm5c-97" value="Xử lý việc phần chia xử lý request&amp;nbsp;" style="ellipse;whiteSpace=wrap;html=1;aspect=fixed;movable=1;resizable=1;rotatable=1;deletable=1;editable=1;locked=0;connectable=1;" parent="lD0onL5QnXaqYymmlR6V-1" vertex="1">
          <mxGeometry x="1566" y="328" width="132" height="132" as="geometry" />
        </mxCell>
        <mxCell id="14Hxv5Df84lt4skrSm5c-100" style="edgeStyle=orthogonalEdgeStyle;rounded=0;orthogonalLoop=1;jettySize=auto;html=1;movable=1;resizable=1;rotatable=1;deletable=1;editable=1;locked=0;connectable=1;" parent="lD0onL5QnXaqYymmlR6V-1" source="14Hxv5Df84lt4skrSm5c-62" target="14Hxv5Df84lt4skrSm5c-73" edge="1">
          <mxGeometry relative="1" as="geometry">
            <Array as="points">
              <mxPoint x="1490" y="630" />
              <mxPoint x="1490" y="716" />
            </Array>
          </mxGeometry>
        </mxCell>
        <mxCell id="14Hxv5Df84lt4skrSm5c-102" value="Kiểm tra thông tin bên trong request để Author&amp;nbsp;" style="rounded=1;whiteSpace=wrap;html=1;movable=1;resizable=1;rotatable=1;deletable=1;editable=1;locked=0;connectable=1;" parent="lD0onL5QnXaqYymmlR6V-1" vertex="1">
          <mxGeometry x="860" y="484" width="184" height="90" as="geometry" />
        </mxCell>
        <mxCell id="14Hxv5Df84lt4skrSm5c-103" value="Kiểm tra thông tin bên trong request để Authen" style="rounded=1;whiteSpace=wrap;html=1;movable=1;resizable=1;rotatable=1;deletable=1;editable=1;locked=0;connectable=1;" parent="lD0onL5QnXaqYymmlR6V-1" vertex="1">
          <mxGeometry x="860" y="585" width="184" height="90" as="geometry" />
        </mxCell>
        <mxCell id="14Hxv5Df84lt4skrSm5c-105" style="edgeStyle=orthogonalEdgeStyle;rounded=0;orthogonalLoop=1;jettySize=auto;html=1;entryX=1;entryY=0.5;entryDx=0;entryDy=0;startArrow=classic;startFill=1;movable=1;resizable=1;rotatable=1;deletable=1;editable=1;locked=0;connectable=1;" parent="lD0onL5QnXaqYymmlR6V-1" source="14Hxv5Df84lt4skrSm5c-63" target="14Hxv5Df84lt4skrSm5c-102" edge="1">
          <mxGeometry relative="1" as="geometry" />
        </mxCell>
        <mxCell id="14Hxv5Df84lt4skrSm5c-106" style="edgeStyle=orthogonalEdgeStyle;rounded=0;orthogonalLoop=1;jettySize=auto;html=1;entryX=1;entryY=0.5;entryDx=0;entryDy=0;entryPerimeter=0;startArrow=classic;startFill=1;movable=1;resizable=1;rotatable=1;deletable=1;editable=1;locked=0;connectable=1;" parent="lD0onL5QnXaqYymmlR6V-1" source="14Hxv5Df84lt4skrSm5c-102" target="14Hxv5Df84lt4skrSm5c-80" edge="1">
          <mxGeometry relative="1" as="geometry" />
        </mxCell>
        <mxCell id="14Hxv5Df84lt4skrSm5c-108" style="edgeStyle=orthogonalEdgeStyle;rounded=0;orthogonalLoop=1;jettySize=auto;html=1;entryX=1;entryY=0.5;entryDx=0;entryDy=0;startArrow=classic;startFill=1;movable=1;resizable=1;rotatable=1;deletable=1;editable=1;locked=0;connectable=1;" parent="lD0onL5QnXaqYymmlR6V-1" source="14Hxv5Df84lt4skrSm5c-62" target="14Hxv5Df84lt4skrSm5c-103" edge="1">
          <mxGeometry relative="1" as="geometry" />
        </mxCell>
        <mxCell id="14Hxv5Df84lt4skrSm5c-109" style="edgeStyle=orthogonalEdgeStyle;rounded=0;orthogonalLoop=1;jettySize=auto;html=1;entryX=1;entryY=0.5;entryDx=0;entryDy=0;entryPerimeter=0;startArrow=classic;startFill=1;movable=1;resizable=1;rotatable=1;deletable=1;editable=1;locked=0;connectable=1;" parent="lD0onL5QnXaqYymmlR6V-1" source="14Hxv5Df84lt4skrSm5c-103" target="14Hxv5Df84lt4skrSm5c-81" edge="1">
          <mxGeometry relative="1" as="geometry" />
        </mxCell>
        <mxCell id="14Hxv5Df84lt4skrSm5c-110" style="edgeStyle=orthogonalEdgeStyle;rounded=0;orthogonalLoop=1;jettySize=auto;html=1;entryX=0;entryY=0.5;entryDx=0;entryDy=0;movable=1;resizable=1;rotatable=1;deletable=1;editable=1;locked=0;connectable=1;" parent="lD0onL5QnXaqYymmlR6V-1" source="14Hxv5Df84lt4skrSm5c-63" target="14Hxv5Df84lt4skrSm5c-73" edge="1">
          <mxGeometry relative="1" as="geometry">
            <Array as="points">
              <mxPoint x="1490" y="530" />
              <mxPoint x="1490" y="716" />
            </Array>
          </mxGeometry>
        </mxCell>
        <mxCell id="14Hxv5Df84lt4skrSm5c-111" style="edgeStyle=orthogonalEdgeStyle;rounded=0;orthogonalLoop=1;jettySize=auto;html=1;entryX=0.027;entryY=0.37;entryDx=0;entryDy=0;entryPerimeter=0;movable=1;resizable=1;rotatable=1;deletable=1;editable=1;locked=0;connectable=1;" parent="lD0onL5QnXaqYymmlR6V-1" source="14Hxv5Df84lt4skrSm5c-63" target="14Hxv5Df84lt4skrSm5c-72" edge="1">
          <mxGeometry relative="1" as="geometry">
            <Array as="points">
              <mxPoint x="1490" y="530" />
              <mxPoint x="1490" y="532" />
            </Array>
          </mxGeometry>
        </mxCell>
        <mxCell id="14Hxv5Df84lt4skrSm5c-112" style="edgeStyle=orthogonalEdgeStyle;rounded=0;orthogonalLoop=1;jettySize=auto;html=1;entryX=0.027;entryY=0.37;entryDx=0;entryDy=0;entryPerimeter=0;movable=1;resizable=1;rotatable=1;deletable=1;editable=1;locked=0;connectable=1;" parent="lD0onL5QnXaqYymmlR6V-1" target="14Hxv5Df84lt4skrSm5c-113" edge="1">
          <mxGeometry relative="1" as="geometry">
            <mxPoint x="1400" y="885" as="sourcePoint" />
            <Array as="points">
              <mxPoint x="1485" y="886" />
            </Array>
          </mxGeometry>
        </mxCell>
        <mxCell id="14Hxv5Df84lt4skrSm5c-113" value="Kiểm tra tính khả thi về yêu cầu của request" style="ellipse;whiteSpace=wrap;html=1;aspect=fixed;movable=1;resizable=1;rotatable=1;deletable=1;editable=1;locked=0;connectable=1;" parent="lD0onL5QnXaqYymmlR6V-1" vertex="1">
          <mxGeometry x="1570" y="834" width="140" height="140" as="geometry" />
        </mxCell>
        <mxCell id="14Hxv5Df84lt4skrSm5c-114" style="edgeStyle=orthogonalEdgeStyle;rounded=0;orthogonalLoop=1;jettySize=auto;html=1;entryX=-0.003;entryY=0.449;entryDx=0;entryDy=0;entryPerimeter=0;movable=1;resizable=1;rotatable=1;deletable=1;editable=1;locked=0;connectable=1;" parent="lD0onL5QnXaqYymmlR6V-1" source="14Hxv5Df84lt4skrSm5c-62" target="14Hxv5Df84lt4skrSm5c-72" edge="1">
          <mxGeometry relative="1" as="geometry">
            <Array as="points">
              <mxPoint x="1490" y="630" />
              <mxPoint x="1490" y="530" />
              <mxPoint x="1570" y="530" />
            </Array>
          </mxGeometry>
        </mxCell>
        <mxCell id="14Hxv5Df84lt4skrSm5c-117" value="" style="edgeStyle=orthogonalEdgeStyle;rounded=0;orthogonalLoop=1;jettySize=auto;html=1;entryX=1;entryY=0;entryDx=0;entryDy=52.5;entryPerimeter=0;movable=1;resizable=1;rotatable=1;deletable=1;editable=1;locked=0;connectable=1;" parent="lD0onL5QnXaqYymmlR6V-1" source="14Hxv5Df84lt4skrSm5c-67" target="14Hxv5Df84lt4skrSm5c-116" edge="1">
          <mxGeometry relative="1" as="geometry">
            <mxPoint x="800" y="906" as="targetPoint" />
            <mxPoint x="1100" y="905" as="sourcePoint" />
          </mxGeometry>
        </mxCell>
        <mxCell id="14Hxv5Df84lt4skrSm5c-116" value="Kiểm tra thông tin token trong request để duy trì và thực hiện request" style="rounded=1;whiteSpace=wrap;html=1;movable=1;resizable=1;rotatable=1;deletable=1;editable=1;locked=0;connectable=1;" parent="lD0onL5QnXaqYymmlR6V-1" vertex="1">
          <mxGeometry x="860" y="853" width="184" height="90" as="geometry" />
        </mxCell>
        <mxCell id="14Hxv5Df84lt4skrSm5c-124" style="edgeStyle=orthogonalEdgeStyle;rounded=0;orthogonalLoop=1;jettySize=auto;html=1;entryX=0.5;entryY=0;entryDx=0;entryDy=0;movable=1;resizable=1;rotatable=1;deletable=1;editable=1;locked=0;connectable=1;" parent="lD0onL5QnXaqYymmlR6V-1" source="14Hxv5Df84lt4skrSm5c-118" target="14Hxv5Df84lt4skrSm5c-120" edge="1">
          <mxGeometry relative="1" as="geometry" />
        </mxCell>
        <mxCell id="14Hxv5Df84lt4skrSm5c-118" value="Capture Log&lt;br&gt;API Traffic" style="rounded=1;whiteSpace=wrap;html=1;movable=1;resizable=1;rotatable=1;deletable=1;editable=1;locked=0;connectable=1;" parent="lD0onL5QnXaqYymmlR6V-1" vertex="1">
          <mxGeometry x="390" y="133" width="200" height="60" as="geometry" />
        </mxCell>
        <mxCell id="14Hxv5Df84lt4skrSm5c-125" style="edgeStyle=orthogonalEdgeStyle;rounded=0;orthogonalLoop=1;jettySize=auto;html=1;entryX=0.5;entryY=0;entryDx=0;entryDy=0;movable=1;resizable=1;rotatable=1;deletable=1;editable=1;locked=0;connectable=1;" parent="lD0onL5QnXaqYymmlR6V-1" source="14Hxv5Df84lt4skrSm5c-120" target="14Hxv5Df84lt4skrSm5c-121" edge="1">
          <mxGeometry relative="1" as="geometry" />
        </mxCell>
        <mxCell id="14Hxv5Df84lt4skrSm5c-120" value="Modules AI" style="rounded=1;whiteSpace=wrap;html=1;movable=1;resizable=1;rotatable=1;deletable=1;editable=1;locked=0;connectable=1;" parent="lD0onL5QnXaqYymmlR6V-1" vertex="1">
          <mxGeometry x="390" y="313" width="200" height="60" as="geometry" />
        </mxCell>
        <mxCell id="14Hxv5Df84lt4skrSm5c-123" style="edgeStyle=orthogonalEdgeStyle;rounded=0;orthogonalLoop=1;jettySize=auto;html=1;entryX=0.473;entryY=1.021;entryDx=0;entryDy=0;entryPerimeter=0;movable=1;resizable=1;rotatable=1;deletable=1;editable=1;locked=0;connectable=1;" parent="lD0onL5QnXaqYymmlR6V-1" source="14Hxv5Df84lt4skrSm5c-121" target="14Hxv5Df84lt4skrSm5c-67" edge="1">
          <mxGeometry relative="1" as="geometry">
            <mxPoint x="490" y="1120" as="targetPoint" />
            <Array as="points">
              <mxPoint x="480" y="1190" />
              <mxPoint x="1242" y="1190" />
            </Array>
          </mxGeometry>
        </mxCell>
        <mxCell id="14Hxv5Df84lt4skrSm5c-121" value="Modules Action" style="rounded=1;whiteSpace=wrap;html=1;movable=1;resizable=1;rotatable=1;deletable=1;editable=1;locked=0;connectable=1;" parent="lD0onL5QnXaqYymmlR6V-1" vertex="1">
          <mxGeometry x="390" y="543" width="200" height="60" as="geometry" />
        </mxCell>
        <mxCell id="14Hxv5Df84lt4skrSm5c-127" value="- Xử lý hệ thống log&#xa;- Xử lý các thành phần để tạo dataset đưa vào Detect&#xa;- Lưu trữ theo cặp request - respone tương ứng" style="rounded=1;whiteSpace=wrap;html=1;align=left;movable=1;resizable=1;rotatable=1;deletable=1;editable=1;locked=0;connectable=1;" parent="lD0onL5QnXaqYymmlR6V-1" vertex="1">
          <mxGeometry y="133" width="361" height="60" as="geometry" />
        </mxCell>
        <mxCell id="14Hxv5Df84lt4skrSm5c-128" value="&lt;div&gt;&lt;span style=&quot;font-size: 12px;&quot;&gt;- Kết quả traninig từ dataset có chọn lọc&lt;/span&gt;&lt;/div&gt;&lt;div&gt;&lt;span style=&quot;font-size: 12px;&quot;&gt;- Dự đoán kết quả từ log thu thập được theo thời gian&lt;/span&gt;&lt;/div&gt;&lt;div&gt;&lt;span style=&quot;font-size: 12px;&quot;&gt;- xử lý kết quả&lt;/span&gt;&lt;/div&gt;" style="rounded=1;whiteSpace=wrap;html=1;align=left;movable=1;resizable=1;rotatable=1;deletable=1;editable=1;locked=0;connectable=1;" parent="lD0onL5QnXaqYymmlR6V-1" vertex="1">
          <mxGeometry y="313" width="361" height="60" as="geometry" />
        </mxCell>
        <mxCell id="14Hxv5Df84lt4skrSm5c-129" value="&lt;div&gt;&lt;span style=&quot;font-size: 12px;&quot;&gt;- thực hiện các yêu cầu dựa trên kết quả của module AI&lt;/span&gt;&lt;/div&gt;&lt;div&gt;&lt;span style=&quot;font-size: 12px;&quot;&gt;- Ghi nhận và thông báo đến hệ thống log&lt;/span&gt;&lt;/div&gt;" style="rounded=1;whiteSpace=wrap;html=1;align=left;movable=1;resizable=1;rotatable=1;deletable=1;editable=1;locked=0;connectable=1;" parent="lD0onL5QnXaqYymmlR6V-1" vertex="1">
          <mxGeometry x="100" y="543" width="280" height="60" as="geometry" />
        </mxCell>
        <mxCell id="lD0onL5QnXaqYymmlR6V-2" value="" style="group" parent="1" vertex="1" connectable="0">
          <mxGeometry x="-3980" y="1210" width="550" height="755" as="geometry" />
        </mxCell>
        <mxCell id="14Hxv5Df84lt4skrSm5c-142" style="edgeStyle=orthogonalEdgeStyle;rounded=0;orthogonalLoop=1;jettySize=auto;html=1;entryX=0.5;entryY=0;entryDx=0;entryDy=0;movable=1;resizable=1;rotatable=1;deletable=1;editable=1;locked=0;connectable=1;" parent="lD0onL5QnXaqYymmlR6V-2" source="14Hxv5Df84lt4skrSm5c-130" target="14Hxv5Df84lt4skrSm5c-131" edge="1">
          <mxGeometry relative="1" as="geometry" />
        </mxCell>
        <mxCell id="14Hxv5Df84lt4skrSm5c-130" value="Validation" style="rounded=1;whiteSpace=wrap;html=1;movable=1;resizable=1;rotatable=1;deletable=1;editable=1;locked=0;connectable=1;" parent="lD0onL5QnXaqYymmlR6V-2" vertex="1">
          <mxGeometry x="250" y="190" width="290" height="60" as="geometry" />
        </mxCell>
        <mxCell id="14Hxv5Df84lt4skrSm5c-143" style="edgeStyle=orthogonalEdgeStyle;rounded=0;orthogonalLoop=1;jettySize=auto;html=1;movable=1;resizable=1;rotatable=1;deletable=1;editable=1;locked=0;connectable=1;" parent="lD0onL5QnXaqYymmlR6V-2" source="14Hxv5Df84lt4skrSm5c-131" edge="1">
          <mxGeometry relative="1" as="geometry">
            <mxPoint x="395" y="460.00000000000045" as="targetPoint" />
          </mxGeometry>
        </mxCell>
        <mxCell id="14Hxv5Df84lt4skrSm5c-131" value="Load balancing" style="rounded=1;whiteSpace=wrap;html=1;arcSize=19;movable=1;resizable=1;rotatable=1;deletable=1;editable=1;locked=0;connectable=1;" parent="lD0onL5QnXaqYymmlR6V-2" vertex="1">
          <mxGeometry x="245" y="350" width="300" height="60" as="geometry" />
        </mxCell>
        <mxCell id="14Hxv5Df84lt4skrSm5c-132" value="" style="group;movable=1;resizable=1;rotatable=1;deletable=1;editable=1;locked=0;connectable=1;" parent="lD0onL5QnXaqYymmlR6V-2" vertex="1" connectable="0">
          <mxGeometry x="250" y="460" width="300" height="160" as="geometry" />
        </mxCell>
        <mxCell id="14Hxv5Df84lt4skrSm5c-133" value="Authentication" style="rounded=1;whiteSpace=wrap;html=1;movable=1;resizable=1;rotatable=1;deletable=1;editable=1;locked=0;connectable=1;" parent="14Hxv5Df84lt4skrSm5c-132" vertex="1">
          <mxGeometry y="100" width="300" height="60" as="geometry" />
        </mxCell>
        <mxCell id="14Hxv5Df84lt4skrSm5c-134" value="Authorization" style="rounded=1;whiteSpace=wrap;html=1;movable=1;resizable=1;rotatable=1;deletable=1;editable=1;locked=0;connectable=1;" parent="14Hxv5Df84lt4skrSm5c-132" vertex="1">
          <mxGeometry width="300" height="60" as="geometry" />
        </mxCell>
        <mxCell id="14Hxv5Df84lt4skrSm5c-135" value="" style="endArrow=classic;startArrow=classic;html=1;rounded=0;movable=1;resizable=1;rotatable=1;deletable=1;editable=1;locked=0;connectable=1;" parent="14Hxv5Df84lt4skrSm5c-132" source="14Hxv5Df84lt4skrSm5c-133" target="14Hxv5Df84lt4skrSm5c-134" edge="1">
          <mxGeometry width="50" height="50" relative="1" as="geometry">
            <mxPoint x="1085.1063829787236" y="-60" as="sourcePoint" />
            <mxPoint x="1191.4893617021276" y="-160" as="targetPoint" />
          </mxGeometry>
        </mxCell>
        <mxCell id="14Hxv5Df84lt4skrSm5c-136" value="Session managerment" style="rounded=1;whiteSpace=wrap;html=1;movable=1;resizable=1;rotatable=1;deletable=1;editable=1;locked=0;connectable=1;" parent="lD0onL5QnXaqYymmlR6V-2" vertex="1">
          <mxGeometry x="250" y="665" width="300" height="70" as="geometry" />
        </mxCell>
        <mxCell id="14Hxv5Df84lt4skrSm5c-141" style="edgeStyle=orthogonalEdgeStyle;rounded=0;orthogonalLoop=1;jettySize=auto;html=1;entryX=0.5;entryY=0;entryDx=0;entryDy=0;movable=1;resizable=1;rotatable=1;deletable=1;editable=1;locked=0;connectable=1;" parent="lD0onL5QnXaqYymmlR6V-2" source="14Hxv5Df84lt4skrSm5c-137" target="14Hxv5Df84lt4skrSm5c-130" edge="1">
          <mxGeometry relative="1" as="geometry" />
        </mxCell>
        <mxCell id="14Hxv5Df84lt4skrSm5c-147" style="edgeStyle=orthogonalEdgeStyle;rounded=0;orthogonalLoop=1;jettySize=auto;html=1;movable=1;resizable=1;rotatable=1;deletable=1;editable=1;locked=0;connectable=1;" parent="lD0onL5QnXaqYymmlR6V-2" source="14Hxv5Df84lt4skrSm5c-137" target="14Hxv5Df84lt4skrSm5c-138" edge="1">
          <mxGeometry relative="1" as="geometry" />
        </mxCell>
        <mxCell id="14Hxv5Df84lt4skrSm5c-137" value="API Traffic" style="rounded=1;whiteSpace=wrap;html=1;movable=1;resizable=1;rotatable=1;deletable=1;editable=1;locked=0;connectable=1;" parent="lD0onL5QnXaqYymmlR6V-2" vertex="1">
          <mxGeometry x="279.5" width="231" height="70" as="geometry" />
        </mxCell>
        <mxCell id="14Hxv5Df84lt4skrSm5c-148" style="edgeStyle=orthogonalEdgeStyle;rounded=0;orthogonalLoop=1;jettySize=auto;html=1;entryX=0.5;entryY=0;entryDx=0;entryDy=0;movable=1;resizable=1;rotatable=1;deletable=1;editable=1;locked=0;connectable=1;" parent="lD0onL5QnXaqYymmlR6V-2" source="14Hxv5Df84lt4skrSm5c-138" target="14Hxv5Df84lt4skrSm5c-139" edge="1">
          <mxGeometry relative="1" as="geometry" />
        </mxCell>
        <mxCell id="14Hxv5Df84lt4skrSm5c-138" value="Capture Log&lt;br&gt;API Traffic" style="rounded=1;whiteSpace=wrap;html=1;movable=1;resizable=1;rotatable=1;deletable=1;editable=1;locked=0;connectable=1;" parent="lD0onL5QnXaqYymmlR6V-2" vertex="1">
          <mxGeometry y="100" width="200" height="60" as="geometry" />
        </mxCell>
        <mxCell id="14Hxv5Df84lt4skrSm5c-149" style="edgeStyle=orthogonalEdgeStyle;rounded=0;orthogonalLoop=1;jettySize=auto;html=1;entryX=0.5;entryY=0;entryDx=0;entryDy=0;movable=1;resizable=1;rotatable=1;deletable=1;editable=1;locked=0;connectable=1;" parent="lD0onL5QnXaqYymmlR6V-2" source="14Hxv5Df84lt4skrSm5c-139" target="14Hxv5Df84lt4skrSm5c-140" edge="1">
          <mxGeometry relative="1" as="geometry" />
        </mxCell>
        <mxCell id="14Hxv5Df84lt4skrSm5c-139" value="Modules AI" style="rounded=1;whiteSpace=wrap;html=1;movable=1;resizable=1;rotatable=1;deletable=1;editable=1;locked=0;connectable=1;" parent="lD0onL5QnXaqYymmlR6V-2" vertex="1">
          <mxGeometry y="280" width="200" height="60" as="geometry" />
        </mxCell>
        <mxCell id="14Hxv5Df84lt4skrSm5c-150" style="edgeStyle=orthogonalEdgeStyle;rounded=0;orthogonalLoop=1;jettySize=auto;html=1;entryX=0.5;entryY=1;entryDx=0;entryDy=0;movable=1;resizable=1;rotatable=1;deletable=1;editable=1;locked=0;connectable=1;" parent="lD0onL5QnXaqYymmlR6V-2" source="14Hxv5Df84lt4skrSm5c-140" target="14Hxv5Df84lt4skrSm5c-136" edge="1">
          <mxGeometry relative="1" as="geometry">
            <Array as="points">
              <mxPoint x="90" y="755" />
              <mxPoint x="400" y="755" />
            </Array>
          </mxGeometry>
        </mxCell>
        <mxCell id="14Hxv5Df84lt4skrSm5c-140" value="Modules Action" style="rounded=1;whiteSpace=wrap;html=1;movable=1;resizable=1;rotatable=1;deletable=1;editable=1;locked=0;connectable=1;" parent="lD0onL5QnXaqYymmlR6V-2" vertex="1">
          <mxGeometry y="510" width="200" height="60" as="geometry" />
        </mxCell>
        <mxCell id="14Hxv5Df84lt4skrSm5c-146" style="edgeStyle=orthogonalEdgeStyle;rounded=0;orthogonalLoop=1;jettySize=auto;html=1;entryX=0.5;entryY=0;entryDx=0;entryDy=0;movable=1;resizable=1;rotatable=1;deletable=1;editable=1;locked=0;connectable=1;" parent="lD0onL5QnXaqYymmlR6V-2" source="14Hxv5Df84lt4skrSm5c-133" target="14Hxv5Df84lt4skrSm5c-136" edge="1">
          <mxGeometry relative="1" as="geometry" />
        </mxCell>
        <mxCell id="Q4DGkVbNaZSK5k8I3Ic_-88" value="" style="group" vertex="1" connectable="0" parent="1">
          <mxGeometry x="-1860" y="1090" width="1092" height="1282.42" as="geometry" />
        </mxCell>
        <mxCell id="Q4DGkVbNaZSK5k8I3Ic_-78" value="" style="group" vertex="1" connectable="0" parent="Q4DGkVbNaZSK5k8I3Ic_-88">
          <mxGeometry x="82.00157894736844" y="700" width="992.1084210526316" height="582.4200000000001" as="geometry" />
        </mxCell>
        <mxCell id="lD0onL5QnXaqYymmlR6V-20" value="" style="group" parent="Q4DGkVbNaZSK5k8I3Ic_-78" vertex="1" connectable="0">
          <mxGeometry y="209.9987432117921" width="691.7031578947368" height="372.4212567882079" as="geometry" />
        </mxCell>
        <mxCell id="Q4DGkVbNaZSK5k8I3Ic_-74" style="edgeStyle=orthogonalEdgeStyle;rounded=0;orthogonalLoop=1;jettySize=auto;html=1;fillColor=#d5e8d4;strokeColor=#82b366;strokeWidth=3;" edge="1" parent="lD0onL5QnXaqYymmlR6V-20" source="lD0onL5QnXaqYymmlR6V-5">
          <mxGeometry relative="1" as="geometry">
            <mxPoint x="459.99842105263156" y="-169.9987432117921" as="targetPoint" />
            <Array as="points">
              <mxPoint x="347" y="-170" />
            </Array>
          </mxGeometry>
        </mxCell>
        <mxCell id="lD0onL5QnXaqYymmlR6V-5" value="" style="rounded=1;whiteSpace=wrap;html=1;" parent="lD0onL5QnXaqYymmlR6V-20" vertex="1">
          <mxGeometry x="2.7557894736841457" y="3.472459270752521" width="688.9473684210527" height="368.9487975174554" as="geometry" />
        </mxCell>
        <mxCell id="lD0onL5QnXaqYymmlR6V-6" value="RESOURCE" style="text;html=1;align=center;verticalAlign=middle;whiteSpace=wrap;rounded=0;" parent="lD0onL5QnXaqYymmlR6V-20" vertex="1">
          <mxGeometry x="315.9136842105263" width="53.6842105263158" height="26.043444530643907" as="geometry" />
        </mxCell>
        <mxCell id="lD0onL5QnXaqYymmlR6V-7" value="Database 1" style="shape=datastore;whiteSpace=wrap;html=1;verticalAlign=bottom;" parent="lD0onL5QnXaqYymmlR6V-20" vertex="1">
          <mxGeometry x="460" y="65.5" width="70" height="64.5" as="geometry" />
        </mxCell>
        <mxCell id="Q4DGkVbNaZSK5k8I3Ic_-4" style="edgeStyle=orthogonalEdgeStyle;rounded=0;orthogonalLoop=1;jettySize=auto;html=1;fillColor=#fff2cc;strokeColor=#d6b656;strokeWidth=3;" edge="1" parent="lD0onL5QnXaqYymmlR6V-20" source="lD0onL5QnXaqYymmlR6V-10" target="lD0onL5QnXaqYymmlR6V-7">
          <mxGeometry relative="1" as="geometry" />
        </mxCell>
        <mxCell id="lD0onL5QnXaqYymmlR6V-10" value="Application 1" style="rounded=1;whiteSpace=wrap;html=1;" parent="lD0onL5QnXaqYymmlR6V-20" vertex="1">
          <mxGeometry x="82.62736842105257" y="26.038487199379357" width="107.3684210526316" height="52.08688906128781" as="geometry" />
        </mxCell>
        <mxCell id="Q4DGkVbNaZSK5k8I3Ic_-5" style="edgeStyle=orthogonalEdgeStyle;rounded=0;orthogonalLoop=1;jettySize=auto;html=1;entryX=0;entryY=0.5;entryDx=0;entryDy=0;fillColor=#fff2cc;strokeColor=#d6b656;strokeWidth=3;" edge="1" parent="lD0onL5QnXaqYymmlR6V-20" source="lD0onL5QnXaqYymmlR6V-11" target="Q4DGkVbNaZSK5k8I3Ic_-1">
          <mxGeometry relative="1" as="geometry" />
        </mxCell>
        <mxCell id="lD0onL5QnXaqYymmlR6V-11" value="Application 2" style="rounded=1;whiteSpace=wrap;html=1;" parent="lD0onL5QnXaqYymmlR6V-20" vertex="1">
          <mxGeometry x="189.99473684210523" y="77.9179131109387" width="107.3684210526316" height="52.08688906128781" as="geometry" />
        </mxCell>
        <mxCell id="Q4DGkVbNaZSK5k8I3Ic_-8" style="edgeStyle=orthogonalEdgeStyle;rounded=0;orthogonalLoop=1;jettySize=auto;html=1;fillColor=#fff2cc;strokeColor=#d6b656;strokeWidth=3;" edge="1" parent="lD0onL5QnXaqYymmlR6V-20" source="lD0onL5QnXaqYymmlR6V-12" target="lD0onL5QnXaqYymmlR6V-17">
          <mxGeometry relative="1" as="geometry" />
        </mxCell>
        <mxCell id="lD0onL5QnXaqYymmlR6V-12" value="Application 3" style="rounded=1;whiteSpace=wrap;html=1;" parent="lD0onL5QnXaqYymmlR6V-20" vertex="1">
          <mxGeometry x="65.38736842105257" y="140.20054305663305" width="107.3684210526316" height="52.08688906128781" as="geometry" />
        </mxCell>
        <mxCell id="lD0onL5QnXaqYymmlR6V-13" value="" style="endArrow=none;dashed=1;html=1;dashPattern=1 3;strokeWidth=2;rounded=0;exitX=0.61;exitY=0.997;exitDx=0;exitDy=0;exitPerimeter=0;entryX=0.61;entryY=-0.003;entryDx=0;entryDy=0;entryPerimeter=0;" parent="lD0onL5QnXaqYymmlR6V-20" source="lD0onL5QnXaqYymmlR6V-5" target="lD0onL5QnXaqYymmlR6V-5" edge="1">
          <mxGeometry width="50" height="50" relative="1" as="geometry">
            <mxPoint x="396.44" y="92.45422808378588" as="sourcePoint" />
            <mxPoint x="441.1768421052632" y="49.04848719937936" as="targetPoint" />
          </mxGeometry>
        </mxCell>
        <mxCell id="lD0onL5QnXaqYymmlR6V-14" value="" style="endArrow=none;dashed=1;html=1;dashPattern=1 3;strokeWidth=2;rounded=0;exitX=-0.004;exitY=0.476;exitDx=0;exitDy=0;exitPerimeter=0;" parent="lD0onL5QnXaqYymmlR6V-20" edge="1">
          <mxGeometry width="50" height="50" relative="1" as="geometry">
            <mxPoint y="210.23136539953458" as="sourcePoint" />
            <mxPoint x="423.28210526315786" y="210.40498836307205" as="targetPoint" />
          </mxGeometry>
        </mxCell>
        <mxCell id="lD0onL5QnXaqYymmlR6V-15" value="Application 4" style="rounded=1;whiteSpace=wrap;html=1;" parent="lD0onL5QnXaqYymmlR6V-20" vertex="1">
          <mxGeometry x="244.33473684210523" y="140.20054305663305" width="107.3684210526316" height="52.08688906128781" as="geometry" />
        </mxCell>
        <mxCell id="Q4DGkVbNaZSK5k8I3Ic_-6" style="edgeStyle=orthogonalEdgeStyle;rounded=0;orthogonalLoop=1;jettySize=auto;html=1;entryX=0.5;entryY=0;entryDx=0;entryDy=0;fillColor=#fff2cc;strokeColor=#d6b656;strokeWidth=3;" edge="1" parent="lD0onL5QnXaqYymmlR6V-20" source="lD0onL5QnXaqYymmlR6V-16" target="lD0onL5QnXaqYymmlR6V-18">
          <mxGeometry relative="1" as="geometry" />
        </mxCell>
        <mxCell id="lD0onL5QnXaqYymmlR6V-16" value="Service 1" style="ellipse;whiteSpace=wrap;html=1;" parent="lD0onL5QnXaqYymmlR6V-20" vertex="1">
          <mxGeometry x="72.09789473684205" y="227.8801396431342" width="93.94736842105264" height="55.55934833204034" as="geometry" />
        </mxCell>
        <mxCell id="Q4DGkVbNaZSK5k8I3Ic_-9" style="edgeStyle=orthogonalEdgeStyle;rounded=0;orthogonalLoop=1;jettySize=auto;html=1;entryX=0;entryY=0.7;entryDx=0;entryDy=0;fillColor=#fff2cc;strokeColor=#d6b656;strokeWidth=3;" edge="1" parent="lD0onL5QnXaqYymmlR6V-20" source="lD0onL5QnXaqYymmlR6V-17" target="lD0onL5QnXaqYymmlR6V-7">
          <mxGeometry relative="1" as="geometry">
            <Array as="points">
              <mxPoint x="372" y="257" />
              <mxPoint x="372" y="176" />
              <mxPoint x="460" y="176" />
            </Array>
          </mxGeometry>
        </mxCell>
        <mxCell id="lD0onL5QnXaqYymmlR6V-17" value="Service 2" style="ellipse;whiteSpace=wrap;html=1;" parent="lD0onL5QnXaqYymmlR6V-20" vertex="1">
          <mxGeometry x="190.65052631578945" y="229.6163692785105" width="93.94736842105264" height="55.55934833204034" as="geometry" />
        </mxCell>
        <mxCell id="lD0onL5QnXaqYymmlR6V-18" value="Service 3" style="ellipse;whiteSpace=wrap;html=1;" parent="lD0onL5QnXaqYymmlR6V-20" vertex="1">
          <mxGeometry x="136.96631578947364" y="309.48293250581844" width="93.94736842105264" height="55.55934833204034" as="geometry" />
        </mxCell>
        <mxCell id="Q4DGkVbNaZSK5k8I3Ic_-10" style="edgeStyle=orthogonalEdgeStyle;rounded=0;orthogonalLoop=1;jettySize=auto;html=1;entryX=0;entryY=0.5;entryDx=0;entryDy=0;fillColor=#fff2cc;strokeColor=#d6b656;strokeWidth=3;" edge="1" parent="lD0onL5QnXaqYymmlR6V-20" source="lD0onL5QnXaqYymmlR6V-19" target="Q4DGkVbNaZSK5k8I3Ic_-3">
          <mxGeometry relative="1" as="geometry" />
        </mxCell>
        <mxCell id="lD0onL5QnXaqYymmlR6V-19" value="Service 4" style="ellipse;whiteSpace=wrap;html=1;" parent="lD0onL5QnXaqYymmlR6V-20" vertex="1">
          <mxGeometry x="298.87315789473683" y="275.5029325058184" width="93.94736842105264" height="55.55934833204034" as="geometry" />
        </mxCell>
        <mxCell id="Q4DGkVbNaZSK5k8I3Ic_-1" value="Database 2" style="shape=datastore;whiteSpace=wrap;html=1;verticalAlign=bottom;" vertex="1" parent="lD0onL5QnXaqYymmlR6V-20">
          <mxGeometry x="540" y="115.5" width="70" height="64.5" as="geometry" />
        </mxCell>
        <mxCell id="Q4DGkVbNaZSK5k8I3Ic_-2" value="Database 3" style="shape=datastore;whiteSpace=wrap;html=1;verticalAlign=bottom;" vertex="1" parent="lD0onL5QnXaqYymmlR6V-20">
          <mxGeometry x="460" y="192.2900000000002" width="70" height="64.5" as="geometry" />
        </mxCell>
        <mxCell id="Q4DGkVbNaZSK5k8I3Ic_-3" value="Database 4" style="shape=datastore;whiteSpace=wrap;html=1;verticalAlign=bottom;" vertex="1" parent="lD0onL5QnXaqYymmlR6V-20">
          <mxGeometry x="540" y="275.5000000000002" width="70" height="64.5" as="geometry" />
        </mxCell>
        <mxCell id="Q4DGkVbNaZSK5k8I3Ic_-7" style="edgeStyle=orthogonalEdgeStyle;rounded=0;orthogonalLoop=1;jettySize=auto;html=1;fillColor=#fff2cc;strokeColor=#d6b656;strokeWidth=3;" edge="1" parent="lD0onL5QnXaqYymmlR6V-20" source="lD0onL5QnXaqYymmlR6V-18">
          <mxGeometry relative="1" as="geometry">
            <mxPoint x="480.99842105263156" y="255.5012567882079" as="targetPoint" />
          </mxGeometry>
        </mxCell>
        <mxCell id="Q4DGkVbNaZSK5k8I3Ic_-65" value="" style="endArrow=classic;html=1;rounded=0;entryX=0.25;entryY=0;entryDx=0;entryDy=0;fillColor=#fff2cc;strokeColor=#d6b656;strokeWidth=3;exitX=0.213;exitY=0.006;exitDx=0;exitDy=0;exitPerimeter=0;" edge="1" parent="lD0onL5QnXaqYymmlR6V-20" source="lD0onL5QnXaqYymmlR6V-5" target="lD0onL5QnXaqYymmlR6V-10">
          <mxGeometry width="50" height="50" relative="1" as="geometry">
            <mxPoint x="147.99842105263156" y="0.001256788207911086" as="sourcePoint" />
            <mxPoint x="249.99842105263156" y="-9.998743211792089" as="targetPoint" />
          </mxGeometry>
        </mxCell>
        <mxCell id="Q4DGkVbNaZSK5k8I3Ic_-67" value="" style="endArrow=classic;html=1;rounded=0;entryX=0.5;entryY=0;entryDx=0;entryDy=0;fillColor=#fff2cc;strokeColor=#d6b656;strokeWidth=3;exitX=0.214;exitY=0.006;exitDx=0;exitDy=0;exitPerimeter=0;" edge="1" parent="lD0onL5QnXaqYymmlR6V-20" source="lD0onL5QnXaqYymmlR6V-5" target="lD0onL5QnXaqYymmlR6V-11">
          <mxGeometry width="50" height="50" relative="1" as="geometry">
            <mxPoint x="147.99842105263156" y="0.001256788207911086" as="sourcePoint" />
            <mxPoint x="478.99842105263156" y="79.00125678820791" as="targetPoint" />
          </mxGeometry>
        </mxCell>
        <mxCell id="Q4DGkVbNaZSK5k8I3Ic_-66" value="" style="endArrow=classic;html=1;rounded=0;entryX=0.15;entryY=0.05;entryDx=0;entryDy=0;entryPerimeter=0;fillColor=#fff2cc;strokeColor=#d6b656;strokeWidth=3;exitX=0.218;exitY=0.005;exitDx=0;exitDy=0;exitPerimeter=0;" edge="1" parent="lD0onL5QnXaqYymmlR6V-20" source="lD0onL5QnXaqYymmlR6V-5" target="lD0onL5QnXaqYymmlR6V-7">
          <mxGeometry width="50" height="50" relative="1" as="geometry">
            <mxPoint x="147.99842105263156" y="0.001256788207911086" as="sourcePoint" />
            <mxPoint x="117" y="36" as="targetPoint" />
          </mxGeometry>
        </mxCell>
        <mxCell id="Q4DGkVbNaZSK5k8I3Ic_-68" value="" style="endArrow=classic;html=1;rounded=0;fillColor=#fff2cc;strokeColor=#d6b656;strokeWidth=3;exitX=0.21;exitY=0.005;exitDx=0;exitDy=0;exitPerimeter=0;" edge="1" parent="lD0onL5QnXaqYymmlR6V-20" source="lD0onL5QnXaqYymmlR6V-5" target="lD0onL5QnXaqYymmlR6V-16">
          <mxGeometry width="50" height="50" relative="1" as="geometry">
            <mxPoint x="147.99842105263156" y="0.001256788207911086" as="sourcePoint" />
            <mxPoint x="488.99842105263156" y="89.00125678820791" as="targetPoint" />
            <Array as="points">
              <mxPoint x="-102.00157894736844" y="70.00125678820791" />
            </Array>
          </mxGeometry>
        </mxCell>
        <mxCell id="14Hxv5Df84lt4skrSm5c-12" value="Respone" style="rounded=1;whiteSpace=wrap;html=1;" parent="Q4DGkVbNaZSK5k8I3Ic_-78" vertex="1">
          <mxGeometry x="799.9999999999999" y="222.59103956555464" width="107.36842105263158" height="347.2459270752521" as="geometry" />
        </mxCell>
        <mxCell id="vBAHDtPaToYPCBLMylsn-3" value="Machine Learning 2" style="rounded=1;whiteSpace=wrap;html=1;" parent="Q4DGkVbNaZSK5k8I3Ic_-78" vertex="1">
          <mxGeometry x="464.2089473684209" y="4.504631497284663" width="527.8947368421052" height="52.08688906128781" as="geometry" />
        </mxCell>
        <mxCell id="lD0onL5QnXaqYymmlR6V-41" value="" style="group" parent="Q4DGkVbNaZSK5k8I3Ic_-78" vertex="1" connectable="0">
          <mxGeometry x="209.99842105263153" y="100" width="782.11" height="72.05" as="geometry" />
        </mxCell>
        <mxCell id="14Hxv5Df84lt4skrSm5c-40" value="Application Endpoint" style="rounded=1;whiteSpace=wrap;html=1;" parent="lD0onL5QnXaqYymmlR6V-41" vertex="1">
          <mxGeometry width="782.11" height="72.05000000000004" as="geometry" />
        </mxCell>
        <mxCell id="lD0onL5QnXaqYymmlR6V-4" value="Capture Log Request/Respone" style="rounded=1;whiteSpace=wrap;html=1;" parent="lD0onL5QnXaqYymmlR6V-41" vertex="1">
          <mxGeometry x="548.3134812834226" y="11.719425842781321" width="212.46750071122997" height="52.0874481357064" as="geometry" />
        </mxCell>
        <mxCell id="Q4DGkVbNaZSK5k8I3Ic_-12" value="" style="endArrow=classic;html=1;rounded=0;fontSize=15;strokeWidth=7;entryX=0.213;entryY=0.006;entryDx=0;entryDy=0;entryPerimeter=0;" edge="1" parent="Q4DGkVbNaZSK5k8I3Ic_-78" target="lD0onL5QnXaqYymmlR6V-5">
          <mxGeometry relative="1" as="geometry">
            <mxPoint x="149.99842105263153" as="sourcePoint" />
            <mxPoint x="149.99842105263153" y="210" as="targetPoint" />
          </mxGeometry>
        </mxCell>
        <mxCell id="Q4DGkVbNaZSK5k8I3Ic_-13" value="" style="shape=message;html=1;outlineConnect=0;" vertex="1" parent="Q4DGkVbNaZSK5k8I3Ic_-12">
          <mxGeometry width="20" height="14" relative="1" as="geometry">
            <mxPoint x="-10" y="-7" as="offset" />
          </mxGeometry>
        </mxCell>
        <mxCell id="Q4DGkVbNaZSK5k8I3Ic_-16" value="" style="endArrow=classic;html=1;rounded=0;strokeWidth=7;endSize=10;startSize=7;endFill=1;fillColor=#e1d5e7;strokeColor=#9673a6;" edge="1" parent="Q4DGkVbNaZSK5k8I3Ic_-78">
          <mxGeometry relative="1" as="geometry">
            <mxPoint x="691.7015789473685" y="379.99626066718383" as="sourcePoint" />
            <mxPoint x="799.9984210526316" y="380" as="targetPoint" />
          </mxGeometry>
        </mxCell>
        <mxCell id="Q4DGkVbNaZSK5k8I3Ic_-17" value="" style="shape=message;html=1;outlineConnect=0;" vertex="1" parent="Q4DGkVbNaZSK5k8I3Ic_-16">
          <mxGeometry width="20" height="14" relative="1" as="geometry">
            <mxPoint x="-10" y="-7" as="offset" />
          </mxGeometry>
        </mxCell>
        <mxCell id="Q4DGkVbNaZSK5k8I3Ic_-19" value="" style="endArrow=classic;html=1;rounded=0;exitX=0.5;exitY=0;exitDx=0;exitDy=0;strokeWidth=7;endSize=10;startSize=7;entryX=0.5;entryY=0;entryDx=0;entryDy=0;fillColor=#e1d5e7;strokeColor=#9673a6;" edge="1" parent="Q4DGkVbNaZSK5k8I3Ic_-78" source="14Hxv5Df84lt4skrSm5c-12">
          <mxGeometry relative="1" as="geometry">
            <mxPoint x="853.2684210526315" y="213.04999999999995" as="sourcePoint" />
            <mxPoint x="853.2684210526315" y="172.04999999999995" as="targetPoint" />
          </mxGeometry>
        </mxCell>
        <mxCell id="Q4DGkVbNaZSK5k8I3Ic_-20" value="" style="shape=message;html=1;outlineConnect=0;" vertex="1" parent="Q4DGkVbNaZSK5k8I3Ic_-19">
          <mxGeometry width="20" height="14" relative="1" as="geometry">
            <mxPoint x="-10" y="-7" as="offset" />
          </mxGeometry>
        </mxCell>
        <mxCell id="Q4DGkVbNaZSK5k8I3Ic_-21" value="" style="endArrow=classic;html=1;rounded=0;strokeWidth=7;endSize=10;startSize=7;entryX=0.5;entryY=0;entryDx=0;entryDy=0;fillColor=#e1d5e7;strokeColor=#9673a6;" edge="1" parent="Q4DGkVbNaZSK5k8I3Ic_-78">
          <mxGeometry relative="1" as="geometry">
            <mxPoint x="891.9984210526316" y="100" as="sourcePoint" />
            <mxPoint x="891.8884210526315" y="56.58999999999992" as="targetPoint" />
          </mxGeometry>
        </mxCell>
        <mxCell id="Q4DGkVbNaZSK5k8I3Ic_-22" value="" style="shape=message;html=1;outlineConnect=0;" vertex="1" parent="Q4DGkVbNaZSK5k8I3Ic_-21">
          <mxGeometry width="20" height="14" relative="1" as="geometry">
            <mxPoint x="-10" y="-7" as="offset" />
          </mxGeometry>
        </mxCell>
        <mxCell id="Q4DGkVbNaZSK5k8I3Ic_-14" value="" style="endArrow=classic;html=1;rounded=0;fontSize=15;strokeWidth=7;" edge="1" parent="Q4DGkVbNaZSK5k8I3Ic_-78" source="vBAHDtPaToYPCBLMylsn-3">
          <mxGeometry relative="1" as="geometry">
            <mxPoint x="464.2089473684207" y="20.5480760279288" as="sourcePoint" />
            <mxPoint x="157.99842105263156" y="30" as="targetPoint" />
          </mxGeometry>
        </mxCell>
        <mxCell id="Q4DGkVbNaZSK5k8I3Ic_-15" value="" style="shape=message;html=1;outlineConnect=0;" vertex="1" parent="Q4DGkVbNaZSK5k8I3Ic_-14">
          <mxGeometry width="20" height="14" relative="1" as="geometry">
            <mxPoint x="-10" y="-7" as="offset" />
          </mxGeometry>
        </mxCell>
        <mxCell id="Q4DGkVbNaZSK5k8I3Ic_-87" value="" style="group" vertex="1" connectable="0" parent="Q4DGkVbNaZSK5k8I3Ic_-78">
          <mxGeometry x="-162.00157894736844" y="-107" width="260" height="187" as="geometry" />
        </mxCell>
        <mxCell id="Q4DGkVbNaZSK5k8I3Ic_-83" value="Group Database Authentication" style="rounded=1;whiteSpace=wrap;html=1;verticalAlign=bottom;" vertex="1" parent="Q4DGkVbNaZSK5k8I3Ic_-87">
          <mxGeometry width="260" height="187" as="geometry" />
        </mxCell>
        <mxCell id="Q4DGkVbNaZSK5k8I3Ic_-79" value="Database Session" style="shape=datastore;whiteSpace=wrap;html=1;verticalAlign=bottom;" vertex="1" parent="Q4DGkVbNaZSK5k8I3Ic_-87">
          <mxGeometry x="150" y="71.00000000000023" width="90" height="80" as="geometry" />
        </mxCell>
        <mxCell id="Q4DGkVbNaZSK5k8I3Ic_-81" value="Database Authentication - Authorization" style="shape=datastore;whiteSpace=wrap;html=1;verticalAlign=bottom;" vertex="1" parent="Q4DGkVbNaZSK5k8I3Ic_-87">
          <mxGeometry x="30.001578947368444" y="47" width="102" height="93" as="geometry" />
        </mxCell>
        <mxCell id="lD0onL5QnXaqYymmlR6V-32" value="" style="group" parent="Q4DGkVbNaZSK5k8I3Ic_-88" vertex="1" connectable="0">
          <mxGeometry x="72" width="1020" height="1119" as="geometry" />
        </mxCell>
        <mxCell id="vBAHDtPaToYPCBLMylsn-4" value="Machine Learning 1" style="rounded=1;whiteSpace=wrap;html=1;" parent="lD0onL5QnXaqYymmlR6V-32" vertex="1">
          <mxGeometry x="69.78894736842105" y="184.4967339022498" width="832.1052631578946" height="52.08688906128781" as="geometry" />
        </mxCell>
        <mxCell id="14Hxv5Df84lt4skrSm5c-11" value="USER" style="rounded=1;whiteSpace=wrap;html=1;" parent="lD0onL5QnXaqYymmlR6V-32" vertex="1">
          <mxGeometry x="181.63" width="668.37" height="52.09" as="geometry" />
        </mxCell>
        <mxCell id="14Hxv5Df84lt4skrSm5c-1" value="API GateWay" style="rounded=1;whiteSpace=wrap;html=1;movable=1;resizable=1;rotatable=1;deletable=1;editable=1;locked=0;connectable=1;verticalAlign=bottom;" parent="lD0onL5QnXaqYymmlR6V-32" vertex="1">
          <mxGeometry y="259.57" width="957.37" height="330.43" as="geometry" />
        </mxCell>
        <mxCell id="vBAHDtPaToYPCBLMylsn-15" style="edgeStyle=orthogonalEdgeStyle;rounded=0;orthogonalLoop=1;jettySize=auto;html=1;entryX=0.5;entryY=1;entryDx=0;entryDy=0;startArrow=classic;startFill=1;fillColor=#d5e8d4;strokeColor=#82b366;strokeWidth=3;" parent="lD0onL5QnXaqYymmlR6V-32" source="14Hxv5Df84lt4skrSm5c-5" target="14Hxv5Df84lt4skrSm5c-2" edge="1">
          <mxGeometry relative="1" as="geometry" />
        </mxCell>
        <mxCell id="14Hxv5Df84lt4skrSm5c-5" value="Session managerment" style="rounded=1;whiteSpace=wrap;html=1;" parent="lD0onL5QnXaqYymmlR6V-32" vertex="1">
          <mxGeometry x="441.1052631578947" y="460.9689681923972" width="89.4736842105263" height="34.72459270752522" as="geometry" />
        </mxCell>
        <mxCell id="vBAHDtPaToYPCBLMylsn-17" style="edgeStyle=orthogonalEdgeStyle;rounded=0;orthogonalLoop=1;jettySize=auto;html=1;entryX=0;entryY=0.5;entryDx=0;entryDy=0;fillColor=#d5e8d4;strokeColor=#82b366;strokeWidth=3;" parent="lD0onL5QnXaqYymmlR6V-32" target="14Hxv5Df84lt4skrSm5c-26" edge="1">
          <mxGeometry relative="1" as="geometry">
            <Array as="points">
              <mxPoint x="259.47368421052624" y="415.8269976726144" />
              <mxPoint x="259.47368421052624" y="302.97207137315746" />
              <mxPoint x="832.1052631578946" y="302.97207137315746" />
            </Array>
            <mxPoint x="234.86842105263156" y="415.63601241272323" as="sourcePoint" />
            <mxPoint x="812.421052631579" y="309.9169899146621" as="targetPoint" />
          </mxGeometry>
        </mxCell>
        <mxCell id="14Hxv5Df84lt4skrSm5c-7" value="Load balancing" style="rounded=1;whiteSpace=wrap;html=1;" parent="lD0onL5QnXaqYymmlR6V-32" vertex="1">
          <mxGeometry x="200.86842105263156" y="410.42732350659423" width="107.36842105263158" height="26.043444530643907" as="geometry" />
        </mxCell>
        <mxCell id="14Hxv5Df84lt4skrSm5c-8" value="" style="group" parent="lD0onL5QnXaqYymmlR6V-32" vertex="1" connectable="0">
          <mxGeometry x="436.6315789473684" y="344.64158262218774" width="98.42105263157895" height="69.44918541505044" as="geometry" />
        </mxCell>
        <mxCell id="14Hxv5Df84lt4skrSm5c-2" value="Authentication" style="rounded=1;whiteSpace=wrap;html=1;" parent="14Hxv5Df84lt4skrSm5c-8" vertex="1">
          <mxGeometry y="56.42746314972848" width="98.42105263157895" height="26.043444530643914" as="geometry" />
        </mxCell>
        <mxCell id="14Hxv5Df84lt4skrSm5c-3" value="Authorization" style="rounded=1;whiteSpace=wrap;html=1;" parent="14Hxv5Df84lt4skrSm5c-8" vertex="1">
          <mxGeometry width="98.42105263157895" height="26.043444530643914" as="geometry" />
        </mxCell>
        <mxCell id="14Hxv5Df84lt4skrSm5c-4" value="" style="endArrow=classic;startArrow=classic;html=1;rounded=0;fillColor=#d5e8d4;strokeColor=#82b366;strokeWidth=2;" parent="14Hxv5Df84lt4skrSm5c-8" source="14Hxv5Df84lt4skrSm5c-2" target="14Hxv5Df84lt4skrSm5c-3" edge="1">
          <mxGeometry width="50" height="50" relative="1" as="geometry">
            <mxPoint x="355.9910414333707" y="-26.043444530643914" as="sourcePoint" />
            <mxPoint x="390.8921239268384" y="-69.44918541505044" as="targetPoint" />
          </mxGeometry>
        </mxCell>
        <mxCell id="14Hxv5Df84lt4skrSm5c-19" value="" style="shape=flexArrow;endArrow=classic;startArrow=classic;html=1;rounded=0;exitX=1;exitY=0.5;exitDx=0;exitDy=0;entryX=0;entryY=0.5;entryDx=0;entryDy=0;" parent="lD0onL5QnXaqYymmlR6V-32" source="14Hxv5Df84lt4skrSm5c-7" target="14Hxv5Df84lt4skrSm5c-2" edge="1">
          <mxGeometry width="100" height="100" relative="1" as="geometry">
            <mxPoint x="214.73684210526315" y="438.83204034134985" as="sourcePoint" />
            <mxPoint x="331.05263157894734" y="417.56322730799064" as="targetPoint" />
          </mxGeometry>
        </mxCell>
        <mxCell id="14Hxv5Df84lt4skrSm5c-20" value="" style="shape=flexArrow;endArrow=classic;startArrow=classic;html=1;rounded=0;exitX=1;exitY=0.5;exitDx=0;exitDy=0;entryX=0;entryY=0.5;entryDx=0;entryDy=0;" parent="lD0onL5QnXaqYymmlR6V-32" source="14Hxv5Df84lt4skrSm5c-3" target="14Hxv5Df84lt4skrSm5c-45" edge="1">
          <mxGeometry width="100" height="100" relative="1" as="geometry">
            <mxPoint x="563.6842105263157" y="378.9321179208689" as="sourcePoint" />
            <mxPoint x="635.2631578947368" y="379.366175329713" as="targetPoint" />
          </mxGeometry>
        </mxCell>
        <mxCell id="14Hxv5Df84lt4skrSm5c-26" value="Modules Logs" style="rounded=1;whiteSpace=wrap;html=1;" parent="lD0onL5QnXaqYymmlR6V-32" vertex="1">
          <mxGeometry x="832.1052631578946" y="278.6648564778898" width="107.36842105263158" height="52.08688906128781" as="geometry" />
        </mxCell>
        <mxCell id="lD0onL5QnXaqYymmlR6V-27" style="edgeStyle=orthogonalEdgeStyle;rounded=0;orthogonalLoop=1;jettySize=auto;html=1;entryX=0;entryY=0.5;entryDx=0;entryDy=0;fillColor=#d5e8d4;strokeColor=#82b366;strokeWidth=3;" parent="lD0onL5QnXaqYymmlR6V-32" source="14Hxv5Df84lt4skrSm5c-45" target="14Hxv5Df84lt4skrSm5c-26" edge="1">
          <mxGeometry relative="1" as="geometry">
            <Array as="points">
              <mxPoint x="814.2105263157894" y="304.70830100853374" />
            </Array>
          </mxGeometry>
        </mxCell>
        <mxCell id="14Hxv5Df84lt4skrSm5c-45" value="Validation" style="rounded=1;whiteSpace=wrap;html=1;" parent="lD0onL5QnXaqYymmlR6V-32" vertex="1">
          <mxGeometry x="779.3157894736842" y="404.5415050426687" width="113.18421052631578" height="26.043444530643907" as="geometry" />
        </mxCell>
        <mxCell id="14Hxv5Df84lt4skrSm5c-48" value="" style="shape=flexArrow;endArrow=classic;startArrow=classic;html=1;rounded=0;exitX=1;exitY=0.5;exitDx=0;exitDy=0;entryX=0;entryY=0.5;entryDx=0;entryDy=0;entryPerimeter=0;" parent="lD0onL5QnXaqYymmlR6V-32" source="14Hxv5Df84lt4skrSm5c-5" target="14Hxv5Df84lt4skrSm5c-45" edge="1">
          <mxGeometry width="100" height="100" relative="1" as="geometry">
            <mxPoint x="698.7894736842105" y="421.46974398758726" as="sourcePoint" />
            <mxPoint x="770.3684210526314" y="421.90380139643133" as="targetPoint" />
          </mxGeometry>
        </mxCell>
        <mxCell id="lD0onL5QnXaqYymmlR6V-25" style="edgeStyle=orthogonalEdgeStyle;rounded=0;orthogonalLoop=1;jettySize=auto;html=1;entryX=0;entryY=0.5;entryDx=0;entryDy=0;fillColor=#d5e8d4;strokeColor=#82b366;strokeWidth=3;" parent="lD0onL5QnXaqYymmlR6V-32" edge="1">
          <mxGeometry relative="1" as="geometry">
            <mxPoint x="75.45614035087773" y="415.826997672614" as="sourcePoint" />
            <mxPoint x="832.9999999999999" y="304.70830100853334" as="targetPoint" />
            <Array as="points">
              <mxPoint x="75.1578947368421" y="304.70830100853374" />
            </Array>
          </mxGeometry>
        </mxCell>
        <mxCell id="14Hxv5Df84lt4skrSm5c-10" value="Validation" style="rounded=1;whiteSpace=wrap;html=1;" parent="lD0onL5QnXaqYymmlR6V-32" vertex="1">
          <mxGeometry x="17.894736842105264" y="408.8820791311094" width="113.18421052631578" height="26.043444530643907" as="geometry" />
        </mxCell>
        <mxCell id="vBAHDtPaToYPCBLMylsn-12" value="" style="shape=flexArrow;endArrow=classic;startArrow=classic;html=1;rounded=0;exitX=1;exitY=1;exitDx=0;exitDy=0;entryX=0;entryY=0.5;entryDx=0;entryDy=0;" parent="lD0onL5QnXaqYymmlR6V-32" source="14Hxv5Df84lt4skrSm5c-7" target="14Hxv5Df84lt4skrSm5c-5" edge="1">
          <mxGeometry width="100" height="100" relative="1" as="geometry">
            <mxPoint x="191.92105263157893" y="491.35298681148174" as="sourcePoint" />
            <mxPoint x="308.2368421052632" y="470.08417377812253" as="targetPoint" />
          </mxGeometry>
        </mxCell>
        <mxCell id="vBAHDtPaToYPCBLMylsn-13" value="" style="shape=flexArrow;endArrow=classic;startArrow=classic;html=1;rounded=0;exitX=1;exitY=0.25;exitDx=0;exitDy=0;entryX=0;entryY=0.5;entryDx=0;entryDy=0;" parent="lD0onL5QnXaqYymmlR6V-32" source="14Hxv5Df84lt4skrSm5c-7" target="14Hxv5Df84lt4skrSm5c-3" edge="1">
          <mxGeometry width="100" height="100" relative="1" as="geometry">
            <mxPoint x="196.8421052631579" y="403.23933281613654" as="sourcePoint" />
            <mxPoint x="313.1578947368421" y="381.97051978277733" as="targetPoint" />
          </mxGeometry>
        </mxCell>
        <mxCell id="vBAHDtPaToYPCBLMylsn-16" value="" style="shape=flexArrow;endArrow=classic;startArrow=classic;html=1;rounded=0;" parent="lD0onL5QnXaqYymmlR6V-32" edge="1">
          <mxGeometry width="100" height="100" relative="1" as="geometry">
            <mxPoint x="536.8421052631578" y="409.7501939487975" as="sourcePoint" />
            <mxPoint x="778.4210526315788" y="418.43134212567884" as="targetPoint" />
          </mxGeometry>
        </mxCell>
        <mxCell id="vBAHDtPaToYPCBLMylsn-20" value="" style="endArrow=classic;html=1;rounded=0;exitX=0.5;exitY=0;exitDx=0;exitDy=0;fillColor=#d5e8d4;strokeColor=#82b366;strokeWidth=3;" parent="lD0onL5QnXaqYymmlR6V-32" source="14Hxv5Df84lt4skrSm5c-3" edge="1">
          <mxGeometry width="50" height="50" relative="1" as="geometry">
            <mxPoint x="393.6842105263158" y="592.054305663305" as="sourcePoint" />
            <mxPoint x="485.84210526315786" y="305.5764158262219" as="targetPoint" />
          </mxGeometry>
        </mxCell>
        <mxCell id="vBAHDtPaToYPCBLMylsn-21" value="" style="endArrow=classic;html=1;rounded=0;exitX=0.5;exitY=0;exitDx=0;exitDy=0;fillColor=#d5e8d4;strokeColor=#82b366;strokeWidth=3;" parent="lD0onL5QnXaqYymmlR6V-32" edge="1">
          <mxGeometry width="50" height="50" relative="1" as="geometry">
            <mxPoint x="259.47368421052624" y="410.4273235065944" as="sourcePoint" />
            <mxPoint x="259.47368421052624" y="305.5764158262219" as="targetPoint" />
          </mxGeometry>
        </mxCell>
        <mxCell id="vBAHDtPaToYPCBLMylsn-22" value="" style="endArrow=classic;html=1;rounded=0;exitX=0.5;exitY=0;exitDx=0;exitDy=0;fillColor=#d5e8d4;strokeColor=#82b366;strokeWidth=3;" parent="lD0onL5QnXaqYymmlR6V-32" edge="1">
          <mxGeometry width="50" height="50" relative="1" as="geometry">
            <mxPoint x="74.71052631578947" y="408.8820791311094" as="sourcePoint" />
            <mxPoint x="74.26315789473684" y="303.8401861908456" as="targetPoint" />
          </mxGeometry>
        </mxCell>
        <mxCell id="lD0onL5QnXaqYymmlR6V-28" value="" style="endArrow=classic;html=1;rounded=0;strokeWidth=7;endSize=10;startSize=7;" parent="lD0onL5QnXaqYymmlR6V-32" edge="1">
          <mxGeometry relative="1" as="geometry">
            <mxPoint x="125.26315789473684" y="425.3762606671839" as="sourcePoint" />
            <mxPoint x="205.78947368421052" y="425.3762606671839" as="targetPoint" />
          </mxGeometry>
        </mxCell>
        <mxCell id="lD0onL5QnXaqYymmlR6V-29" value="" style="shape=message;html=1;outlineConnect=0;" parent="lD0onL5QnXaqYymmlR6V-28" vertex="1">
          <mxGeometry width="20" height="14" relative="1" as="geometry">
            <mxPoint x="-10" y="-7" as="offset" />
          </mxGeometry>
        </mxCell>
        <mxCell id="lD0onL5QnXaqYymmlR6V-34" value="" style="group" parent="lD0onL5QnXaqYymmlR6V-32" vertex="1" connectable="0">
          <mxGeometry x="29.99684210526315" y="89.99927075252134" width="894.736842105263" height="49.05072924747871" as="geometry" />
        </mxCell>
        <mxCell id="14Hxv5Df84lt4skrSm5c-13" value="Client Endpoint" style="rounded=1;whiteSpace=wrap;html=1;" parent="lD0onL5QnXaqYymmlR6V-34" vertex="1">
          <mxGeometry width="894.736842105263" height="49.04848719937936" as="geometry" />
        </mxCell>
        <mxCell id="14Hxv5Df84lt4skrSm5c-22" value="Capture Log Request/Respone" style="rounded=1;whiteSpace=wrap;html=1;" parent="lD0onL5QnXaqYymmlR6V-34" vertex="1">
          <mxGeometry x="86.34315789473683" y="4.9807292474786635" width="220.53" height="44.07" as="geometry" />
        </mxCell>
        <mxCell id="lD0onL5QnXaqYymmlR6V-33" value="Capture Log Request/Respone" style="rounded=1;whiteSpace=wrap;html=1;" parent="lD0onL5QnXaqYymmlR6V-34" vertex="1">
          <mxGeometry x="638.4131578947369" y="4.98072924747872" width="220.53" height="44.07" as="geometry" />
        </mxCell>
        <mxCell id="lD0onL5QnXaqYymmlR6V-35" value="" style="endArrow=classic;html=1;rounded=0;strokeWidth=7;endSize=10;startSize=7;" parent="lD0onL5QnXaqYymmlR6V-32" edge="1">
          <mxGeometry relative="1" as="geometry">
            <mxPoint x="240" y="54" as="sourcePoint" />
            <mxPoint x="240" y="100" as="targetPoint" />
          </mxGeometry>
        </mxCell>
        <mxCell id="lD0onL5QnXaqYymmlR6V-36" value="" style="shape=message;html=1;outlineConnect=0;" parent="lD0onL5QnXaqYymmlR6V-35" vertex="1">
          <mxGeometry width="20" height="14" relative="1" as="geometry">
            <mxPoint x="-10" y="-7" as="offset" />
          </mxGeometry>
        </mxCell>
        <mxCell id="lD0onL5QnXaqYymmlR6V-37" value="" style="endArrow=classic;html=1;rounded=0;exitX=0.5;exitY=1;exitDx=0;exitDy=0;strokeWidth=7;endSize=10;startSize=7;" parent="lD0onL5QnXaqYymmlR6V-32" source="14Hxv5Df84lt4skrSm5c-22" edge="1">
          <mxGeometry relative="1" as="geometry">
            <mxPoint x="210" y="160" as="sourcePoint" />
            <mxPoint x="227" y="190" as="targetPoint" />
          </mxGeometry>
        </mxCell>
        <mxCell id="lD0onL5QnXaqYymmlR6V-38" value="" style="shape=message;html=1;outlineConnect=0;" parent="lD0onL5QnXaqYymmlR6V-37" vertex="1">
          <mxGeometry width="20" height="14" relative="1" as="geometry">
            <mxPoint x="-10" y="-7" as="offset" />
          </mxGeometry>
        </mxCell>
        <mxCell id="lD0onL5QnXaqYymmlR6V-39" value="" style="endArrow=classic;html=1;rounded=0;entryX=0.677;entryY=0.011;entryDx=0;entryDy=0;entryPerimeter=0;strokeWidth=7;endSize=10;startSize=7;" parent="lD0onL5QnXaqYymmlR6V-32" target="vBAHDtPaToYPCBLMylsn-3" edge="1">
          <mxGeometry relative="1" as="geometry">
            <mxPoint x="832" y="434.5" as="sourcePoint" />
            <mxPoint x="930" y="444.5" as="targetPoint" />
          </mxGeometry>
        </mxCell>
        <mxCell id="lD0onL5QnXaqYymmlR6V-40" value="" style="shape=message;html=1;outlineConnect=0;" parent="lD0onL5QnXaqYymmlR6V-39" vertex="1">
          <mxGeometry width="20" height="14" relative="1" as="geometry">
            <mxPoint x="-10" y="-7" as="offset" />
          </mxGeometry>
        </mxCell>
        <mxCell id="Q4DGkVbNaZSK5k8I3Ic_-26" value="" style="endArrow=classic;html=1;rounded=0;strokeWidth=7;endSize=10;startSize=7;startArrow=none;startFill=0;" edge="1" parent="lD0onL5QnXaqYymmlR6V-32">
          <mxGeometry relative="1" as="geometry">
            <mxPoint x="-40" y="423" as="sourcePoint" />
            <mxPoint x="17.899473684210534" y="422.85626066718396" as="targetPoint" />
          </mxGeometry>
        </mxCell>
        <mxCell id="Q4DGkVbNaZSK5k8I3Ic_-27" value="" style="shape=message;html=1;outlineConnect=0;" vertex="1" parent="Q4DGkVbNaZSK5k8I3Ic_-26">
          <mxGeometry width="20" height="14" relative="1" as="geometry">
            <mxPoint x="-28" y="-7" as="offset" />
          </mxGeometry>
        </mxCell>
        <mxCell id="Q4DGkVbNaZSK5k8I3Ic_-34" value="" style="endArrow=classic;html=1;rounded=0;strokeWidth=7;endSize=10;startSize=7;startArrow=none;startFill=0;" edge="1" parent="lD0onL5QnXaqYymmlR6V-32">
          <mxGeometry relative="1" as="geometry">
            <mxPoint x="10" y="210" as="sourcePoint" />
            <mxPoint x="-70.21000000000004" y="210.33999999999992" as="targetPoint" />
          </mxGeometry>
        </mxCell>
        <mxCell id="Q4DGkVbNaZSK5k8I3Ic_-35" value="" style="shape=message;html=1;outlineConnect=0;" vertex="1" parent="Q4DGkVbNaZSK5k8I3Ic_-34">
          <mxGeometry width="20" height="14" relative="1" as="geometry">
            <mxPoint x="30" y="-7" as="offset" />
          </mxGeometry>
        </mxCell>
        <mxCell id="Q4DGkVbNaZSK5k8I3Ic_-57" value="" style="endArrow=classic;html=1;rounded=0;strokeWidth=7;fillColor=#e1d5e7;strokeColor=#9673a6;" edge="1" parent="lD0onL5QnXaqYymmlR6V-32">
          <mxGeometry width="50" height="50" relative="1" as="geometry">
            <mxPoint x="20" y="210" as="sourcePoint" />
            <mxPoint x="70" y="210" as="targetPoint" />
          </mxGeometry>
        </mxCell>
        <mxCell id="Q4DGkVbNaZSK5k8I3Ic_-58" value="" style="endArrow=classic;html=1;rounded=0;exitX=0.5;exitY=1;exitDx=0;exitDy=0;strokeWidth=7;endSize=10;startSize=7;fillColor=#e1d5e7;strokeColor=#9673a6;" edge="1" parent="lD0onL5QnXaqYymmlR6V-32">
          <mxGeometry relative="1" as="geometry">
            <mxPoint x="770" y="190.04999999999995" as="sourcePoint" />
            <mxPoint x="770" y="149.04999999999995" as="targetPoint" />
          </mxGeometry>
        </mxCell>
        <mxCell id="Q4DGkVbNaZSK5k8I3Ic_-59" value="" style="shape=message;html=1;outlineConnect=0;" vertex="1" parent="Q4DGkVbNaZSK5k8I3Ic_-58">
          <mxGeometry width="20" height="14" relative="1" as="geometry">
            <mxPoint x="-10" y="-7" as="offset" />
          </mxGeometry>
        </mxCell>
        <mxCell id="Q4DGkVbNaZSK5k8I3Ic_-60" value="" style="endArrow=classic;html=1;rounded=0;exitX=0.5;exitY=1;exitDx=0;exitDy=0;strokeWidth=7;endSize=10;startSize=7;fillColor=#e1d5e7;strokeColor=#9673a6;" edge="1" parent="lD0onL5QnXaqYymmlR6V-32">
          <mxGeometry relative="1" as="geometry">
            <mxPoint x="779.32" y="93.08999999999992" as="sourcePoint" />
            <mxPoint x="779.32" y="52.08999999999992" as="targetPoint" />
          </mxGeometry>
        </mxCell>
        <mxCell id="Q4DGkVbNaZSK5k8I3Ic_-61" value="" style="shape=message;html=1;outlineConnect=0;" vertex="1" parent="Q4DGkVbNaZSK5k8I3Ic_-60">
          <mxGeometry width="20" height="14" relative="1" as="geometry">
            <mxPoint x="-10" y="-7" as="offset" />
          </mxGeometry>
        </mxCell>
        <mxCell id="Q4DGkVbNaZSK5k8I3Ic_-63" value="Log" style="text;html=1;align=center;verticalAlign=middle;whiteSpace=wrap;rounded=0;" vertex="1" parent="lD0onL5QnXaqYymmlR6V-32">
          <mxGeometry x="719" y="279" width="60" height="30" as="geometry" />
        </mxCell>
        <mxCell id="Q4DGkVbNaZSK5k8I3Ic_-32" value="" style="endArrow=classic;html=1;rounded=0;entryX=0.677;entryY=0.011;entryDx=0;entryDy=0;entryPerimeter=0;strokeWidth=7;endSize=10;startSize=7;startArrow=none;startFill=0;" edge="1" parent="Q4DGkVbNaZSK5k8I3Ic_-88">
          <mxGeometry relative="1" as="geometry">
            <mxPoint y="320" as="sourcePoint" />
            <mxPoint y="430.5" as="targetPoint" />
          </mxGeometry>
        </mxCell>
        <mxCell id="Q4DGkVbNaZSK5k8I3Ic_-33" value="" style="shape=message;html=1;outlineConnect=0;" vertex="1" parent="Q4DGkVbNaZSK5k8I3Ic_-32">
          <mxGeometry width="20" height="14" relative="1" as="geometry">
            <mxPoint x="-10" y="-68" as="offset" />
          </mxGeometry>
        </mxCell>
        <mxCell id="Q4DGkVbNaZSK5k8I3Ic_-50" value="" style="endArrow=classic;html=1;rounded=0;strokeWidth=7;fillColor=#e1d5e7;strokeColor=#9673a6;" edge="1" parent="Q4DGkVbNaZSK5k8I3Ic_-88">
          <mxGeometry width="50" height="50" relative="1" as="geometry">
            <mxPoint x="30" y="432.43000000000006" as="sourcePoint" />
            <mxPoint y="432.43000000000006" as="targetPoint" />
          </mxGeometry>
        </mxCell>
        <mxCell id="Q4DGkVbNaZSK5k8I3Ic_-51" value="" style="endArrow=classic;html=1;rounded=0;exitX=0.5;exitY=0;exitDx=0;exitDy=0;strokeWidth=7;fillColor=#e1d5e7;strokeColor=#9673a6;" edge="1" parent="Q4DGkVbNaZSK5k8I3Ic_-88" source="Q4DGkVbNaZSK5k8I3Ic_-33">
          <mxGeometry width="50" height="50" relative="1" as="geometry">
            <mxPoint x="-10" y="310" as="sourcePoint" />
            <mxPoint y="220" as="targetPoint" />
          </mxGeometry>
        </mxCell>
        <mxCell id="lD0onL5QnXaqYymmlR6V-31" style="edgeStyle=orthogonalEdgeStyle;rounded=0;orthogonalLoop=1;jettySize=auto;html=1;fillColor=#d5e8d4;strokeColor=#82b366;strokeWidth=3;" parent="Q4DGkVbNaZSK5k8I3Ic_-88" source="14Hxv5Df84lt4skrSm5c-26" target="vBAHDtPaToYPCBLMylsn-3" edge="1">
          <mxGeometry relative="1" as="geometry">
            <mxPoint x="1092" y="614.5" as="targetPoint" />
            <Array as="points">
              <mxPoint x="1040" y="305" />
            </Array>
          </mxGeometry>
        </mxCell>
        <mxCell id="Q4DGkVbNaZSK5k8I3Ic_-23" value="" style="endArrow=classic;html=1;rounded=0;strokeWidth=7;endSize=10;startSize=7;entryX=0.888;entryY=0.952;entryDx=0;entryDy=0;entryPerimeter=0;fillColor=#e1d5e7;strokeColor=#9673a6;exitX=0.774;exitY=-0.029;exitDx=0;exitDy=0;exitPerimeter=0;" edge="1" parent="Q4DGkVbNaZSK5k8I3Ic_-88" source="vBAHDtPaToYPCBLMylsn-3" target="14Hxv5Df84lt4skrSm5c-45">
          <mxGeometry relative="1" as="geometry">
            <mxPoint x="952" y="570" as="sourcePoint" />
            <mxPoint x="964.5" y="537.79" as="targetPoint" />
          </mxGeometry>
        </mxCell>
        <mxCell id="Q4DGkVbNaZSK5k8I3Ic_-24" value="" style="shape=message;html=1;outlineConnect=0;" vertex="1" parent="Q4DGkVbNaZSK5k8I3Ic_-23">
          <mxGeometry width="20" height="14" relative="1" as="geometry">
            <mxPoint x="-10" y="-7" as="offset" />
          </mxGeometry>
        </mxCell>
        <mxCell id="Q4DGkVbNaZSK5k8I3Ic_-82" value="" style="endArrow=classic;startArrow=classic;html=1;rounded=0;entryX=0.931;entryY=0.025;entryDx=0;entryDy=0;entryPerimeter=0;fillColor=#fff2cc;strokeColor=#d6b656;strokeWidth=3;" edge="1" parent="Q4DGkVbNaZSK5k8I3Ic_-88" source="14Hxv5Df84lt4skrSm5c-2" target="Q4DGkVbNaZSK5k8I3Ic_-81">
          <mxGeometry width="50" height="50" relative="1" as="geometry">
            <mxPoint x="630" y="430" as="sourcePoint" />
            <mxPoint x="680" y="380" as="targetPoint" />
          </mxGeometry>
        </mxCell>
        <mxCell id="Q4DGkVbNaZSK5k8I3Ic_-85" value="" style="endArrow=classic;startArrow=classic;html=1;rounded=0;exitX=0.669;exitY=0.023;exitDx=0;exitDy=0;exitPerimeter=0;entryX=0.097;entryY=0.952;entryDx=0;entryDy=0;entryPerimeter=0;fillColor=#fff2cc;strokeColor=#d6b656;strokeWidth=3;" edge="1" parent="Q4DGkVbNaZSK5k8I3Ic_-88" source="Q4DGkVbNaZSK5k8I3Ic_-81" target="14Hxv5Df84lt4skrSm5c-3">
          <mxGeometry width="50" height="50" relative="1" as="geometry">
            <mxPoint x="120" y="640" as="sourcePoint" />
            <mxPoint x="170" y="590" as="targetPoint" />
          </mxGeometry>
        </mxCell>
        <mxCell id="Q4DGkVbNaZSK5k8I3Ic_-86" value="" style="endArrow=classic;startArrow=classic;html=1;rounded=0;entryX=0;entryY=1;entryDx=0;entryDy=0;exitX=0.85;exitY=0.05;exitDx=0;exitDy=0;exitPerimeter=0;fillColor=#fff2cc;strokeColor=#d6b656;strokeWidth=3;" edge="1" parent="Q4DGkVbNaZSK5k8I3Ic_-88" source="Q4DGkVbNaZSK5k8I3Ic_-79" target="14Hxv5Df84lt4skrSm5c-5">
          <mxGeometry width="50" height="50" relative="1" as="geometry">
            <mxPoint x="240" y="630" as="sourcePoint" />
            <mxPoint x="290" y="580" as="targetPoint" />
          </mxGeometry>
        </mxCell>
      </root>
    </mxGraphModel>
  </diagram>
</mxfile>
